<svg height="512pt" viewBox="0 0 512 512" width="512pt" xmlns="http://www.w3.org/2000/svg"><path d="m512 256c0 141.386719-114.613281 256-256 256s-256-114.613281-256-256 114.613281-256 256-256 256 114.613281 256 256zm0 0" fill="#537983"/><path d="m505.285156 314.46875c4.386719-18.78125 6.714844-38.351562 6.714844-58.46875 0-2.671875-.054688-5.335938-.136719-7.988281l-167.007812-167.003907-29.945313 29.945313 43.058594 43.058594-6.566406 6.570312zm0 0" fill="#3e5959"/><path d="m261.140625 511.933594c118.183594-2.328125 216.714844-84.738282 243.59375-195.203125l-241.554687-241.554688-26.261719 33.824219-33.925781-33.914062-21.164063 21.164062 95.578125 95.578125-32.1875 32.191406-84.617188-84.621093-21.164062 21.164062 84.617188 84.621094-114.832032 114.832031zm0 0" fill="#3e5959"/><path d="m228.144531 303.398438c-15.640625-6.261719-28.738281-17.835938-36.851562-32.585938l-4.742188-8.613281-63.847656 29.101562 48.496094 24.324219-13.871094 52.855469h.011719l77.460937-35.039063v-27.371094zm0 0" fill="#b35f49"/><path d="m389.609375 291.351562-71.425781-32.464843-44.410156 72.96875 80.761718 36.707031-2.472656-62.542969zm0 0" fill="#99503d"/><path d="m298.398438 297.128906v97.378906l-37.523438-32.648437-4.875 3.390625-42.398438 29.257812v-97.378906l14.839844 6.359375c8.476563 3.601563 18.019532 5.511719 27.558594 5.511719s19.082031-1.695312 27.558594-5.511719zm0 0" fill="#c6715a"/><path d="m298.398438 297.128906v97.378906l-37.523438-32.648437-4.875 3.390625v-56.25c9.539062 0 19.082031-1.695312 27.558594-5.511719zm0 0" fill="#b35f49"/><path d="m295.855469 380.515625c-5.722657-16.960937-21.835938-28.410156-39.855469-28.410156s-34.132812 11.449219-39.855469 28.195312c-1.695312 4.453125-2.542969 9.328125-2.542969 14.207031 0 23.316407 19.078126 42.398438 42.398438 42.398438s42.398438-19.082031 42.398438-42.398438c0-4.875-.847657-9.753906-2.542969-13.992187zm0 0" fill="#ffcebf"/><path d="m298.398438 394.507812c0 23.316407-19.078126 42.398438-42.398438 42.398438v-84.800781c18.019531 0 34.132812 11.449219 39.855469 28.410156 1.695312 4.238281 2.542969 9.117187 2.542969 13.992187zm0 0" fill="#ffb99c"/><path d="m372.601562 372.601562c-6.648437 0-13.054687-1.523437-18.511718-4.402343-14.285156-6.417969-23.890625-21.445313-23.890625-38 0-23.382813 19.015625-42.398438 42.402343-42.398438 23.382813 0 42.398438 19.015625 42.398438 42.398438 0 23.386719-19.015625 42.402343-42.398438 42.402343zm0 0" fill="#ffb99c"/><path d="m372.601562 351.398438c-3.167968 0-6.234374-.691407-8.613281-1.945313-8.011719-3.652344-12.589843-11.148437-12.589843-19.253906 0-11.6875 9.515624-21.199219 21.203124-21.199219 11.683594 0 21.199219 9.511719 21.199219 21.199219s-9.515625 21.199219-21.199219 21.199219zm0 0" fill="#ff9468"/><path d="m139.398438 372.601562c-23.382813 0-42.398438-19.015624-42.398438-42.402343 0-17.015625 10.496094-32.71875 26.105469-39.078125 4.929687-2.191406 10.363281-3.320313 16.292969-3.320313 23.386718 0 42.402343 19.015625 42.402343 42.398438 0 16.554687-9.605469 31.582031-24.472656 38.28125-4.875 2.597656-11.28125 4.121093-17.929687 4.121093zm0 0" fill="#ffcebf"/><path d="m139.398438 351.398438c-11.683594 0-21.199219-9.511719-21.199219-21.199219 0-8.351563 5.300781-16.34375 12.898437-19.4375 2.886719-1.273438 5.394532-1.761719 8.300782-1.761719 11.6875 0 21.203124 9.511719 21.203124 21.199219 0 8.230469-4.703124 15.671875-11.980468 18.953125-2.667969 1.367187-5.609375 2.246094-9.222656 2.246094zm0 0" fill="#ffb99c"/><g fill="#ff7816"><path d="m312.816406 145.335938-12.71875-16.535157-6.785156 20.988281c-4.453125 13.355469-5.300781 13.144532-10.601562 12.71875-6.78125-.421874-8.480469-5.296874-12.507813-36.886718-2.542969-20.777344-2.96875-23.816406-6.996094-50.527344l-7.207031 7.417969-7.632812 8.480469c-9.113282 9.542968-87.765626 94.199218-87.765626 143.808593 0 16.539063 4.238282 32.648438 12.082032 46.214844 10.601562 19.082031 27.347656 33.921875 47.277344 41.976563 10.597656 4.453124 22.894531 7.210937 36.039062 7.210937 12.933594 0 25.015625-2.332031 35.828125-7.210937 19.929687-7.84375 36.886719-22.894532 47.699219-41.976563 7.84375-13.777344 11.871094-29.890625 11.871094-46.214844 0-20.351562-12.929688-50.457031-38.582032-89.464843zm0 0"/><path d="m181.800781 75.09375h21.199219v21.199219h-21.199219zm0 0"/><path d="m139.398438 139.398438h21.203124v21.203124h-21.203124zm0 0"/></g><path d="m351.398438 139.398438h21.203124v21.203124h-21.203124zm0 0" fill="#ff4b00"/><path d="m330.199219 117.492188c-11.6875 0-21.199219-9.511719-21.199219-21.199219s9.511719-21.199219 21.199219-21.199219 21.199219 9.511719 21.199219 21.199219-9.511719 21.199219-21.199219 21.199219zm0 0" fill="#ff4b00"/><path d="m351.398438 234.800781c0 16.324219-4.027344 32.4375-11.871094 46.214844-10.8125 19.082031-27.769532 34.132813-47.699219 41.976563-10.8125 4.875-22.894531 7.207031-35.828125 7.207031v-247.6875l7.210938-7.417969c4.027343 26.710938 4.449218 29.75 6.992187 50.527344 4.027344 31.589844 5.726563 36.464844 12.511719 36.886718 5.296875.425782 6.144531.636719 10.597656-12.71875l6.785156-20.988281 12.71875 16.535157c25.652344 39.007812 38.582032 69.113281 38.582032 89.464843zm0 0" fill="#ff4b00"/><path d="m294.585938 275.082031c-6.363282-16.113281-16.539063-32.4375-25.441407-46.640625l-11.023437-17.597656-2.121094 3.179688-11.238281 16.324218c-8.691407 12.507813-18.652344 26.710938-25.4375 39.855469-6.359375 12.933594-5.9375 27.984375 1.484375 40.28125 7.207031 11.660156 19.925781 19.714844 35.191406 19.714844 29.679688 0 49.183594-28.832031 38.585938-55.117188zm0 0" fill="#ffd400"/><path d="m256 330.199219v-116.175781l2.117188-3.179688 11.027343 17.59375c8.902344 14.207031 19.078125 30.53125 25.4375 46.640625 10.601563 26.289063-8.902343 55.121094-38.582031 55.121094zm0 0" fill="#fdbf00"/><path d="m277.199219 394.507812c0 11.707032-9.492188 21.199219-21.199219 21.199219s-21.199219-9.492187-21.199219-21.199219c0-11.710937 9.492188-21.199218 21.199219-21.199218s21.199219 9.488281 21.199219 21.199218zm0 0" fill="#ffb99c"/><path d="m277.199219 394.507812c0-11.710937-9.488281-21.199218-21.199219-21.199218v42.398437c11.710938 0 21.199219-9.492187 21.199219-21.199219zm0 0" fill="#ff9468"/></svg>