<svg height="512pt" viewBox="0 0 512 512" width="512pt" xmlns="http://www.w3.org/2000/svg"><path d="m512 256c0 141.386719-114.613281 256-256 256s-256-114.613281-256-256 114.613281-256 256-256 256 114.613281 256 256zm0 0" fill="#537983"/><path d="m512 256c0-7.59375-.351562-15.105469-.996094-22.53125l-135.007812-135.003906-183.367188 183.367187 37.554688 37.554688-94.160156 94.160156 97.457031 97.457031c7.421875.644532 14.929687.996094 22.519531.996094 141.386719 0 256-114.613281 256-256zm0 0" fill="#3e5959"/><path d="m145.230469 107.691406h221.539062v296.617188h-221.539062zm0 0" fill="#61d7a8"/><path d="m256 107.691406h110.769531v296.617188h-110.769531zm0 0" fill="#00ab94"/><path d="m136 98.460938v315.078124h240v-315.078124zm73.847656 18.460937h92.304688v18.464844h-92.304688zm61.84375 36.925781c-3.324218 5.351563-8.859375 9.230469-15.691406 9.230469s-12.367188-3.878906-15.691406-9.230469zm30.460938 241.230469h-92.304688v-18.464844h92.304688zm-61.84375-36.925781c3.324218-5.351563 8.859375-9.230469 15.691406-9.230469s12.367188 3.878906 15.691406 9.230469zm117.230468 36.925781h-36.925781v-36.925781h-28.984375c-4.058594-15.875-18.460937-27.691406-35.628906-27.691406-17.171875 0-31.570312 11.816406-35.632812 27.691406h-28.984376v36.925781h-36.921874v-129.847656h47.074218c4.433594 26.214843 27.140625 46.15625 54.464844 46.15625 27.320312 0 50.03125-19.941407 54.460938-46.15625h47.078124zm-65.90625-129.847656c-4.0625 15.878906-18.464843 27.691406-35.632812 27.691406s-31.570312-11.816406-35.632812-27.691406zm-71.265624-18.460938c4.0625-15.878906 18.464843-27.691406 35.632812-27.691406s31.570312 11.816406 35.632812 27.691406zm137.171874 0h-47.078124c-4.429688-26.214843-27.140626-46.15625-54.460938-46.15625-27.324219 0-50.03125 19.941407-54.464844 46.15625h-47.074218v-129.847656h36.921874v36.925781h28.984376c4.0625 15.875 18.460937 27.691406 35.632812 27.691406 17.167969 0 31.570312-11.816406 35.628906-27.691406h28.984375v-36.925781h36.925781zm0 0" fill="#deecf1"/><path d="m376 98.460938v315.078124h-120v-18.460937h46.152344v-18.464844h-46.152344v-18.460937h15.691406c-3.324218-5.351563-8.859375-9.230469-15.691406-9.230469v-18.460937c17.167969 0 31.570312 11.816406 35.632812 27.691406h28.984376v36.921875h36.921874v-129.84375h-47.078124c-4.429688 26.214843-27.136719 46.15625-54.460938 46.15625v-18.464844c17.167969 0 31.570312-11.816406 35.632812-27.691406h-35.632812v-18.460938h35.632812c-4.0625-15.878906-18.464843-27.691406-35.632812-27.691406v-18.464844c27.324219 0 50.03125 19.941407 54.460938 46.15625h47.078124v-129.847656h-36.921874v36.925781h-28.984376c-4.0625 15.875-18.464843 27.691406-35.632812 27.691406v-18.464843c6.832031 0 12.367188-3.875 15.691406-9.230469h-15.691406v-18.460938h46.152344v-18.460937h-46.152344v-18.460937zm0 0" fill="#c5d3dd"/></svg>