<svg height="512pt" viewBox="0 0 512 512" width="512pt" xmlns="http://www.w3.org/2000/svg"><path d="m512 256c0 141.386719-114.613281 256-256 256s-256-114.613281-256-256 114.613281-256 256-256 256 114.613281 256 256zm0 0" fill="#ff641a"/><path d="m381.960938 133.121094-248.734376 248.738281 130.140626 130.140625c135.679687-3.78125 244.960937-113.132812 248.632812-248.839844zm0 0" fill="#f03800"/><path d="m256 79.625c-96.9375 0-176.375 79.4375-176.375 176.375s79.4375 176.375 176.375 176.375 176.375-79.4375 176.375-176.375-79.4375-176.375-176.375-176.375zm0 0" fill="#ffda2d"/><path d="m432.375 256c0 96.9375-79.4375 176.375-176.375 176.375v-352.75c96.9375 0 176.375 79.4375 176.375 176.375zm0 0" fill="#eebf00"/><path d="m381.941406 257.238281 8.683594 9.097657c-5.167969 65.726562-58.5625 119.121093-124.289062 124.285156l-9.09375-13.226563-1.242188 1.449219-10.332031 11.777344c-65.726563-5.164063-119.121094-58.558594-124.289063-124.285156l9.921875-9.71875-9.921875-10.953126c5.167969-65.726562 58.5625-119.121093 124.289063-124.289062l10.332031 12.195312 1.859375 2.273438 8.476563-14.464844c65.726562 5.164063 119.121093 58.558594 124.289062 124.285156zm0 0" fill="#537983"/><g fill="#3e5959"><path d="m381.941406 257.238281 8.683594 9.097657c-5.167969 65.726562-58.5625 119.121093-124.289062 124.285156l-9.09375-13.226563-1.242188 1.449219v-245.273438l1.863281 2.273438 8.472657-14.464844c65.726562 5.164063 119.121093 58.558594 124.289062 124.285156zm0 0"/><path d="m266.335938 121.378906v40.921875h-20.671876v-40.921875c3.308594-.207031 6.820313-.414062 10.335938-.414062 3.511719 0 7.027344.207031 10.335938.414062zm0 0"/><path d="m266.335938 349.699219v40.921875c-3.308594.207031-6.824219.414062-10.335938.414062s-7.027344-.207031-10.335938-.414062v-40.921875zm0 0"/></g><path d="m391.035156 256c0 3.511719-.207031 7.027344-.414062 10.335938h-40.921875v-20.671876h40.921875c.207031 3.308594.414062 6.820313.414062 10.335938zm0 0" fill="#293939"/><path d="m162.300781 245.664062v20.671876h-40.921875c-.207031-3.308594-.414062-6.820313-.414062-10.335938s.207031-7.027344.414062-10.332031h40.921875zm0 0" fill="#3e5959"/><path d="m271.503906 231.457031-52.90625-12.859375-37.402344 112.207032 112.207032-37.402344zm0 0" fill="#61d7a8"/><path d="m266.335938 121.378906v40.921875h-10.335938v-41.335937c3.511719 0 7.027344.207031 10.335938.414062zm0 0" fill="#293939"/><path d="m256 349.699219h10.335938v40.921875c-3.308594.207031-6.824219.414062-10.335938.414062zm0 0" fill="#293939"/><path d="m330.804688 181.195312-112.207032 37.402344 74.804688 74.804688zm0 0" fill="#ff641a"/></svg>