<svg height="512pt" viewBox="0 0 512 512" width="512pt" xmlns="http://www.w3.org/2000/svg"><path d="m512 256c0 141.386719-114.613281 256-256 256s-256-114.613281-256-256 114.613281-256 256-256 256 114.613281 256 256zm0 0" fill="#61d7a8"/><path d="m333.113281 161.238281-48.308593-48.3125-68.816407 68.816407-49.164062-49.167969-68.941407 68.9375 49.167969 49.167969-70.375 70.375 190.679688 190.679687c136.113281-5.941406 244.644531-118.15625 244.644531-255.734375 0-3.347656-.085938-6.671875-.210938-9.984375l-131.726562-131.726563zm0 0" fill="#00ab94"/><path d="m252.625 350.632812h99.609375v71.367188h-99.609375zm0 0" fill="#b35f49"/><path d="m302.429688 350.632812h49.804687v71.367188h-49.804687zm0 0" fill="#99503d"/><path d="m210.699219 201.53125h-112.828125l-2.355469-6.644531c-1.496094-4.269531-2.265625-8.734375-2.265625-13.277344 0-21.972656 17.867188-39.84375 39.84375-39.84375 3.113281 0 6.207031.378906 9.242188 1.136719 9.222656-13.023438 24.316406-21.058594 40.5625-21.058594 14.882812 0 28.882812 6.585938 38.394531 18.074219l3.160156 3.820312zm0 0" fill="#deecf1"/><path d="m201.902344 321.0625h-125.28125l-2.355469-6.644531c-1.496094-4.269531-2.265625-8.734375-2.265625-13.277344 0-21.972656 17.867188-39.84375 39.84375-39.84375 3.113281 0 6.207031.378906 9.242188 1.136719 9.222656-13.023438 24.316406-21.058594 40.5625-21.058594 27.460937 0 49.804687 22.34375 49.804687 49.804688 0 8.773437-2.304687 17.382812-6.671875 24.921874zm0 0" fill="#deecf1"/><path d="m267.566406 308.710938-17.332031 12.351562c2.21875 8.984375 2.390625 19.921875 2.390625 19.921875l3.1875 1.992187 16.734375 7.96875v-3.785156c0-12.75-1.59375-26.097656-4.980469-38.449218zm0 0" fill="#537983"/><path d="m338.160156 308.097656c-3.882812 12.265625-5.847656 25.132813-5.847656 38.265625v4.582031l19.921875-9.960937s.230469-9.199219 2.871094-19.921875zm0 0" fill="#3e5959"/><path d="m371.359375 106.304688c-19.523437-15.9375-43.828125-24.304688-68.929687-24.304688-7.96875 0-15.738282.796875-23.707032 2.390625-42.832031 9.164063-76.699218 44.425781-84.070312 87.65625-6.175782 35.0625 4.382812 69.527344 28.488281 94.828125 11.953125 12.75 20.519531 28.488281 25.300781 46.816406l1.792969 7.371094h104.789063l2.191406-7.171875c5.179687-17.730469 14.941406-35.261719 28.886718-51.796875 16.734376-19.921875 25.898438-44.824219 25.898438-70.523438 0-33.269531-14.742188-64.148437-40.640625-85.265624zm0 0" fill="#ff9100"/><path d="m412 191.570312c0 25.699219-9.164062 50.601563-25.898438 70.523438-13.945312 16.535156-23.707031 34.066406-28.886718 51.796875l-2.191406 7.171875h-52.59375v-239.0625c25.101562 0 49.40625 8.367188 68.929687 24.304688 25.898437 21.117187 40.640625 51.996093 40.640625 85.265624zm0 0" fill="#eebf00"/><path d="m302.429688 82c-5.378907 0-10.160157.996094-14.742188 2.988281-23.109375 9.960938-40.441406 44.425781-44.226562 88.054688-2.988282 33.269531 2.191406 66.539062 13.945312 91.242187 5.976562 12.75 10.558594 29.285156 13.148438 48.210938l.996093 8.566406h61.957031l1.195313-8.566406c2.789063-18.128906 7.769531-35.859375 14.941406-52.792969 8.167969-19.324219 12.550781-42.832031 12.550781-68.132813 0-61.359374-26.296874-109.570312-59.765624-109.570312zm0 0" fill="#ffda2d"/><path d="m362.195312 191.570312c0 25.300782-4.382812 48.808594-12.550781 68.132813-7.171875 16.933594-12.152343 34.664063-14.941406 52.792969l-1.195313 8.566406h-31.078124v-239.0625c33.46875 0 59.765624 48.210938 59.765624 109.570312zm0 0" fill="#ff641a"/><path d="m232.703125 340.984375h139.453125v19.921875h-139.453125zm0 0" fill="#c6715a"/><path d="m302.429688 340.984375h69.726562v19.921875h-69.726562zm0 0" fill="#b35f49"/></svg>