<svg height="512pt" viewBox="0 0 512 512" width="512pt" xmlns="http://www.w3.org/2000/svg"><path d="m512 256c0 141.386719-114.613281 256-256 256s-256-114.613281-256-256 114.613281-256 256-256 256 114.613281 256 256zm0 0" fill="#ff641a"/><path d="m512 256c0-17.589844-1.777344-34.761719-5.15625-51.355469l-99.585938-99.582031-120.414062 120.414062-71.5-71.5-33.378906 33.378907-24.023438-24.019531-48.972656 48.972656 106.53125 106.191406-73.824219 20.160156-36.765625 68.5 99.671875 99.671875c16.609375 3.386719 33.808594 5.167969 51.417969 5.167969 141.386719 0 256-114.613281 256-256zm0 0" fill="#f03800"/><path d="m245.964844 266.058594c-4.847656 29.382812-30.078125 51.933594-60.816406 51.933594-43.953126 0-80.296876 36.34375-80.296876 80.296874v8.855469h17.714844v-8.855469c0-34.179687 28.40625-62.582031 62.582032-62.582031 43.953124 0 79.542968-35.753906 79.542968-79.707031zm0 0" fill="#c5d3dd"/><path d="m380.351562 353.417969h-111.386718l-2.09375-5.90625c-1.332032-3.796875-2.015625-7.765625-2.015625-11.804688 0-19.535156 15.886719-35.425781 35.425781-35.425781 2.769531 0 5.519531.335938 8.214844 1.011719 8.199218-11.578125 21.621094-18.722657 36.066406-18.722657 24.414062 0 44.28125 19.867188 44.28125 44.28125 0 7.800782-2.050781 15.453126-5.933594 22.15625zm0 0" fill="#c5d3dd"/><path d="m220.347656 212.308594h-111.386718l-2.09375-5.90625c-1.332032-3.796875-2.015626-7.765625-2.015626-11.804688 0-19.539062 15.890626-35.425781 35.425782-35.425781 2.769531 0 5.519531.335937 8.214844 1.011719 8.199218-11.582032 21.625-18.722656 36.066406-18.722656 24.414062 0 44.28125 19.863281 44.28125 44.28125 0 7.800781-2.050782 15.453124-5.933594 22.15625zm0 0" fill="#deecf1"/><path d="m406.203125 245.609375-160.453125 20.640625 44.492188-61.027344 46.054687-29.519531 40.738281 25.386719zm0 0" fill="#3e5959"/><path d="m336.296875 175.703125-90.546875 90.546875 20.640625-160.453125 58.6875 25.625zm0 0" fill="#61d7a8"/><path d="m407.148438 104.851562-29.523438 47.234376-41.328125 23.617187-69.90625-69.90625.125-.945313zm0 0" fill="#ffda2d"/><path d="m336.296875 175.703125 69.90625 69.90625.945313-.125v-140.632813zm0 0" fill="#ff641a"/></svg>