<svg height="512pt" viewBox="0 0 512 512" width="512pt" xmlns="http://www.w3.org/2000/svg"><path d="m512 256c0 141.386719-114.613281 256-256 256s-256-114.613281-256-256 114.613281-256 256-256 256 114.613281 256 256zm0 0" fill="#deecf1"/><path d="m510.730469 281.605469-118.90625-118.90625-57.015625 57.019531-125.070313-125.066406-8.855469 8.859375-23.195312-23.195313-18.5 18.496094 23.195312 23.195312-12.308593 12.308594-35.035157-35.035156-13.152343 13.148438 35.039062 35.039062-11.785156 11.78125-23.183594-23.1875-18.496093 18.5 23.183593 23.183594-8.890625 8.894531 127.347656 127.347656-102.101562 74.261719-26.785156-20.035156-12.757813 12.753906 130.035157 130.035156c7.417968.644532 14.921874.996094 22.507812.996094 132.742188 0 241.882812-101.035156 254.730469-230.394531zm0 0" fill="#c5d3dd"/><path d="m320.855469 212.566406-23.015625 102.332032 18.136718 4.085937 23.292969-103.582031zm0 0" fill="#3e5959"/><path d="m335.980469 137.25c-2.976563-.371094-5.949219-.558594-8.921875-.558594-45.542969 0-84.949219 33.832032-91.824219 78.625l-1.300781 8.925782 38.105468 7.617187c1.863282-20.953125 19.507813-32.894531 24.660157-45.601563 18.578125-45.808593 38.347656-49.007812 39.28125-49.007812zm0 0" fill="#00ab94"/><path d="m347.316406 138.921875c27.882813 8.179687 32.839844 32.589844 25.589844 76.457031-.742188 4.089844 9.542969 25.589844 8.613281 29.308594l-2.230469 8.550781 36.492188 7.246094 2.230469-8.734375c1.675781-7.25 2.605469-14.683594 2.605469-22.121094-.003907-44.425781-31.664063-81.414062-73.300782-90.707031zm0 0" fill="#009184"/><path d="m347.316406 138.921875c-3.171875-.792969-9.925781-1.671875-11.335937-1.671875-13.382813 0-26.765625 6.878906-37.917969 19.703125-12.082031 13.753906-20.632812 33.085937-24.164062 54.460937-.558594 2.789063-.746094 9.296876-1.117188 12.082032l-.742188 8.363281 107.25 21.378906 2.230469-8.550781c.929688-3.71875 1.671875-11.339844 2.417969-15.429688 7.246094-43.867187-8.738281-82.15625-36.621094-90.335937zm0 0" fill="#61d7a8"/><path d="m379.289062 253.238281 2.230469-8.550781c.925781-3.71875 1.671875-11.339844 2.414063-15.429688 7.25-43.867187-8.734375-82.15625-36.617188-90.335937l-23.441406 103.269531zm0 0" fill="#00ab94"/><path d="m168.441406 173.246094c-15.375 0-27.882812-12.503906-27.882812-27.878906s12.507812-27.882813 27.882812-27.882813 27.882813 12.507813 27.882813 27.882813-12.507813 27.878906-27.882813 27.878906zm0 0" fill="#ffda2d"/><g fill="#ff9100"><path d="m159.148438 80.308594h18.585937v18.589844h-18.585937zm0 0"/><path d="m159.148438 191.835938h18.585937v18.585937h-18.585937zm0 0"/><path d="m103.386719 136.070312h18.585937v18.589844h-18.585937zm0 0"/><path d="m214.910156 136.070312h18.589844v18.589844h-18.589844zm0 0"/><path d="m129.015625 171.648438 13.140625 13.140624-13.148438 13.152344-13.144531-13.140625zm0 0"/><path d="m207.875 92.785156 13.144531 13.144532-13.152343 13.152343-13.140626-13.144531zm0 0"/><path d="m207.867188 171.648438 13.152343 13.148437-13.144531 13.144531-13.148438-13.152344zm0 0"/><path d="m129.007812 92.785156 13.148438 13.152344-13.140625 13.144531-13.152344-13.152343zm0 0"/></g><path d="m400.851562 379.445312v.375c-16.730468 10.777344-38.476562 10.777344-55.207031-.375-16.914062-11.335937-38.847656-11.335937-55.761719 0-8.550781 5.578126-18.21875 8.550782-27.882812 8.550782s-19.332031-2.972656-27.882812-8.550782c-16.914063-11.335937-38.847657-11.335937-55.761719 0-12.082031 7.996094-26.582031 10.226563-40.148438 6.878907l1.484375-2.789063c24.351563-46.28125 70.632813-76.023437 122.308594-79.183594 3.160156-.183593 6.132812-.371093 9.292969-.371093 53.53125 0 103.160156 28.996093 129.558593 75.464843zm0 0" fill="#ffda2d"/><path d="m400.851562 379.445312v.375c-16.730468 10.777344-38.476562 10.777344-55.207031-.375-16.914062-11.335937-38.847656-11.335937-55.761719 0-8.550781 5.578126-18.21875 8.550782-27.882812 8.550782v-83.644532c3.160156-.183593 6.132812-.371093 9.292969-.371093 53.53125 0 103.160156 28.996093 129.558593 75.464843zm0 0" fill="#eebf00"/><path d="m420.613281 380.933594c-5.390625 1.117187-9.351562 3.160156-14 6.320312-20.074219 13.382813-46.097656 13.382813-66.171875 0-13.757812-9.292968-31.597656-9.292968-45.355468 0-10.035157 6.691406-21.5625 10.035156-33.085938 10.035156s-23.050781-3.34375-33.085938-10.035156c-13.757812-9.292968-31.597656-9.292968-45.355468 0-20.074219 13.382813-46.097656 13.382813-66.171875 0-4.648438-3.160156-8.609375-5.203125-14-6.320312v-18.214844c7.992187 1.484375 17.71875 4.460938 24.410156 8.921875 13.753906 9.292969 31.597656 9.292969 45.351563 0 20.078124-13.382813 46.097656-13.382813 66.175781 0 6.875 4.644531 14.867187 7.0625 22.675781 7.0625 7.804688 0 15.796875-2.417969 22.675781-7.0625 20.074219-13.382813 46.097657-13.382813 66.171875 0 13.753906 9.292969 31.597656 9.292969 45.351563 0 6.695312-4.460937 16.421875-7.4375 24.414062-8.921875zm0 0" fill="#61d7a8"/><path d="m420.613281 380.933594c-5.390625 1.117187-9.351562 3.160156-14 6.320312-20.074219 13.382813-46.097656 13.382813-66.171875 0-13.757812-9.292968-31.597656-9.292968-45.355468 0-10.035157 6.691406-21.5625 10.035156-33.085938 10.035156v-18.585937c7.808594 0 15.800781-2.417969 22.675781-7.0625 20.074219-13.382813 46.097657-13.382813 66.171875 0 13.757813 9.292969 31.597656 9.292969 45.355469 0 6.691406-4.460937 16.417969-7.4375 24.410156-8.921875zm0 0" fill="#00ab94"/></svg>