<svg height="512pt" viewBox="0 0 512 512" width="512pt" xmlns="http://www.w3.org/2000/svg"><path d="m512 256c0 141.386719-114.613281 256-256 256s-256-114.613281-256-256 114.613281-256 256-256 256 114.613281 256 256zm0 0" fill="#deecf1"/><path d="m350.851562 108.691406-206.183593 101.308594 98 103.332031-79.957031 109.566407 89.046874 89.046874c1.414063.023438 2.824219.054688 4.242188.054688 136.859375 0 248.632812-107.398438 255.648438-242.511719zm0 0" fill="#c5d3dd"/><path d="m245.628906 183.773438h20.742188v103.710937h-20.742188zm0 0" fill="#537983"/><path d="m138.878906 197.179688 82.96875 82.96875-14.664062 14.664062-82.96875-82.96875zm0 0" fill="#537983"/><path d="m373.121094 197.179688 14.664062 14.664062-82.96875 82.96875-14.664062-14.664062zm0 0" fill="#3e5959"/><path d="m256 183.773438h10.371094v103.710937h-10.371094zm0 0" fill="#3e5959"/><path d="m349.339844 313.410156-15.558594 10.371094 15.558594 10.371094v31.808594l-14.3125 13.066406 14.3125 7.671875v36.300781h-41.484375l-10.371094-11.199219-10.371094 11.199219h-62.226562l-10.785157-12.03125-9.957031 12.03125h-41.484375v-36.300781l11.199219-5.183594-11.199219-15.554687v-31.808594l9.125-8.710938-9.125-12.03125v-36.296875h41.484375l9.957031 12.03125 10.785157-12.03125h62.226562l11.617188 12.445313 9.125-12.445313h41.484375zm0 0" fill="#ffda2d"/><path d="m307.855469 277.113281h41.484375v36.296875l-15.558594 10.371094 15.558594 10.371094v31.808594l-14.3125 13.066406 14.3125 7.671875v36.300781h-41.484375l-10.371094-11.199219-10.371094 11.199219h-31.113281v-145.886719h31.113281l11.617188 12.445313zm0 0" fill="#eebf00"/><path d="m390.824219 204.515625v5.601563l-4.5625 3.109374c-11.203125 7.46875-24.0625 11.203126-36.921875 11.203126-10.785156 0-21.367188-2.695313-31.113282-7.882813-.207031 0-.207031.210937-.414062.210937l-55.796875-42.109374-6.015625 3.730468-62.019531 38.375c0-.207031-.207031-.207031-.207031-.207031-21.367188 11.40625-47.5 10.371094-68.035157-3.320313l-4.5625-3.109374v-5.601563c0-74.257813 60.566407-135.515625 134.824219-135.515625 48.742188 0 93.753906 27.035156 117.609375 69.554688 11.199219 20.121093 17.214844 42.9375 17.214844 65.960937zm0 0" fill="#ff641a"/><path d="m390.824219 204.515625v5.601563l-4.5625 3.109374c-11.203125 7.46875-24.0625 11.203126-36.921875 11.203126-10.785156 0-21.367188-2.695313-31.113282-7.882813-.207031 0-.207031.210937-.414062.210937l-55.796875-42.109374-6.015625 3.730468v-109.378906c48.742188 0 93.753906 27.035156 117.609375 69.554688 11.199219 20.121093 17.214844 42.9375 17.214844 65.960937zm0 0" fill="#f03800"/><path d="m317.8125 216.753906c-19.5 10.164063-42.523438 10.164063-61.8125-.207031-19.496094 10.371094-42.519531 10.371094-62.019531.207031-3.527344-75.917968 25.511719-147.753906 62.019531-147.753906s65.546875 72.460938 61.8125 147.753906zm0 0" fill="#ff9100"/><path d="m256 216.546875v-147.546875c36.507812 0 65.546875 72.460938 61.8125 147.753906-19.5 10.164063-42.523438 10.164063-61.8125-.207031zm0 0" fill="#ff641a"/><path d="m204.144531 277.113281h20.742188v145.886719h-20.742188zm0 0" fill="#eebf00"/><path d="m287.113281 277.113281h20.742188v145.886719h-20.742188zm0 0" fill="#dc9e00"/><path d="m162.660156 313.757812h186.679688v20.742188h-186.679688zm0 0" fill="#eebf00"/><path d="m162.660156 366.304688h186.679688v20.742187h-186.679688zm0 0" fill="#eebf00"/><g fill="#dc9e00"><path d="m256 313.757812h93.339844v20.742188h-93.339844zm0 0"/><path d="m256 366.304688h93.339844v20.742187h-93.339844zm0 0"/></g></svg>