<svg height="512pt" viewBox="0 0 512 512" width="512pt" xmlns="http://www.w3.org/2000/svg"><path d="m512 256c0 141.386719-114.613281 256-256 256s-256-114.613281-256-256 114.613281-256 256-256 256 114.613281 256 256zm0 0" fill="#61d7a8"/><path d="m511.988281 257.042969-91.035156-91.035157-10.039063 10.039063-48.597656-48.597656-32.429687 32.433593-10.03125-10.027343-64.171875 64.171875-86.683594-86.683594-53.03125 53.03125 86.679688 86.683594-111.597657 111.597656 131.113281 131.113281c11.070313 1.464844 22.363282 2.230469 33.835938 2.230469 141.035156 0 255.425781-114.054688 255.988281-254.957031zm0 0" fill="#00ab94"/><path d="m169.003906 185.335938h-58v-57.996094h58zm0 0" fill="#9facba"/><path d="m227 127.339844v57.996094h135.328125v-57.996094zm0 0" fill="#eebf00"/><path d="m294.664062 127.339844h67.664063v57.996094h-67.664063zm0 0" fill="#dc9e00"/><path d="m420.972656 166.003906v77.332032l-19.914062 19.328124h-232.054688v-72.882812l19.332032-23.777344zm0 0" fill="#ffda2d"/><path d="m420.972656 166.003906v77.332032l-19.914062 19.328124h-106.394532v-96.660156zm0 0" fill="#eebf00"/><path d="m420.972656 243.335938v135.324218h-232.636718l-19.332032-21.648437v-113.675781zm0 0" fill="#deecf1"/><path d="m294.664062 243.335938h126.308594v135.328124h-126.308594zm0 0" fill="#c5d3dd"/><path d="m294.664062 204.667969c-37.3125 0-67.664062 30.351562-67.664062 67.664062s30.351562 67.664063 67.664062 67.664063 67.664063-30.351563 67.664063-67.664063-30.351563-67.664062-67.664063-67.664062zm0 0" fill="#537983"/><path d="m362.328125 272.332031c0 37.3125-30.351563 67.664063-67.664063 67.664063v-135.328125c37.3125 0 67.664063 30.351562 67.664063 67.664062zm0 0" fill="#3e5959"/><path d="m294.664062 320.664062c-26.648437 0-48.332031-21.679687-48.332031-48.332031 0-26.652343 21.683594-48.332031 48.332031-48.332031 26.652344 0 48.332032 21.679688 48.332032 48.332031 0 26.652344-21.679688 48.332031-48.332032 48.332031zm0 0" fill="#61d7a8"/><path d="m342.996094 272.332031c0-26.648437-21.679688-48.332031-48.332032-48.332031v96.664062c26.652344 0 48.332032-21.679687 48.332032-48.332031zm0 0" fill="#00ab94"/><path d="m294.664062 243.335938c-16.046874 0-29 12.949218-29 28.996093s12.953126 29 29 29c16.046876 0 29-12.953125 29-29s-12.953124-28.996093-29-28.996093zm0 0" fill="#00ab94"/><path d="m188.335938 378.660156h-97.308594v-212.65625h97.308594zm0 0" fill="#537983"/><path d="m362.328125 204.667969h19.335937v19.332031h-19.335937zm0 0" fill="#f03800"/><path d="m323.664062 272.332031c0 16.046875-12.953124 29-29 29v-57.996093c16.046876 0 29 12.949218 29 28.996093zm0 0" fill="#009184"/><path d="m294.664062 262.664062c-5.328124 0-9.664062-4.335937-9.664062-9.664062s4.335938-9.664062 9.664062-9.664062c5.332032 0 9.667969 4.335937 9.667969 9.664062s-4.335937 9.664062-9.667969 9.664062zm0 0" fill="#deecf1"/><path d="m304.332031 253c0-5.328125-4.335937-9.664062-9.667969-9.664062v19.332031c5.332032-.003907 9.667969-4.339844 9.667969-9.667969zm0 0" fill="#c5d3dd"/></svg>