<svg height="512pt" viewBox="0 0 512 512" width="512pt" xmlns="http://www.w3.org/2000/svg"><path d="m512 256c0 141.386719-114.613281 256-256 256s-256-114.613281-256-256 114.613281-256 256-256 256 114.613281 256 256zm0 0" fill="#ffda2d"/><path d="m380.917969 137.71875-18.492188 18.492188-62.179687-62.183594-77.246094 12.972656 22.074219 130.023438-70.191407-70.195313-43.84375 43.839844 70.195313 70.195312-89.046875 89.046875 142.066406 142.066406c.582032.003907 1.160156.023438 1.746094.023438 137.195312 0 249.175781-107.925781 255.691406-243.507812zm0 0" fill="#eebf00"/><path d="m131.542969 253.847656c-14.636719 0-26.542969 11.90625-26.542969 26.542969v71.371094c0 14.636719 11.90625 26.542969 26.542969 26.542969h17.695312v-124.457032zm0 0" fill="#00ab94"/><path d="m380.457031 253.847656h-17.695312v124.457032h17.695312c14.636719 0 26.542969-11.90625 26.542969-26.542969v-71.371094c0-14.636719-11.90625-26.542969-26.542969-26.542969zm0 0" fill="#009184"/><path d="m371.019531 200.761719v106.761719l-13.625 17.695312h-190.933593l-25.480469-17.695312v-106.761719zm0 0" fill="#537983"/><path d="m371.019531 200.761719v106.761719l-13.625 17.695312h-101.394531v-124.457031zm0 0" fill="#3e5959"/><path d="m300.238281 94v44.828125h-17.695312v-27.132813h-53.085938v27.132813h-17.695312v-44.828125zm0 0" fill="#537983"/><path d="m140.980469 307.523438v61.933593c0 14.6875 11.855469 26.542969 26.542969 26.542969h176.953124c14.6875 0 26.542969-11.855469 26.542969-26.542969v-61.933593zm0 0" fill="#61d7a8"/><path d="m256 307.523438h115.019531v61.933593c0 14.6875-11.855469 26.542969-26.542969 26.542969h-88.476562zm0 0" fill="#00ab94"/><path d="m282.542969 111.695312h-26.542969v-17.695312h44.238281v44.828125h-17.695312zm0 0" fill="#3e5959"/><path d="m362.171875 129.980469h-212.34375c-14.6875 0-26.542969 11.855469-26.542969 26.542969v35.390624c0 14.6875 11.855469 26.542969 26.542969 26.542969h212.34375c14.6875 0 26.542969-11.855469 26.542969-26.542969v-35.390624c0-14.6875-11.855469-26.542969-26.542969-26.542969zm0 0" fill="#61d7a8"/><path d="m388.714844 156.523438v35.390624c0 14.6875-11.855469 26.542969-26.542969 26.542969h-106.171875v-88.476562h106.171875c14.6875 0 26.542969 11.855469 26.542969 26.542969zm0 0" fill="#00ab94"/><path d="m309.085938 364.273438-26.542969-26.542969v-207.75h53.085937v207.75zm0 0" fill="#c5d3dd"/><path d="m202.914062 364.273438-26.542968-26.542969v-207.75h53.085937v207.75zm0 0" fill="#deecf1"/></svg>