<svg height="512pt" viewBox="0 0 512 512" width="512pt" xmlns="http://www.w3.org/2000/svg"><path d="m512 256c0 141.386719-114.613281 256-256 256s-256-114.613281-256-256 114.613281-256 256-256 256 114.613281 256 256zm0 0" fill="#ffda2d"/><path d="m511.9375 251.117188-137.417969-137.421876-86.519531 20.304688-108.5.5-56.960938 174.300781 69.414063 69.414063-23.164063 23.167968 109.628907 109.628907c130.882812-11.359375 233.582031-121.183594 233.582031-255.011719 0-1.632812-.03125-3.257812-.0625-4.882812zm0 0" fill="#eebf00"/><path d="m180.191406 348.304688 20.203125-9.824219v-49.261719h-58.4375v49.394531l10.457031 9.691407zm0 0" fill="#537983"/><path d="m388.953125 189.484375-78.304687 183.558594c-13.832032 32.335937-45.582032 53.179687-80.839844 53.179687-24.152344 0-46.164063-9.738281-61.941406-25.710937-15.972657-15.976563-25.910157-37.792969-25.910157-61.945313h58.4375c.195313 16.363282 13.050781 29.21875 29.414063 29.21875 11.882812 0 22.597656-7.011718 27.078125-17.726562l78.5-184.402344c1.363281-2.921875.972656-6.234375-.777344-8.960938-1.949219-2.921874-4.871094-4.480468-8.183594-4.480468h-126.03125v59.085937h-58.4375v-68.828125c0-26.878906 21.816407-48.695312 48.699219-48.695312h135.769531c22.988281 0 44.21875 11.492187 56.878907 30.582031 12.664062 19.285156 14.804687 43.894531 5.648437 65.125zm0 0" fill="#ff641a"/><path d="m388.953125 189.484375-78.304687 183.558594c-13.832032 32.335937-45.582032 53.179687-80.839844 53.179687v-58.4375c11.882812 0 22.597656-7.011718 27.078125-17.726562l78.5-184.402344c1.363281-2.921875.972656-6.234375-.777344-8.960938-1.949219-2.921874-4.871094-4.480468-8.183594-4.480468h-96.617187v-58.4375h96.617187c22.988281 0 44.21875 11.492187 56.878907 30.582031 12.664062 19.285156 14.804687 43.894531 5.648437 65.125zm0 0" fill="#f03800"/><path d="m144.332031 230.78125-21.851562 19.480469v58.4375h97.394531v-58.4375l-16.152344-19.480469zm0 0" fill="#9facba"/><path d="m219.875 250.261719h-97.394531v-58.441407h97.394531zm0 0" fill="#c5d3dd"/></svg>