<svg height="512pt" viewBox="0 0 512 512" width="512pt" xmlns="http://www.w3.org/2000/svg"><path d="m512 256c0 141.386719-114.613281 256-256 256s-256-114.613281-256-256 114.613281-256 256-256 256 114.613281 256 256zm0 0" fill="#ffda2d"/><path d="m512 256c0-11.210938-.726562-22.253906-2.125-33.085938l-116.351562-116.351562-91.480469-13.519531-69.96875 34.910156-62.757813 158.015625-57.816406 102.613281 122.460938 122.464844c7.265624.617187 14.613281.953125 22.039062.953125 141.386719 0 256-114.613281 256-256zm0 0" fill="#eebf00"/><path d="m345.632812 140.691406-20.507812-20.507812 23.242188-23.246094-13.671876-13.671875-23.246093 23.242187-18.183594-18.183593-13.675781 13.671875 18.1875 18.1875-27.347656 27.347656-27.347657-27.347656-13.671875 13.671875 27.347656 27.347656-27.347656 27.347656-18.1875-18.1875-13.671875 13.675781 18.183594 18.1875-23.105469 23.105469 13.671875 13.675781 23.109375-23.109374 20.507813 20.511718-34.183594 34.183594 13.675781 13.671875 34.183594-34.183594 20.507812 20.511719-23.105468 23.105469 13.671875 13.675781 23.109375-23.109375 18.1875 18.1875 13.671875-13.675781-18.1875-18.183594 27.347656-27.347656 27.347656 27.347656 13.675781-13.675781-27.347656-27.347657 27.347656-27.347656 18.183594 18.1875 13.675782-13.675781-18.1875-18.183594 23.246093-23.246093-13.675781-13.671876-23.242188 23.242188-20.511718-20.507812 34.183594-34.183594-13.671876-13.675782zm-20.507812 88.878906-27.347656 27.347657-20.511719-20.511719 27.347656-27.34375zm41.019531-41.019531-27.347656 27.347657-20.511719-20.511719 27.347656-27.347657zm-82.042969-27.347656 27.347657-27.347656 20.511719 20.511719-27.347657 27.347656zm-41.019531 41.019531 27.347657-27.34375 20.511718 20.507813-27.347656 27.347656zm0 0" fill="#deecf1"/><path d="m372.65625 312.335938c-26.683594 0-48.34375 21.660156-48.34375 48.34375 0 26.6875 21.660156 48.34375 48.34375 48.34375 26.6875 0 48.34375-21.660157 48.34375-48.34375 0-26.6875-21.65625-48.34375-48.34375-48.34375zm0 0" fill="#61d7a8"/><path d="m229.410156 120.183594c-21.195312 21.195312-35.277344 48.128906-39.792968 75.886718-3.828126 24.339844-9.023438 52.507813-19.960938 78.761719l-5.195312 12.851563 2.1875 21.605468 12.578124-6.839843 8.339844-20.371094c3.695313-8.613281 6.425782-17.367187 9.027344-26.253906 4.511719 10.527343 10.9375 20.238281 19.140625 28.441406s18.050781 14.492187 28.714844 19.140625c-9.023438 2.460938-17.914063 5.332031-26.527344 9.027344l-20.371094 8.339844-1.09375 11.757812 15.859375 3.007812 12.851563-5.195312c26.117187-10.800781 54.421875-16.132812 78.761719-19.960938 27.757812-4.515624 54.691406-18.597656 75.886718-39.792968 49.089844-49.085938 55.105469-122.652344 13.675782-164.082032-41.433594-41.429687-114.996094-35.414062-164.082032 13.675782zm136.734375 136.734375c-37.464843 37.464843-99.816406 50.59375-136.734375 13.675781-18.734375-18.734375-24.75-45.261719-20.648437-71.515625 3.691406-23.652344 16-46.898437 34.320312-65.222656 41.566407-41.566407 102.824219-47.582031 136.734375-13.671875s27.894532 95.167968-13.671875 136.734375zm0 0" fill="#ff9100"/><path d="m393.492188 120.183594-6.839844-6.835938-164.082032 164.082032 6.839844 6.835937 34.183594-34.183594 20.507812 20.507813-23.105468 23.109375 13.671875 13.675781 23.109375-23.109375 18.1875 18.1875 13.671875-13.675781-18.1875-18.183594 27.347656-27.347656 27.347656 27.347656 13.675781-13.675781-27.347656-27.347657 27.347656-27.347656 18.183594 18.1875 13.675782-13.675781-18.1875-18.183594 23.246093-23.246093-13.675781-13.671876-23.242188 23.242188-20.511718-20.507812zm-68.367188 109.386718-27.347656 27.347657-20.511719-20.511719 27.347656-27.34375zm41.019531-41.019531-27.347656 27.347657-20.511719-20.511719 27.347656-27.347657zm0 0" fill="#c5d3dd"/><path d="m393.492188 106.507812c41.429687 41.429688 35.414062 114.996094-13.675782 164.082032-21.195312 21.195312-48.128906 35.277344-75.886718 39.792968-24.339844 3.828126-52.644532 9.160157-78.761719 19.960938l-12.851563 5.195312-15.859375-3.007812 1.09375-11.757812 20.371094-8.339844c8.613281-3.695313 17.503906-6.566406 26.527344-9.027344-10.664063-4.648438-20.511719-10.9375-28.714844-19.140625l13.675781-13.675781c36.917969 36.921875 99.269532 23.792968 136.734375-13.671875 41.566407-41.566407 47.582031-102.824219 13.671875-136.734375zm0 0" fill="#ff641a"/><path d="m421 360.679688c0 26.6875-21.65625 48.34375-48.34375 48.34375v-96.6875c26.6875 0 48.34375 21.65625 48.34375 48.34375zm0 0" fill="#00ab94"/><path d="m164.460938 287.683594 47.855468 47.855468c-7.519531 3.144532-14.628906 7.796876-20.507812 13.675782l-59.851563 59.851562-41.023437-41.023437 59.851562-59.851563c5.878906-5.878906 10.527344-12.988281 13.675782-20.507812zm0 0" fill="#537983"/><path d="m111.445312 388.554688 76.941407-76.941407 23.929687 23.925781c-7.519531 3.148438-14.628906 7.796876-20.507812 13.675782l-59.851563 59.851562zm0 0" fill="#3e5959"/></svg>