<svg height="512pt" viewBox="0 0 512 512" width="512pt" xmlns="http://www.w3.org/2000/svg"><path d="m512 256c0 141.386719-114.613281 256-256 256s-256-114.613281-256-256 114.613281-256 256-256 256 114.613281 256 256zm0 0" fill="#ffda2d"/><path d="m507.828125 209.789062-122.847656-122.851562-188.394531 63.648438-56.492188 56.492187 85.289062 85.289063-119.164062 119.160156 94.460938 94.460937c17.816406 3.925781 36.324218 6.011719 55.320312 6.011719 141.386719 0 256-114.613281 256-256 0-15.777344-1.4375-31.222656-4.171875-46.210938zm0 0" fill="#eebf00"/><path d="m159.976562 139.949219.015626-.035157-37.304688 11.328126 17.265625 55.917968 55.957031-16.980468-13.058594-42.292969zm0 0" fill="#b35f49"/><path d="m392.632812 99.316406c-4.992187-15.550781-21.023437-24.097656-36.542968-19.417968l-121.457032 37.160156-12.449218 25.808594 11.074218 35.8125 140.03125-42.703126c12.121094-3.945312 20.59375-15.464843 20.59375-28.015624 0-3.304688-.421874-6.175782-1.25-8.644532zm0 0" fill="#b35f49"/><path d="m301.570312 259.605469-54.839843 18.148437-57.183594 19.386719-6.636719-82.421875 17.566406-16.589844 46.253907-5.269531 10.734375-1.171875zm0 0" fill="#c5d3dd"/><path d="m182.847656 214.632812-22.871094-74.683593 74.660157-22.898438 22.882812 74.671875zm0 0" fill="#3e5959"/><path d="m387.441406 411.570312h-144.808594l-15.417968-15.417968-15.417969 15.417968h-105.777344l49.960938-50.613281c1.953125-1.757812 2.925781-4.292969 2.925781-6.828125v-80.472656h78.066406l7.804688 16.003906 1.953125-2.734375 9.757812-13.269531h78.0625v80.46875c0 2.539062.976563 5.074219 2.929688 6.832031zm0 0" fill="#c6715a"/><g fill="#b35f49"><path d="m387.441406 411.570312h-140.710937v-124.644531l9.757812-13.269531h78.0625v80.46875c0 2.539062.976563 5.074219 2.929688 6.832031zm0 0"/><path d="m197.941406 313.339844h19.515625v39.03125h-19.515625zm0 0"/><path d="m236.972656 273.65625h19.515625v59.199219h-19.515625zm0 0"/></g><path d="m276.003906 313.339844h19.515625v58.546875h-19.515625zm0 0" fill="#99503d"/><path d="m246.730469 273.65625h9.757812v59.199219h-9.757812zm0 0" fill="#99503d"/></svg>