<svg height="512pt" viewBox="0 0 512 512" width="512pt" xmlns="http://www.w3.org/2000/svg"><path d="m512 256c0 141.386719-114.613281 256-256 256s-256-114.613281-256-256 114.613281-256 256-256 256 114.613281 256 256zm0 0" fill="#ff641a"/><path d="m505.078125 196.679688-97.316406-97.316407-35.53125 6.53125-4.460938 33.460938 21.066407 21.144531-2.199219 68.113281-64.9375-64.9375 6.800781 45.324219 28.484375 49.265625-54.039063-54.039063-141.109374 141.109376-13.523438-13.523438-54.152344 54.15625 123.121094 123.121094c12.625 1.914062 25.554688 2.910156 38.71875 2.910156 141.386719 0 256-114.613281 256-256 0-20.421875-2.40625-40.28125-6.921875-59.320312zm0 0" fill="#f03800"/><path d="m387.699219 147.601562c-15.605469 0-28.300781-12.695312-28.300781-28.300781s12.695312-28.300781 28.300781-28.300781 28.300781 12.695312 28.300781 28.300781-12.695312 28.300781-28.300781 28.300781zm0-37.734374c-5.207031 0-9.433594 4.230468-9.433594 9.433593 0 5.207031 4.226563 9.433594 9.433594 9.433594 5.203125 0 9.433593-4.226563 9.433593-9.433594 0-5.203125-4.230468-9.433593-9.433593-9.433593zm0 0" fill="#537983"/><path d="m113.476562 335.753906c-12.273437 10.140625-19.476562 25.082032-19.476562 41.09375l.132812 9.09375h26.933594v27.058594h9.339844c16.007812 0 30.832031-7.070312 40.839844-19.476562 18.144531-22.148438 11.472656-42.425782 6.9375-64.574219-22.148438-4.535157-42.425782-11.472657-64.707032 6.804687zm0 0" fill="#c5d3dd"/><path d="m154.484375 226.214844-10.207031 10.207031 29.8125 29.8125 40.015625-40.019531c-16.433594-16.4375-43.1875-16.4375-59.621094 0zm0 0" fill="#c5d3dd"/><path d="m277.679688 289.789062-40.019532 40.019532 29.8125 29.8125 10.207032-10.207032c16.480468-16.460937 16.492187-43.152343 0-59.625zm0 0" fill="#9facba"/><path d="m214.203125 306.273438-13.339844-13.339844 26.679688-26.683594 13.339843 13.34375zm0 0"/><path d="m359.398438 260.804688c-20.8125 0-37.734376-16.921876-37.734376-37.734376v-59.457031l36.148438 54.226563-15.695312 10.464844-1.300782-1.945313c1.558594 8.84375 9.296875 15.578125 18.582032 15.578125 10.402343 0 18.867187-8.464844 18.867187-18.867188v-84.902343h18.867187v84.902343c0 20.8125-16.921874 37.734376-37.734374 37.734376zm0 0" fill="#537983"/><path d="m279.84375 237.429688 11.472656 45.359374c-5.335937 11.207032-12.542968 21.078126-21.214844 30.019532-30.816406 30.816406-67.90625 36.417968-108.460937 32.683594h-.269531c-2.933594-40.558594 1.46875-77.246094 32.820312-108.59375 8.804688-8.808594 18.945313-16.011719 30.019532-21.214844l48.292968 18.945312zm0 0" fill="#c5d3dd"/><path d="m121.066406 385.941406 57.117188-56.992187c4.535156 22.148437 11.207031 42.425781-6.941406 64.574219-10.003907 12.40625-24.828126 19.476562-40.835938 19.476562h-9.339844zm0 0" fill="#9facba"/><path d="m240.890625 279.589844-26.683594 26.679687-6.671875-6.667969 26.683594-26.683593zm0 0"/><path d="m279.84375 237.429688 11.472656 45.359374c-5.335937 11.207032-12.542968 21.078126-21.214844 30.019532-30.816406 30.816406-67.90625 36.417968-108.460937 32.683594l110.863281-110.863282zm0 0" fill="#9facba"/><path d="m242.085938 208.480469c-6.136719 1.601562-12.140626 4.136719-17.875 7.203125 3.066406 16.144531 11.070312 31.621094 23.347656 43.894531 12.136718 12.140625 27.214844 20.011719 43.757812 23.210937 2.933594-5.601562 5.203125-11.605468 7.070313-18.011718 7.070312-22.277344 6.003906-38.820313 4.535156-60.566406-21.613281-1.601563-38.023437-2.535157-60.835937 4.269531zm0 0" fill="#deecf1"/><path d="m302.921875 204.210938c1.46875 21.746093 2.535156 38.289062-4.535156 60.566406-1.867188 6.40625-4.136719 12.410156-7.070313 18.011718-16.542968-3.199218-31.621094-11.070312-43.757812-23.210937zm0 0" fill="#c5d3dd"/></svg>