<svg height="512pt" viewBox="0 0 512 512" width="512pt" xmlns="http://www.w3.org/2000/svg"><path d="m512 256c0 141.386719-114.613281 256-256 256s-256-114.613281-256-256 114.613281-256 256-256 256 114.613281 256 256zm0 0" fill="#ffda2d"/><path d="m328.738281 148.5625-4.8125 4.816406-73.441406-73.441406-15.9375 15.941406 42.421875 42.425782-88.667969 4.238281-26.941406 13.941406 48.714844 48.714844-84.308594 84.3125 69.625 69.625-44.941406 44.9375 107.902343 107.894531c117.175782-1.054688 215.539063-80.828125 244.78125-189.007812zm0 0" fill="#eebf00"/><path d="m238.230469 163.691406-4.53125-3.773437-107.976563 129.582031h112.507813zm0 0" fill="#deecf1"/><path d="m238.230469 156.503906v-57h-77.160157l28.5 28.5-28.5 28.5zm0 0" fill="#ff9100"/><path d="m248.738281 101.339844-2.988281-.855469v189.011719h137.746094v-9.5c0-82.527344-55.421875-155.992188-134.757813-178.65625zm0 0" fill="#c5d3dd"/><path d="m231.5 79.871094h19v257.125h-19zm0 0" fill="#537983"/><path d="m241 79.871094h9.5v257.125h-9.5zm0 0" fill="#3e5959"/><path d="m97.871094 327.496094 52.5 76.632812h219.257812l52.5-76.632812zm0 0" fill="#61d7a8"/><path d="m422.128906 327.496094-52.5 76.632812h-128.628906v-76.632812zm0 0" fill="#00ab94"/></svg>