<svg height="512pt" viewBox="0 0 512 512" width="512pt" xmlns="http://www.w3.org/2000/svg"><path d="m512 256c0 141.386719-114.613281 256-256 256s-256-114.613281-256-256 114.613281-256 256-256 256 114.613281 256 256zm0 0" fill="#ff641a"/><path d="m508.46875 213.511719-105.492188-105.492188-11.976562 25.980469-235.667969 2-29.128906-28-11.226563 11.230469 3.023438 199.769531-8.941406 82.996094 106.875 106.875c13.054687 2.054687 26.433594 3.128906 40.066406 3.128906 141.386719 0 256-114.613281 256-256 0-14.476562-1.222656-28.667969-3.53125-42.488281zm0 0" fill="#f03800"/><path d="m394.386719 143.027344v-17.226563h-276.773438v17.226563h60.867188v17.226562h-60.867188v17.226563h60.867188v17.226562h-60.867188v17.226563h60.867188v17.226562h-60.867188v17.230469h276.773438v-17.230469h-60.867188v-17.226562h60.867188v-17.226563h-60.867188v-17.226562h60.867188v-17.226563h-60.867188v-17.226562zm-147 86.132812h-51.679688v-17.226562h51.679688zm0-34.453125h-51.679688v-17.226562h51.679688zm0-34.453125h-51.679688v-17.226562h51.679688zm68.90625 68.90625h-51.679688v-17.226562h51.679688zm0-34.453125h-51.679688v-17.226562h51.679688zm0-34.453125h-51.679688v-17.226562h51.679688zm0 0" fill="#c5d3dd"/><path d="m394.386719 143.027344v-17.226563h-138.386719v120.585938h138.386719v-17.226563h-60.867188v-17.226562h60.867188v-17.226563h-60.867188v-17.226562h60.867188v-17.226563h-60.867188v-17.226562zm-78.09375 86.132812h-51.679688v-17.226562h51.679688zm0-34.453125h-51.679688v-17.226562h51.679688zm0-34.453125h-51.679688v-17.226562h51.679688zm0 0" fill="#9facba"/><path d="m126.226562 328.726562v-220.726562h-17.226562v211.734375l4.78125 8.992187zm0 0" fill="#537983"/><path d="m403 319.734375v-211.734375h-17.226562v220.726562h7.226562zm0 0" fill="#3e5959"/><path d="m394.042969 320.117188c-5.515625.171874-11.023438 2.066406-16.023438 5.167968-5.855469 3.445313-13.664062 3.445313-19.523437 0-11.367188-7.234375-25.664063-7.234375-37.035156 0-5.855469 3.445313-13.09375 3.445313-18.949219-.171875-7.925781-4.824219-17.398438-6.375-26.703125-4.308593l-3.617188.863281-1.894531 3.101562c-2.929687 4.820313-8.613281 7.234375-14.296875 7.234375-5.6875 0-11.371094-2.414062-14.300781-7.234375l-1.894531-3.101562-3.617188-.863281c-9.300781-2.066407-18.777344-.515626-26.699219 4.480468-5.855469 3.445313-13.09375 3.445313-18.949219 0-11.371093-7.234375-25.667968-7.234375-37.039062 0-5.855469 3.445313-13.667969 3.445313-19.523438-.171875-4.996093-2.929687-10.507812-4.824219-16.019531-4.996093l-8.957031-.34375v82.226562h294v-82.226562zm0 0" fill="#ffda2d"/><path d="m403 319.773438v82.226562h-147v-69.996094c5.683594 0 11.367188-2.414062 14.296875-7.238281l1.894531-3.101563 3.621094-.859374c9.300781-2.066407 18.773438-.515626 26.699219 4.308593 5.855469 3.617188 13.09375 3.617188 18.949219.167969 11.371093-7.234375 25.667968-7.234375 37.039062 0 5.855469 3.445312 13.664062 3.445312 19.523438 0 4.996093-3.097656 10.507812-4.992188 16.019531-5.167969zm0 0" fill="#eebf00"/><path d="m256 280.839844c-18.949219 0-34.453125 15.503906-34.453125 34.453125 0 6.71875 1.894531 13.09375 5.339844 18.433593 6.203125 9.992188 17.054687 16.019532 29.113281 16.019532s22.910156-6.027344 28.941406-15.847656c3.617188-5.511719 5.511719-11.886719 5.511719-18.605469 0-18.949219-15.503906-34.453125-34.453125-34.453125zm0 0" fill="#61d7a8"/><path d="m161.253906 349.746094h17.226563v17.226562h-17.226563zm0 0" fill="#eebf00"/><path d="m333.519531 349.746094h17.226563v17.226562h-17.226563zm0 0" fill="#dc9e00"/><path d="m281.839844 358.359375h17.226562v17.226563h-17.226562zm0 0" fill="#dc9e00"/><path d="m212.933594 358.359375h17.226562v17.226563h-17.226562zm0 0" fill="#eebf00"/><path d="m290.453125 315.292969c0 6.71875-1.894531 13.09375-5.511719 18.605469-6.03125 9.816406-16.882812 15.847656-28.941406 15.847656v-68.90625c18.949219 0 34.453125 15.503906 34.453125 34.453125zm0 0" fill="#00ab94"/></svg>