<svg height="512pt" viewBox="0 0 512 512" width="512pt" xmlns="http://www.w3.org/2000/svg"><path d="m512 256c0 141.386719-114.613281 256-256 256s-256-114.613281-256-256 114.613281-256 256-256 256 114.613281 256 256zm0 0" fill="#61d7a8"/><path d="m512 256c0-1.402344-.03125-2.796875-.054688-4.191406l-145.484374-145.484375-29.664063 29.667969-179.796875-9.992188-14.648438 179.683594-6.683593 76.480468-25.316407 15.519532 112.128907 112.132812c10.972656 1.433594 22.15625 2.183594 33.519531 2.183594 141.386719 0 256-114.613281 256-256zm0 0" fill="#00ab94"/><path d="m110.308594 380.617188h51.21875v17.074218h-51.21875zm0 0" fill="#537983"/><path d="m142.261719 158.089844-14.863281 230.53125 17.039062 1.066406 15.425781-239.59375c-.632812-.535156-17.414062 8.003906-17.414062 8.003906zm0 0" fill="#537983"/><path d="m350.472656 380.617188h51.21875v17.074218h-51.21875zm0 0" fill="#3e5959"/><path d="m352.136719 150.09375 15.425781 239.59375 17.039062-1.066406-14.863281-230.539063zm0 0" fill="#3e5959"/><path d="m196.242188 226.390625h119.515624v51.21875h-119.515624zm0 0" fill="#ff9100"/><path d="m256 226.390625h59.757812v51.21875h-59.757812zm0 0" fill="#ff641a"/><path d="m187.707031 149.558594h17.074219v153.660156h-17.074219zm0 0" fill="#537983"/><path d="m307.21875 149.558594h17.074219v153.660156h-17.074219zm0 0" fill="#3e5959"/><path d="m366.464844 106.308594h-220.929688l-3.074218 51.789062h227.246093zm0 0" fill="#537983"/><path d="m369.707031 158.097656h-113.707031v-51.789062h110.464844zm0 0" fill="#3e5959"/><path d="m170.632812 294.683594v51.21875h170.734376v-51.21875zm0 0" fill="#ff9100"/><path d="m256 294.683594h85.367188v51.21875h-85.367188zm0 0" fill="#ff641a"/></svg>