<svg height="512pt" viewBox="0 0 512 512" width="512pt" xmlns="http://www.w3.org/2000/svg"><path d="m512 256c0 141.386719-114.613281 256-256 256s-256-114.613281-256-256 114.613281-256 256-256 256 114.613281 256 256zm0 0" fill="#537983"/><path d="m508.816406 296.390625-193.800781-193.800781-116.347656 26.742187 34.667969 122-129.261719 142.652344 115.414062 115.410156c11.925781 1.707031 24.113281 2.605469 36.511719 2.605469 127.640625 0 233.449219-93.417969 252.816406-215.609375zm0 0" fill="#3e5959"/><path d="m317.660156 365.539062 54.207032-72.726562-16.761719-47.554688h-198.210938l-16.628906 47.183594zm0 0" fill="#61d7a8"/><path d="m256 245.257812v94.871094l61.660156 25.410156 54.207032-72.726562-16.761719-47.554688zm0 0" fill="#00ab94"/><path d="m270.683594 394 46.976562-28.460938-135.722656-53.007812 9.257812 81.46875zm0 0" fill="#61d7a8"/><path d="m256 394h14.683594l46.976562-28.460938-61.660156-24.082031zm0 0" fill="#00ab94"/><path d="m181.9375 312.53125-47.90625-2.632812-30.035156 84.101562h68.683594zm0 0" fill="#61d7a8"/><path d="m296.863281 394h111.140625l-29.246094-81.894531-20.921874 7.832031zm0 0" fill="#00ab94"/><path d="m296.863281 394 81.894531-81.894531-6.890624-19.292969-54.207032 54.210938-177.394531-54.582032-6.234375 17.457032 38.648438 11.890624v72.210938h18.515624v-66.511719l111.648438 34.351563-32.160156 32.160156zm0 0" fill="#ffda2d"/><path d="m317.660156 347.023438-61.660156-18.972657v19.375l46.84375 14.414063-32.160156 32.160156h26.179687l81.894531-81.894531-6.890624-19.292969zm0 0" fill="#eebf00"/><path d="m256 78c-45.917969 0-83.320312 37.402344-83.320312 83.320312 0 15.738282 4.445312 31.105469 13.332031 45.175782l69.988281 90.976562 70.542969-91.714844c8.332031-13.332031 12.777343-28.699218 12.777343-44.4375 0-45.917968-37.402343-83.320312-83.320312-83.320312zm0 120.351562c-20.367188 0-37.03125-16.664062-37.03125-37.03125 0-20.367187 16.664062-37.03125 37.03125-37.03125s37.03125 16.664063 37.03125 37.03125c0 20.367188-16.664062 37.03125-37.03125 37.03125zm0 0" fill="#ff641a"/><path d="m339.320312 161.320312c0 15.738282-4.445312 31.105469-12.777343 44.4375l-70.542969 91.714844v-99.121094c20.367188 0 37.03125-16.664062 37.03125-37.03125 0-20.367187-16.664062-37.03125-37.03125-37.03125v-46.289062c45.917969 0 83.320312 37.402344 83.320312 83.320312zm0 0" fill="#f03800"/></svg>