<svg height="512pt" viewBox="0 0 512 512" width="512pt" xmlns="http://www.w3.org/2000/svg"><path d="m512 256c0 141.386719-114.613281 256-256 256s-256-114.613281-256-256 114.613281-256 256-256 256 114.613281 256 256zm0 0" fill="#ffda2d"/><path d="m511.945312 251.628906-111.871093-111.871094-18.074219 18.078126-52.183594-52.183594-43.140625-5.640625-17.859375 17.855469 24.394532 24.394531-6.527344 6.523437 5.679687 5.683594-91.949219 91.945312-75.320312-75.320312-31.265625 31.265625 75.324219 75.320313-36.984375-7.011719-18.28125-17.65625-13.191407 13.1875 6.304688 16.46875-9.5 16.332031-13.804688-2.40625-13.183593 13.1875 33.269531 33.269531-15.925781 15.925781 152.535156 152.535157c5.164063.3125 10.367187.488281 15.609375.488281 141.386719 0 256-114.613281 256-256 0-1.460938-.03125-2.917969-.054688-4.371094zm0 0" fill="#eebf00"/><path d="m76.289062 288.675781 21.121094 5.824219-5.8125 21.085938-21.121094-5.824219zm0 0" fill="#537983"/><path d="m118.460938 355.113281 21.257812 5.1875-5.195312 21.269531-21.257813-5.191406zm0 0" fill="#537983"/><path d="m144.347656 248.890625 21.261719 5.191406-5.195313 21.269531-21.257812-5.191406zm0 0" fill="#537983"/><path d="m113.882812 253.003906 10.511719 19.140625-19.183593 10.535157-10.511719-19.140626zm0 0" fill="#537983"/><path d="m197.394531 344.609375-21.121093-5.808594 5.8125-21.089843 21.121093 5.8125zm0 0" fill="#537983"/><path d="m166.484375 348.757812 10.503906 19.128907-19.191406 10.53125-10.5-19.132813zm0 0" fill="#537983"/><path d="m87.851562 358.980469-11.648437-18.527344 18.484375-11.621094 11.644531 18.523438zm0 0" fill="#537983"/><path d="m137.539062 369.492188c-.160156 0-.332031 0-.492187 0-30.160156-.277344-54.472656-25.042969-54.207031-55.191407v-.011719c.277344-29.984374 24.773437-54.195312 54.699218-54.195312h.488282c30.160156.277344 54.476562 25.042969 54.207031 55.191406-.277344 30-24.773437 54.207032-54.695313 54.207032zm-32.820312-54.984376c-.160156 18.085938 14.433594 32.933594 32.53125 33.105469 17.722656.757813 32.925781-14.433593 33.109375-32.53125.160156-18.085937-14.433594-32.9375-32.53125-33.105469-18.964844.191407-32.9375 14.429688-33.109375 32.53125zm0 0" fill="#537983"/><path d="m142.847656 324.355469-10.621094-19.125 71.847657-39.910157 10.617187 19.121094zm0 0" fill="#c5d3dd"/><path d="m150.007812 205.398438 87.300782 131.273437h38.945312l71.109375-131.273437zm0 0" fill="#537983"/><g fill="#3e5959"><path d="m347.363281 205.398438-71.109375 131.273437h-19.472656v-131.273437zm0 0"/><path d="m93.777344 161.636719v40.707031l70.367187 24.351562 82.953125.460938 21.714844-16.019531v-49.5zm0 0"/><path d="m348.640625 348.226562 18.992187 10.851563-10.863281 19.015625-18.996093-10.851562zm0 0"/><path d="m317.828125 343.574219-5.449219-21.195313 21.238282-5.46875 5.449218 21.195313zm0 0"/><path d="m423.773438 316.3125-5.449219-21.199219 21.226562-5.457031 5.027344 21.195312zm0 0"/><path d="m431.839844 353.714844-19.324219-10.320313 10.296875-19.296875 19.328125 10.320313zm0 0"/><path d="m411.039062 283.191406-18.992187-10.851562 10.875-19.019532 18.992187 10.855469zm0 0"/><path d="m335.371094 302.199219-19.324219-10.320313 10.296875-19.292968 19.328125 10.316406zm0 0"/><path d="m387.675781 380.367188-6.066406-21.078126 21.023437-6.046874 6.066407 21.078124zm0 0"/></g><path d="m400.089844 205.398438h-32.820313c-18.097656 0-32.816406-14.722657-32.816406-32.820313s14.722656-32.820313 32.816406-32.820313h32.820313zm0 0" fill="#9facba"/><path d="m378.273438 369.503906c-4.742188 0-9.515626-.621094-14.21875-1.882812-14.101563-3.769532-25.882813-12.816406-33.191407-25.488282-7.316406-12.660156-9.261719-27.402343-5.480469-41.492187 3.769532-14.09375 12.820313-25.886719 25.488282-33.195313 12.671875-7.316406 27.394531-9.261718 41.496094-5.480468 14.089843 3.769531 25.886718 12.820312 33.191406 25.488281 7.320312 12.660156 9.261718 27.40625 5.480468 41.496094-3.769531 14.089843-12.820312 25.886719-25.488281 33.191406-8.441406 4.875-17.800781 7.363281-27.277343 7.363281zm-.09375-87.539062c-5.683594 0-11.304688 1.496094-16.367188 4.421875-7.609375 4.390625-13.035156 11.464843-15.296875 19.914062-2.265625 8.453125-1.101563 17.296875 3.289063 24.890625 4.390624 7.609375 11.460937 13.035156 19.914062 15.300782 8.4375 2.265624 17.285156 1.089843 24.890625-3.292969 7.609375-4.390625 13.035156-11.460938 15.296875-19.914063 2.265625-8.449218 1.101562-17.292968-3.289062-24.890625-4.390626-7.605469-11.460938-13.035156-19.914063-15.296875-2.820313-.757812-5.683594-1.132812-8.523437-1.132812zm0 0" fill="#3e5959"/><path d="m331.042969 139.757812h-51.289063c-18.097656 0-32.820312 14.722657-32.820312 32.820313v54.699219h110.269531zm0 0" fill="#9facba"/><path d="m367.839844 317.527344-50.523438-191.390625c-1.324218-4.828125-5.703125-8.257813-10.652344-8.257813h-37.847656v-21.878906h37.847656c14.777344 0 27.851563 10.0625 31.785157 24.464844l50.542969 191.488281zm0 0" fill="#c5d3dd"/></svg>