<svg height="512pt" viewBox="0 0 512 512" width="512pt" xmlns="http://www.w3.org/2000/svg"><path d="m512 256c0 141.386719-114.613281 256-256 256s-256-114.613281-256-256 114.613281-256 256-256 256 114.613281 256 256zm0 0" fill="#ff641a"/><path d="m512 256c0-2.09375-.027344-4.183594-.078125-6.265625l-144.734375-144.730469-102.6875 16.996094-17.0625-17.007812-47.554688 47.558593-42.765624-42.765625-12.320313 12.320313 102.644531 102.644531-12.679687 12.679688 17.410156 17.410156-142.207031 142.210937 112.804687 112.804688c10.878907 1.410156 21.96875 2.144531 33.230469 2.144531 141.386719 0 256-114.613281 256-256zm0 0" fill="#f03800"/><path d="m213.226562 191.117188v102.65625h85.546876v-102.65625zm0 0" fill="#eebf00"/><path d="m256 191.117188h42.773438v102.65625h-42.773438zm0 0" fill="#dc9e00"/><path d="m281.664062 114.625v59.382812c0 9.449219 7.660157 17.109376 17.109376 17.109376h51.328124v-76.492188zm0 0" fill="#293939"/><g fill="#3e5959"><path d="m161.898438 114.625v76.492188h51.328124c9.449219 0 17.109376-7.660157 17.109376-17.109376v-59.382812zm0 0"/><path d="m247.445312 225.335938h17.109376v34.21875h-17.109376zm0 0"/><path d="m264.554688 105h102.65625v17.109375h-102.65625zm0 0"/></g><path d="m144.789062 105h102.65625v17.109375h-102.65625zm0 0" fill="#537983"/><path d="m148.6875 293.773438-21.007812 17.109374v34.21875h85.546874v-51.328124zm0 0" fill="#3e5959"/><path d="m298.773438 293.773438v51.328124h85.546874v-34.21875s-9.960937-8.640624-19.738281-17.109374zm0 0" fill="#293939"/><path d="m256 225.335938h8.554688v34.21875h-8.554688zm0 0" fill="#293939"/><path d="m145.988281 174.007812-18.308593 136.875h102.65625v-136.875zm0 0" fill="#ffda2d"/><path d="m383.292969 293.773438-17.28125-119.765626h-84.347657v136.875h102.65625zm0 0" fill="#eebf00"/><path d="m230.335938 397h-120.335938v-69.007812h120.335938zm0 0" fill="#537983"/><path d="m402 397h-120.335938v-69.007812h120.335938zm0 0" fill="#3e5959"/></svg>