<svg height="512pt" viewBox="0 0 512 512" width="512pt" xmlns="http://www.w3.org/2000/svg"><path d="m512 256c0 141.386719-114.613281 256-256 256s-256-114.613281-256-256 114.613281-256 256-256 256 114.613281 256 256zm0 0" fill="#537983"/><path d="m372.308594 161.148438-46.699219-46.699219-44.699219 44.699219-45.125-45.125-43.3125 43.3125-53.316406-53.3125-11.15625 81.308593 9.902344 9.957031-34.5 34.5 27.402344 27.402344.195312 87.808594-27.582031 10.101562 35.988281 35.988282-18.121094 18.117187 100.515625 100.511719c11.1875 1.496094 22.601563 2.28125 34.199219 2.28125 141.386719 0 256-114.613281 256-256 0-11.113281-.710938-22.0625-2.085938-32.804688l-119.191406-119.191406zm0 0" fill="#3e5959"/><path d="m322.265625 307.226562 14.210937-30.960937v-46.484375l-15.371093-6.707031 15.371093-11.175781v-71.535157c0-19.726562-16.042968-36.363281-35.769531-36.363281-19.726562 0-35.765625 16.636719-35.765625 36.363281v71.535157l21.515625 12.574218-21.515625 5.308594v94.167969l18.867188 8.914062zm0 0" fill="#00ab94"/><path d="m284.53125 346.453125-13.867188 30.925781c5.1875 12.339844 13.949219 23.070313 25.214844 30.402344l4.828125 3.21875 5.007813-3.21875c19.3125-12.699219 30.761718-34.335938 30.761718-57.585938v-16.632812l-28.605468-2.546875zm0 0" fill="#00ab94"/><path d="m220.339844 327.628906 26.71875-3.679687v-94.167969l-25.988282-6.984375 25.988282-10.898437v-71.535157c0-19.726562-16.042969-36.363281-35.769532-36.363281-19.722656 0-35.765624 16.636719-35.765624 36.363281v71.535157l19 9.5-19 8.382812v46.484375l13.996093 30.820313zm0 0" fill="#61d7a8"/><path d="m213.960938 337.566406-38.4375-4v16.628906c0 23.25 11.445312 44.890626 30.757812 57.585938l5.007812 3.21875 4.832032-3.21875c11.265625-7.332031 20.027344-18.0625 25.214844-30.402344l-4.417969-24.605468zm0 0" fill="#61d7a8"/><path d="m264.941406 323.90625v26.289062c0 10.042969 2.871094 21.476563 5.722656 27.183594l65.8125-43.816406v-57.226562zm0 0" fill="#eebf00"/><path d="m300.710938 265.546875c-19.726563 0-35.769532-16.039063-35.769532-35.765625v-17.882812c0-19.726563 16.042969-35.769532 35.769532-35.769532 19.722656 0 35.765624 16.042969 35.765624 35.769532v17.882812c0 19.726562-16.042968 35.765625-35.765624 35.765625zm0 0" fill="#3e5959"/><path d="m175.523438 276.335938v57.226562l65.8125 43.816406c2.851562-5.707031 5.722656-17.140625 5.722656-27.183594v-26.289062zm0 0" fill="#ffda2d"/><path d="m211.289062 265.546875c-19.722656 0-35.765624-16.039063-35.765624-35.765625v-17.882812c0-19.726563 16.042968-35.769532 35.765624-35.769532 19.726563 0 35.769532 16.042969 35.769532 35.769532v17.882812c0 19.726562-16.042969 35.765625-35.769532 35.765625zm0 0" fill="#537983"/><path d="m372.839844 104h17.882812v305.210938h-17.882812zm0 0" fill="#c5d3dd"/><path d="m354.953125 140.363281v44.707031l28.503906 19.003907 25.148438-19.003907v-44.707031zm0 0" fill="#00ab94"/><path d="m121.277344 104h17.882812v305.210938h-17.882812zm0 0" fill="#deecf1"/><path d="m103.394531 140.363281v44.707031l28.5 19.003907 25.152344-19.003907v-44.707031zm0 0" fill="#61d7a8"/><path d="m103.394531 185.070312h53.648438v44.710938h-53.648438zm0 0" fill="#00ab94"/><path d="m354.953125 185.070312h53.652344v44.710938h-53.652344zm0 0" fill="#009184"/><path d="m354.953125 372.980469-5.65625-16.957031 53.648437-17.882813 5.660157 16.957031zm0 0" fill="#9facba"/><path d="m157.046875 372.980469-53.652344-17.882813 5.660157-16.957031 53.648437 17.882813zm0 0" fill="#c5d3dd"/></svg>