<svg height="512pt" viewBox="0 0 512 512" width="512pt" xmlns="http://www.w3.org/2000/svg"><path d="m512 256c0 141.386719-114.613281 256-256 256s-256-114.613281-256-256 114.613281-256 256-256 256 114.613281 256 256zm0 0" fill="#ffda2d"/><path d="m508.601562 297.683594-176.859374-176.859375-111.757813 111.761719-19.703125-19.703126-121.578125 121.578126 177.535156 177.535156c127.082031-.113282 232.46875-92.832032 252.363281-214.3125zm0 0" fill="#eebf00"/><path d="m250.316406 227.632812h-128.191406v-62.164062l128.191406-25.644531zm0 0" fill="#c5d3dd"/><path d="m385.132812 227.632812h-156.179687v-106.824218h102.765625l10.683594 21.363281-13.246094 24.785156 45.292969 39.3125zm0 0" fill="#ff641a"/><path d="m385.132812 227.632812h-124.132812v-106.824218h70.71875l10.683594 21.363281-13.246094 24.785156 45.292969 39.3125zm0 0" fill="#f03800"/><path d="m374.449219 206.269531-32.046875-64.097656h-58.035156v64.097656zm0 0" fill="#3e5959"/><path d="m250.316406 142.171875h34.050782v64.097656h-34.050782zm0 0" fill="#3e5959"/><path d="m271.683594 131.488281h21.367187v85.460938h-21.367187zm0 0" fill="#f03800"/><path d="m443.320312 270.367188v64.097656h-364.640624v-64.097656l8.761718-4.917969 8.546875-5.125-8.546875-5.554688-8.761718-5.769531v-42.730469h311.226562c13.03125 0 24.78125 4.484375 33.972656 12.179688 9.1875 7.691406 15.808594 18.371093 18.375 30.550781l-6.199218 5.984375-5.980469 5.980469 6.621093 4.699218zm0 0" fill="#ff9100"/><path d="m443.320312 270.367188v64.097656h-182.320312v-128.195313h128.90625c13.03125 0 24.78125 4.484375 33.972656 12.179688 9.1875 7.691406 15.808594 18.371093 18.375 30.550781l-6.199218 5.984375-5.980469 5.980469 6.621093 4.699218zm0 0" fill="#ff641a"/><path d="m78.679688 249h53.414062v21.367188h-53.414062zm0 0" fill="#ffcebf"/><path d="m443.320312 259.683594v10.683594h-53.414062v-21.367188h52.34375c.640625 3.417969 1.070312 7.050781 1.070312 10.683594zm0 0" fill="#ffb99c"/><path d="m174.824219 270.367188c-29.484375 0-53.414063 23.929687-53.414063 53.414062 0 3.628906.429688 7.261719 1.070313 10.683594 4.914062 24.355468 26.492187 42.730468 52.34375 42.730468 25.855469 0 47.433593-18.375 52.347656-42.730468.640625-3.421875 1.066406-7.054688 1.066406-10.683594 0-29.484375-23.929687-53.414062-53.414062-53.414062zm0 0" fill="#537983"/><path d="m174.824219 355.828125c-17.671875 0-32.046875-14.375-32.046875-32.046875s14.375-32.050781 32.046875-32.050781 32.050781 14.378906 32.050781 32.050781-14.378906 32.046875-32.050781 32.046875zm0 0" fill="#deecf1"/><path d="m164.144531 313.097656h21.363281v21.367188h-21.363281zm0 0" fill="#537983"/><path d="m347.175781 270.367188c-29.488281 0-53.414062 23.929687-53.414062 53.414062 0 3.628906.425781 7.261719 1.066406 10.683594 4.914063 24.355468 26.492187 42.730468 52.347656 42.730468 25.851563 0 47.429688-18.375 52.34375-42.730468.640625-3.421875 1.070313-7.054688 1.070313-10.683594 0-29.484375-23.929688-53.414062-53.414063-53.414062zm0 0" fill="#3e5959"/><path d="m347.175781 355.828125c-17.671875 0-32.050781-14.375-32.050781-32.046875s14.378906-32.050781 32.050781-32.050781 32.046875 14.378906 32.046875 32.050781-14.375 32.046875-32.046875 32.046875zm0 0" fill="#c5d3dd"/><path d="m336.492188 313.097656h21.367187v21.367188h-21.367187zm0 0" fill="#3e5959"/></svg>