<svg height="512pt" viewBox="0 0 512 512" width="512pt" xmlns="http://www.w3.org/2000/svg"><path d="m512 256c0 141.386719-114.613281 256-256 256s-256-114.613281-256-256 114.613281-256 256-256 256 114.613281 256 256zm0 0" fill="#ffda2d"/><path d="m301.578125 135.867188-120.246094 46.132812-1.332031 102.667969-72.417969 80.113281 147.207031 147.203125c.402344.003906.804688.015625 1.210938.015625 114.136719 0 210.8125-74.699219 243.839844-177.871094zm0 0" fill="#eebf00"/><path d="m258 234.085938c-94.59375 0-169.222656 39.265624-169.222656 89.238281 0 49.972656 74.628906 89.898437 169.222656 89.898437s169.222656-39.925781 169.222656-89.898437c0-49.976563-74.628906-89.238281-169.222656-89.238281zm0 0" fill="#61d7a8"/><path d="m427.222656 323.324219c0 49.972656-74.628906 89.898437-169.222656 89.898437v-179.136718c94.59375 0 169.222656 39.261718 169.222656 89.238281zm0 0" fill="#00ab94"/><path d="m317.492188 353.070312c-16.402344 0-29.746094-13.34375-29.746094-29.746093 0-16.402344 13.34375-29.746094 29.746094-29.746094 16.402343 0 29.746093 13.34375 29.746093 29.746094 0 16.402343-13.34375 29.746093-29.746093 29.746093zm0 0" fill="#c5d3dd"/><path d="m168.761719 196.9375v126.386719h19.832031v-137.890625h-11.675781zm0 0" fill="#3e5959"/><path d="m208.421875 353.070312c-22.242187 0-39.660156-13.0625-39.660156-29.746093 0-16.683594 17.417969-29.746094 39.660156-29.746094s39.664063 13.0625 39.664063 29.746094c0 16.683593-17.421876 29.746093-39.664063 29.746093zm0 0" fill="#3e5959"/><path d="m258 115.828125-89.238281-41.050781v122.15625l89.238281-41.046875 43.628906-20.03125zm0 0" fill="#ff641a"/><path d="m301.628906 135.855469-43.628906 20.03125v-40.058594zm0 0" fill="#f03800"/></svg>