<svg height="512pt" viewBox="0 0 512 512" width="512pt" xmlns="http://www.w3.org/2000/svg"><path d="m512 256c0 141.386719-114.613281 256-256 256s-256-114.613281-256-256 114.613281-256 256-256 256 114.613281 256 256zm0 0" fill="#deecf1"/><path d="m512 256c0-17.5-1.761719-34.589844-5.105469-51.101562l-99.914062-99.914063-131.761719 131.765625-93.695312-93.691406-38.457032 38.457031 93.691406 93.695313-131.726562 131.726562 99.976562 99.976562c16.480469 3.332032 33.53125 5.085938 50.992188 5.085938 141.386719 0 256-114.613281 256-256zm0 0" fill="#c5d3dd"/><path d="m188.25 175.441406v-25.617187l-48.121094-48.382813-38.6875 38.6875 48.386719 48.121094h25.613281l12.605469 2.960938zm0 0" fill="#ff9100"/><path d="m313.632812 313.632812c-73.257812 73.257813-175.589843 89.523438-194.542968 92.085938l7.171875-17.164062-3.585938.769531-16.394531 3.585937c2.5625-18.957031 18.824219-121.289062 92.082031-194.546875 27.023438-27.019531 60.710938-48.921875 100.796875-65.699219l25.355469-.257812 55.585937 55.585938-.765624 24.847656c-16.777344 40.085937-38.679688 73.769531-65.703126 100.792968zm0 0" fill="#ffda2d"/><path d="m313.632812 313.632812c-73.257812 73.257813-175.589843 89.523438-194.542968 92.085938l7.171875-17.164062-3.585938.769531 229.378907-229.378907 28.046874 28.046876-.765624 24.847656c-16.777344 40.085937-38.679688 73.769531-65.703126 100.792968zm0 0" fill="#eebf00"/><path d="m407 105c-45.464844 4.226562-90.164062 19.722656-107.839844 27.664062l80.175782 80.175782c7.941406-17.675782 23.4375-62.375 27.664062-107.839844zm0 0" fill="#537983"/><path d="m310.6875 235.378906c0-9.476562-3.714844-18.058594-9.863281-24.203125-6.144531-6.148437-14.726563-9.863281-24.203125-9.863281-28.816406.128906-61.605469 31.632812-67.878906 37.910156-19.46875 19.464844-13.578126 45.851563 2.304687 61.730469 15.878906 15.882813 42.265625 21.773437 61.730469 2.304687 6.277344-6.273437 37.78125-39.0625 37.910156-67.878906zm0 0" fill="#537983"/><path d="m179.15625 345.652344-60.066406 60.066406c-3.074219.253906-11.015625 1.023438-14.089844 1.277344.257812-3.070313 1.023438-11.011719 1.28125-14.085938l60.066406-60.066406zm0 0" fill="#eebf00"/><path d="m172.75 339.246094 6.40625 6.40625-60.066406 60.066406c-3.074219.257812-11.015625 1.023438-14.089844 1.28125zm0 0" fill="#dc9e00"/><path d="m310.6875 235.378906c-.128906 28.816406-31.632812 61.605469-37.910156 67.878906-19.464844 19.46875-45.851563 13.578126-61.730469-2.304687l89.777344-89.777344c6.148437 6.144531 9.863281 14.726563 9.863281 24.203125zm0 0" fill="#3e5959"/><path d="m379.335938 212.839844-40.089844-40.085938 67.753906-67.753906c-4.226562 45.464844-19.722656 90.164062-27.664062 107.839844zm0 0" fill="#3e5959"/><path d="m175.4375 188.25 12.808594-12.808594 148.308594 148.308594-12.808594 12.808594zm0 0" fill="#c5d3dd"/><path d="m362.171875 323.75h-25.613281l-15.316406 3.066406 2.507812 9.742188v25.613281l48.121094 48.386719 38.6875-38.6875zm0 0" fill="#ff641a"/><path d="m249.59375 262.402344 12.804688-12.804688 74.15625 74.152344-12.808594 12.808594zm0 0" fill="#9facba"/></svg>