<svg height="512pt" viewBox="0 0 512 512" width="512pt" xmlns="http://www.w3.org/2000/svg"><path d="m512 256c0 141.386719-114.613281 256-256 256s-256-114.613281-256-256 114.613281-256 256-256 256 114.613281 256 256zm0 0" fill="#61d7a8"/><path d="m503.203125 189.300781-75.597656-75.601562-108.273438 5.136719-16.101562-16.09375-123.066407 5.796874-34.324218 34.328126 24.910156 24.632812 11.25 68-69.304688.195312-14.296874 14.296876 85.101562 85.007812-26.527344 79.980469-5.664062-5.667969-14.296875 14.296875 86.324219 86.324219c10.695312 1.363281 21.597656 2.066406 32.664062 2.066406 141.386719 0 256-114.613281 256-256 0-23.074219-3.070312-45.433594-8.796875-66.699219zm0 0" fill="#00ab94"/><path d="m302.222656 113.6875h125.378906v19.289062h-125.378906zm0 0" fill="#c6715a"/><path d="m311.867188 123.332031c0 16.007813-12.925782 28.933594-28.933594 28.933594h-9.648438l-10.605468-10.800781-8.683594 10.800781h-19.285156l-10.609376-11.1875-8.679687 11.1875h-19.292969l-10.03125-10.03125-9.257812 10.03125h-9.644532c-16.011718 0-28.933593-12.925781-28.933593-28.933594 0-16.011719 12.921875-28.933593 28.933593-28.933593h9.644532l8.101562 13.886718 11.1875-13.886718h19.289063l10.03125 14.078124 9.257812-14.078124h19.289063s9.839844 15.042968 10.804687 15.042968c.960938-.191406 8.484375-15.042968 8.484375-15.042968h9.644532c16.011718 0 28.9375 12.921874 28.9375 28.933593zm0 0" fill="#ff9100"/><path d="m302.222656 123.332031h125.378906v9.644531h-125.378906zm0 0" fill="#99503d"/><path d="m311.867188 123.332031c0 16.007813-12.925782 28.933594-28.933594 28.933594h-9.648438l-10.605468-10.800781-8.683594 10.800781h-19.285156l-10.609376-11.1875-8.679687 11.1875h-19.292969l-10.03125-10.03125-9.257812 10.03125h-9.644532c-16.011718 0-28.933593-12.925781-28.933593-28.933594zm0 0" fill="#ff641a"/><path d="m172.277344 365.734375h103.003906v19.289063h-103.003906zm0 0" fill="#537983"/><path d="m223.777344 365.734375h51.503906v19.289063h-51.503906zm0 0" fill="#3e5959"/><path d="m310.578125 423.601562h-36.410156l-23.5-91.433593 18.6875-4.804688 19.769531 76.949219h21.453125zm0 0" fill="#3e5959"/><path d="m173.390625 423.601562h-36.414063v-19.289062h21.457032l19.765625-76.949219 18.6875 4.804688zm0 0" fill="#537983"/><path d="m329.871094 240.355469c0 58.445312-47.644532 106.089843-106.09375 106.089843-58.449219 0-106.089844-47.644531-106.089844-106.089843zm0 0" fill="#ff641a"/><path d="m181.902344 247.605469-12.695313-14.503907c5.796875-5.097656 5.820313-14.136718 0-19.253906-14.589843-12.75-14.589843-35.507812 0-48.257812l12.695313 14.503906c-5.796875 5.09375-5.820313 14.132812 0 19.25 14.589844 12.753906 14.589844 35.511719 0 48.261719zm0 0" fill="#deecf1"/><path d="m230.144531 247.683594-12.734375-14.660156c5.789063-5.015626 5.789063-14.082032 0-19.09375-14.65625-12.925782-14.65625-35.496094 0-48.417969l12.734375 14.660156c-5.789062 5.015625-5.789062 14.082031 0 19.09375 14.660157 12.925781 14.660157 35.492187 0 48.417969zm0 0" fill="#deecf1"/><path d="m278.351562 247.605469-12.699218-14.503907c5.796875-5.097656 5.820312-14.136718 0-19.253906-14.585938-12.75-14.585938-35.507812 0-48.257812l12.699218 14.503906c-5.796874 5.09375-5.820312 14.132812 0 19.25 6.957032 6.085938 10.941407 14.882812 10.941407 24.132812s-3.984375 18.042969-10.941407 24.128907zm0 0" fill="#deecf1"/><path d="m176.839844 94.398438h19.289062v57.867187h-19.289062zm0 0" fill="#ff641a"/><path d="m215.421875 94.398438h19.289063v57.867187h-19.289063zm0 0" fill="#ff641a"/><path d="m253.996094 94.398438h19.289062v57.867187h-19.289062zm0 0" fill="#ff641a"/><g fill="#f03800"><path d="m176.839844 123.332031h19.289062v28.933594h-19.289062zm0 0"/><path d="m215.421875 123.332031h19.289063v28.933594h-19.289063zm0 0"/><path d="m253.996094 123.332031h19.289062v28.933594h-19.289062zm0 0"/><path d="m329.871094 240.355469c0 58.445312-47.644532 106.089843-106.09375 106.089843v-106.089843zm0 0"/></g><path d="m98.398438 230.710938h250.761718v19.285156h-250.761718zm0 0" fill="#ff9100"/><path d="m223.777344 230.710938h125.382812v19.285156h-125.382812zm0 0" fill="#ff641a"/></svg>