<svg height="512pt" viewBox="0 0 512 512" width="512pt" xmlns="http://www.w3.org/2000/svg"><path d="m512 256c0 141.386719-114.613281 256-256 256s-256-114.613281-256-256 114.613281-256 256-256 256 114.613281 256 256zm0 0" fill="#61d7a8"/><path d="m509.070312 217.160156-124.21875-124.21875-38.222656 66.429688-144.128906-8.371094-56.960938-58.101562-15.570312 15.570312 7.03125 192.53125-38.078125 106.078125 98.074219 98.074219c18.941406 4.46875 38.695312 6.847656 59.003906 6.847656 141.386719 0 256-114.613281 256-256 0-13.203125-1-26.171875-2.929688-38.839844zm0 0" fill="#00ab94"/><path d="m292.820312 148.746094-6.90625-7.480469-20.421874-1.148437-9.492188 8.628906-7.191406 8.34375-1.152344 19.847656 8.34375 8.628906 6.617188 7.476563 22.722656-.863281 7.480468-6.613282 7.191407-8.628906 2.300781-16.683594zm0 0" fill="#3e5959"/><path d="m366.460938 148.746094-6.90625-7.480469-20.421876-1.148437-9.492187 8.628906-7.191406 8.34375-1.152344 19.847656 8.34375 8.628906 6.617187 7.476563 22.722657-.863281 7.480469-6.613282 7.191406-8.628906 2.300781-16.683594zm0 0" fill="#3e5959"/><path d="m336.542969 179.8125-52.351563-1.152344-.289062 33.65625 8.917968 10.070313h36.820313l12.082031-17.546875zm0 0" fill="#3e5959"/><path d="m335.679688 116.816406-6.039063-4.890625h-36.820313l-10.066406 14.957031 6.039063 31.066407 47.75-2.300781zm0 0" fill="#3e5959"/><g fill="#537983"><path d="m256 185.566406-44.875-4.890625-.285156 36.246094 8.339844 5.464844h36.820312l7.480469-7.191407zm0 0"/><path d="m256 111.925781h-36.820312l-10.929688 23.875 4.3125 20.425781 43.4375-7.480468 7.480469-25.601563zm0 0"/><path d="m219.179688 148.746094-6.902344-7.480469-20.425782-1.148437-9.492187 8.628906-7.191406 8.34375-1.148438 19.847656 8.339844 8.628906 6.617187 7.476563 22.722657-.863281 7.480469-6.613282 7.191406-8.628906 2.300781-16.683594zm0 0"/><path d="m182.359375 111.925781h-36.820313l-10.355468 26.464844 6.523437 22.628906 51.390625-.765625 3.070313-34.902344zm0 0"/><path d="m191.183594 178.660156-51.398438.769532-3.066406 39.121093 8.820312 3.835938h36.820313l9.589844-8.054688zm0 0"/></g><path d="m182.359375 111.925781h36.820313v36.820313h-36.820313zm0 0" fill="#deecf1"/><path d="m182.359375 185.566406h36.820313v36.820313h-36.820313zm0 0" fill="#deecf1"/><path d="m219.179688 148.746094h36.820312v36.820312h-36.820312zm0 0" fill="#deecf1"/><path d="m256 111.925781h36.820312v36.820313h-36.820312zm0 0" fill="#c5d3dd"/><path d="m256 185.566406h36.820312v36.820313h-36.820312zm0 0" fill="#c5d3dd"/><path d="m292.820312 148.746094h36.820313v36.820312h-36.820313zm0 0" fill="#c5d3dd"/><path d="m145.539062 148.746094-10.355468 22.722656 10.355468 14.097656h36.820313v-36.820312zm0 0" fill="#deecf1"/><path d="m366.460938 185.566406h-36.820313v36.820313h36.820313l11.792968-3.742188.574219-23.875zm0 0" fill="#c5d3dd"/><path d="m366.460938 111.925781h-36.820313v36.820313h36.820313l11.792968-3.738282.574219-23.875zm0 0" fill="#c5d3dd"/><path d="m145.539062 305.230469-18.40625-9.207031v-203.121094h18.40625zm0 0" fill="#537983"/><path d="m384.867188 296.023438-18.40625 9.207031v-212.328125h18.40625zm0 0" fill="#3e5959"/><path d="m413.097656 407.097656h-147.894531l-8.097656-5.707031-1.105469.550781-9.203125 5.15625h-147.894531l28.230468-111.074218h119.664063l9.203125 9.757812 1.472656 1.65625 7.730469-11.414062h119.664063zm0 0" fill="#c5d3dd"/><path d="m413.097656 407.097656h-147.894531l-8.097656-5.707031-1.105469.550781v-96.160156l1.472656 1.65625 7.730469-11.414062h119.664063zm0 0" fill="#9facba"/><path d="m246.796875 360.460938h18.40625v46.636718h-18.40625zm0 0" fill="#deecf1"/><path d="m246.796875 296.023438h18.40625v46.027343h-18.40625zm0 0" fill="#deecf1"/><path d="m256 296.023438h9.203125v46.027343h-9.203125zm0 0" fill="#c5d3dd"/><path d="m256 360.460938h9.203125v46.636718h-9.203125zm0 0" fill="#c5d3dd"/></svg>