<svg height="512pt" viewBox="0 0 512 512" width="512pt" xmlns="http://www.w3.org/2000/svg"><path d="m512 256c0 141.386719-114.613281 256-256 256s-256-114.613281-256-256 114.613281-256 256-256 256 114.613281 256 256zm0 0" fill="#ffda2d"/><path d="m381.863281 133.011719-248.738281 248.738281 130.140625 130.140625c135.679687-3.78125 244.964844-113.128906 248.632813-248.839844zm0 0" fill="#eebf00"/><path d="m413.207031 256.621094 19.253907 9.730468c-2.691407 43.476563-21.601563 82.8125-50.378907 112.210938l-20.703125-1.65625s-.207031 10.558594 4.761719 16.355469c-27.742187 22.152343-62.316406 36.921875-99.789063 39.199219l-10.351562-16.148438-3.933594-6.210938-6.417968 22.359376c-37.472657-2.277344-72.046876-17.046876-99.789063-39.40625l5.382813-16.148438-21.324219 1.65625c-28.777344-29.398438-47.6875-68.734375-50.378907-112.210938l9.523438-9.730468-9.523438-10.972656c2.691407-43.476563 21.601563-82.8125 50.378907-112.210938.621093-.621094 1.242187-1.035156 1.863281-1.65625l2.484375 3.3125 17.597656-4.554688-6.003906-11.800781c27.742187-22.152343 62.316406-36.921875 99.789063-39.199219l9.730468 15.320313.621094-.828125 10.351562-14.492188c37.679688 2.277344 72.046876 17.046876 99.789063 39.40625h.207031l-.414062 13.457032 16.355468 1.035156c28.570313 29.398438 47.480469 68.738281 50.171876 112.210938zm0 0" fill="#ff641a"/><path d="m413.207031 256.621094 19.253907 9.730468c-2.691407 43.476563-21.601563 82.8125-50.378907 112.210938l-20.703125-1.65625s-.207031 10.558594 4.761719 16.355469c-27.742187 22.152343-62.316406 36.921875-99.789063 39.199219l-10.351562-16.148438v-322.28125l10.351562-14.492188c37.679688 2.277344 72.046876 17.046876 99.789063 39.40625h.207031l-.414062 13.457032 16.355468 1.035156c28.570313 29.398438 47.480469 68.738281 50.171876 112.210938zm0 0" fill="#f03800"/><path d="m266.351562 266.351562v42.027344c31.054688 3.726563 55.484376 23.601563 79.085938 43.0625 12.214844 10.144532 24.015625 19.875 36.644531 27.121094-4.96875 5.175781-10.351562 10.144531-15.941406 14.699219-11.800781-7.453125-22.980469-16.769531-33.953125-25.671875-21.53125-17.597656-41.820312-34.367188-65.835938-38.300782v103.171876c-3.519531.207031-6.832031.207031-10.351562.207031s-6.832031 0-10.351562-.207031v-103.171876c-24.015626 3.933594-44.304688 20.703126-65.835938 38.300782-10.765625 8.902344-21.945312 18.011718-33.953125 25.464844-5.589844-4.347657-10.972656-9.316407-15.941406-14.492188 12.421875-7.039062 24.429687-16.976562 36.644531-27.121094 23.601562-19.460937 48.03125-39.335937 79.085938-43.0625v-42.027344h-166.109376c-.203124-3.519531-.203124-6.832031-.203124-10.351562s0-6.832031.203124-10.351562h166.109376v-42.027344c-31.054688-3.726563-55.484376-23.601563-79.085938-43.0625-12.214844-10.144532-24.222656-19.875-36.644531-27.121094 4.96875-5.175781 10.351562-10.144531 15.941406-14.699219 11.800781 7.660157 22.980469 16.5625 33.953125 25.671875 21.53125 17.597656 41.820312 34.367188 65.835938 38.300782v-103.171876c3.519531-.203124 6.832031-.203124 10.351562-.203124s6.832031 0 10.351562.203124v103.171876c24.015626-3.933594 44.304688-20.703126 65.835938-38.300782 10.765625-8.695312 21.945312-17.804687 33.953125-25.464844h.207031c5.589844 4.554688 10.765625 9.316407 15.941406 14.492188-12.628906 7.039062-24.636718 16.976562-36.851562 27.121094-23.601562 19.460937-48.03125 39.335937-79.085938 43.0625v42.027344h166.109376c.207031 3.519531.207031 6.832031.207031 10.351562s0 6.832031-.207031 10.351562zm0 0" fill="#ffbd86"/><path d="m266.351562 266.351562v42.027344c31.054688 3.726563 55.484376 23.601563 79.085938 43.0625 12.214844 10.144532 24.015625 19.875 36.644531 27.121094-4.96875 5.175781-10.351562 10.144531-15.941406 14.699219-11.800781-7.453125-22.980469-16.769531-33.953125-25.671875-21.53125-17.597656-41.820312-34.367188-65.835938-38.300782v103.171876c-3.519531.207031-6.832031.207031-10.351562.207031v-353.335938c3.519531 0 6.832031 0 10.351562.207031v103.171876c24.015626-3.933594 44.304688-20.703126 65.835938-38.300782 10.765625-8.695312 21.945312-17.804687 33.953125-25.464844h.207031c5.589844 4.554688 10.765625 9.316407 15.941406 14.492188-12.628906 7.039062-24.636718 16.976562-36.851562 27.121094-23.601562 19.460937-48.03125 39.335937-79.085938 43.0625v42.027344h166.109376c.207031 3.519531.207031 6.832031.207031 10.351562s0 6.832031-.207031 10.351562zm0 0" fill="#f6a96c"/></svg>