<svg height="512pt" viewBox="0 0 512 512" width="512pt" xmlns="http://www.w3.org/2000/svg"><path d="m512 256c0 141.386719-114.613281 256-256 256s-256-114.613281-256-256 114.613281-256 256-256 256 114.613281 256 256zm0 0" fill="#deecf1"/><path d="m273.0625 511.421875c127.777344-8.414063 229.933594-110.558594 238.355469-238.332031l-136.914063-136.917969-66.003906-30.671875-41.289062-41.496094-17.605469 17.605469-3.605469 18.722656-41.332031 8.332031-79.667969 54.667969-27.332031 85-16.039063 1.296875-17.605468 17.601563 41.976562 42.4375 29.761719 64.453125zm0 0" fill="#c5d3dd"/><g fill="#ff641a"><path d="m424.074219 244.75c-5.398438-84.148438-72.675781-151.425781-156.824219-156.824219v-23.925781h-22.5v23.925781c-84.148438 5.398438-151.425781 72.675781-156.824219 156.824219h-23.925781v22.5h23.925781c5.398438 84.148438 72.675781 151.425781 156.824219 156.824219v23.925781h22.5v-23.925781c84.148438-5.398438 151.425781-72.675781 156.824219-156.824219h23.925781v-22.5zm-168.074219 157.5c-80.550781 0-146.25-65.699219-146.25-146.25s65.699219-146.25 146.25-146.25 146.25 65.699219 146.25 146.25-65.699219 146.25-146.25 146.25zm0 0"/><path d="m256 132.25c-68.175781 0-123.75 55.574219-123.75 123.75s55.574219 123.75 123.75 123.75 123.75-55.574219 123.75-123.75-55.574219-123.75-123.75-123.75zm0 225c-55.800781 0-101.25-45.449219-101.25-101.25s45.449219-101.25 101.25-101.25 101.25 45.449219 101.25 101.25-45.449219 101.25-101.25 101.25zm0 0"/><path d="m256 177.25c-43.425781 0-78.75 35.324219-78.75 78.75s35.324219 78.75 78.75 78.75 78.75-35.324219 78.75-78.75-35.324219-78.75-78.75-78.75zm0 135c-31.050781 0-56.25-25.199219-56.25-56.25s25.199219-56.25 56.25-56.25 56.25 25.199219 56.25 56.25-25.199219 56.25-56.25 56.25zm0 0"/><path d="m271.976562 256 15.746094 15.972656-15.746094 15.75-15.976562-15.75-15.976562 15.75-15.746094-15.75 15.746094-15.972656-15.746094-15.976562 15.746094-15.75 15.976562 15.75 15.976562-15.75 15.746094 15.75zm0 0"/></g><path d="m271.976562 287.722656-15.976562-15.75v-31.949218l15.976562-15.75 15.746094 15.75-15.746094 15.976562 15.746094 15.972656zm0 0" fill="#f03800"/><path d="m334.75 256c0 43.425781-35.324219 78.75-78.75 78.75v-22.5c31.050781 0 56.25-25.199219 56.25-56.25s-25.199219-56.25-56.25-56.25v-22.5c43.425781 0 78.75 35.324219 78.75 78.75zm0 0" fill="#f03800"/><path d="m379.75 256c0 68.175781-55.574219 123.75-123.75 123.75v-22.5c55.800781 0 101.25-45.449219 101.25-101.25s-45.449219-101.25-101.25-101.25v-22.5c68.175781 0 123.75 55.574219 123.75 123.75zm0 0" fill="#f03800"/><path d="m448 244.75v22.5h-23.925781c-5.398438 84.148438-72.675781 151.425781-156.824219 156.824219v23.925781h-11.25v-45.75c80.550781 0 146.25-65.699219 146.25-146.25s-65.699219-146.25-146.25-146.25v-45.75h11.25v23.925781c84.148438 5.398438 151.425781 72.675781 156.824219 156.824219zm0 0" fill="#f03800"/></svg>