<svg height="512pt" viewBox="0 0 512 512" width="512pt" xmlns="http://www.w3.org/2000/svg"><path d="m512 256c0 141.386719-114.613281 256-256 256s-256-114.613281-256-256 114.613281-256 256-256 256 114.613281 256 256zm0 0" fill="#537983"/><path d="m257.976562 511.976562c140.472657-1.066406 254.023438-115.253906 254.023438-255.976562 0-8.734375-.441406-17.367188-1.296875-25.878906l-142.785156-142.785156-11.417969 81.664062 21.796875 19.460938-56.394531 56.390624-157.515625-157.515624-11.417969 81.664062 39.925781 35.652344-46.097656 46.101562 84.601563 84.601563-24.769532 24.773437-38.5-38.5-20.054687 20.050782-24.671875-24.671876-14.25 14.25 24.671875 24.671876-15.945313 15.945312zm0 0" fill="#3e5959"/><path d="m149.855469 350.636719-40.710938-19.378907 8.746094-18.386718 40.710937 19.378906zm0 0" fill="#ff641a"/><path d="m117.890625 371.964844-8.746094-18.386719 40.710938-19.378906 8.746093 18.386719zm0 0" fill="#ff641a"/><path d="m144.050781 311.886719v61.0625h10.175781c32.160157 0 60.65625 21.238281 70.628907 51.566406l3.460937 10.175781h55.363282l3.460937-10.175781c9.972656-30.328125 38.46875-51.566406 70.628906-51.566406h10.179688v-61.0625zm0 0" fill="#ff9100"/><path d="m235.644531 210.113281h40.710938v20.355469h-40.710938zm0 0" fill="#ff641a"/><path d="m276.355469 250.824219-10.179688 20.351562h-20.351562l-10.179688-20.351562zm0 0" fill="#ff641a"/><path d="m266.175781 271.175781h-10.175781v-20.351562h20.355469zm0 0" fill="#f03800"/><path d="m256 210.113281h20.355469v20.355469h-20.355469zm0 0" fill="#f03800"/><path d="m144.050781 87.308594h20.351563v71.917968h-20.351563zm0 0" fill="#ff641a"/><path d="m347.59375 87.308594h20.355469v71.917968h-20.355469zm0 0" fill="#f03800"/><path d="m245.824219 271.175781h-49.4375c-28.773438 0-53.480469-16.507812-64.492188-43.082031-11-26.578125-11.3125-55.714844 9.03125-76.0625l2.980469-2.980469h30.675781c39.277344 0 71.242188 31.960938 71.242188 71.238281zm0 0" fill="#ff9100"/><path d="m315.613281 271.175781h-49.4375v-50.886719c0-39.277343 31.964844-71.238281 71.242188-71.238281h30.675781l2.980469 2.980469c20.347656 20.347656 20.03125 49.484375 9.03125 76.0625-11.011719 26.574219-35.71875 43.082031-64.492188 43.082031zm0 0" fill="#ff641a"/><path d="m394.109375 371.964844-40.710937-19.378906 8.746093-18.386719 40.710938 19.378906zm0 0" fill="#f03800"/><path d="m362.144531 350.636719-8.746093-18.386719 40.710937-19.378906 8.746094 18.386718zm0 0" fill="#f03800"/><path d="m367.949219 311.886719v61.0625h-10.175781c-32.160157 0-60.65625 21.238281-70.628907 51.566406l-3.460937 10.175781h-27.683594v-122.804687zm0 0" fill="#ff641a"/></svg>