<svg height="512pt" viewBox="0 0 512 512" width="512pt" xmlns="http://www.w3.org/2000/svg"><path d="m512 256c0 141.386719-114.613281 256-256 256s-256-114.613281-256-256 114.613281-256 256-256 256 114.613281 256 256zm0 0" fill="#61d7a8"/><path d="m369.765625 157.105469-59.105469-59.101563-74.328125 74.328125-69.527343-69.527343-15.066407 15.0625 69.53125 69.527343-65.269531 65.269531 19.539062 19.542969-84.050781 84.050781 155.570313 155.570313c2.96875.101563 5.945312.171875 8.941406.171875 134.566406 0 244.878906-103.828125 255.203125-235.746094l-130.292969-130.292968zm0 0" fill="#00ab94"/><path d="m390.132812 296.667969v59.597656h-298.660156v-59.597656c1.589844 0 21.320313-10.132813 38.804688-19.867188h220.121094zm0 0" fill="#ff641a"/><path d="m380.199219 336.398438h40.398437v19.867187h-40.398437zm0 0" fill="#3e5959"/><path d="m410.660156 316.53125h19.867188v79.46875h-19.867188zm0 0" fill="#3e5959"/><path d="m390.132812 296.667969v59.597656h-158.933593v-79.464844h119.199219zm0 0" fill="#f03800"/><path d="m171.601562 107.933594h119.199219v39.730468h-119.199219zm0 0" fill="#c5d3dd"/><path d="m231.199219 107.933594h59.601562v39.730468h-59.601562zm0 0" fill="#9facba"/><path d="m360.332031 137.734375h-238.398437c-16.492188 0-30.460938 13.308594-30.460938 29.796875v129.132812h298.660156v-129.132812c0-16.488281-13.308593-29.796875-29.800781-29.796875zm0 0" fill="#deecf1"/><path d="m151.734375 98h158.929687v19.867188h-158.929687zm0 0" fill="#deecf1"/><path d="m390.132812 167.53125v129.132812h-158.933593v-158.929687h129.132812c16.492188 0 29.800781 13.308594 29.800781 29.796875zm0 0" fill="#c5d3dd"/><path d="m231.199219 98h79.46875v19.867188h-79.46875zm0 0" fill="#c5d3dd"/><path d="m142.199219 189.785156h118.402343v59.597656h-118.402343zm0 0" fill="#61d7a8"/><path d="m251.066406 177.46875h-119.199218v79.464844h139.066406v-62.976563zm-59.597656 59.597656h-39.734375v-39.730468h39.734375zm59.597656 0h-39.730468v-39.730468h39.730468zm0 0" fill="#537983"/><path d="m231.199219 189.785156h29.402343v59.597656h-29.402343zm0 0" fill="#00ab94"/><path d="m270.933594 193.953125v62.980469h-39.734375v-19.867188h19.867187v-39.734375h-19.867187v-19.863281h19.867187zm0 0" fill="#3e5959"/><path d="m171.601562 396c-21.914062 0-39.734374-17.820312-39.734374-39.734375 0-21.910156 17.820312-39.730469 39.734374-39.730469 21.910157 0 39.730469 17.820313 39.730469 39.730469 0 21.914063-17.820312 39.734375-39.730469 39.734375zm0 0" fill="#537983"/><path d="m171.601562 376.132812c-10.953124 0-19.867187-8.914062-19.867187-19.867187s8.914063-19.867187 19.867187-19.867187c10.949219 0 19.867188 8.914062 19.867188 19.867187s-8.917969 19.867187-19.867188 19.867187zm0 0" fill="#deecf1"/><path d="m350.398438 256.933594v-79.464844h-99.332032v178.796875h99.332032v-79.464844l-13.035157-8.070312zm0 0" fill="#293939"/><path d="m310.667969 256.933594h39.730469v19.867187h-39.730469zm0 0" fill="#9facba"/></svg>