<svg height="512pt" viewBox="0 0 512 512" width="512pt" xmlns="http://www.w3.org/2000/svg"><path d="m512 256c0 141.386719-114.613281 256-256 256s-256-114.613281-256-256 114.613281-256 256-256 256 114.613281 256 256zm0 0" fill="#537983"/><path d="m509.324219 218.96875-121.71875-121.71875-79.023438 79.023438-74.773437-74.773438-.363282 55.082031-20.046874 20.046875 19.785156 19.78125-.183594 27.589844 48.28125 57.683594-125 124.996094 105.253906 105.25c138.828125-2.945313 250.464844-116.394532 250.464844-255.929688 0-12.578125-.925781-24.9375-2.675781-37.03125zm0 0" fill="#3e5959"/><path d="m319.753906 357.695312v28.652344c0 15.851563-12.796875 28.652344-28.652344 28.652344h-114.609374c-15.855469 0-28.652344-12.800781-28.652344-28.652344v-28.652344l28.84375-19.738281h109.453125zm0 0" fill="#c5d3dd"/><path d="m319.753906 357.695312v28.652344c0 15.851563-12.796875 28.652344-28.652344 28.652344h-57.304687v-77.042969h52.339844zm0 0" fill="#9facba"/><path d="m186.042969 185.144531v57.304688h95.507812v-57.304688zm0 0" fill="#c5d3dd"/><path d="m233.796875 185.144531h47.753906v57.304688h-47.753906zm0 0" fill="#9facba"/><path d="m241.628906 112.941406-7.832031-11.460937-7.832031 11.460937c-6.304688 8.976563-20.820313 31.324219-20.820313 43.550782 0 15.851562 12.796875 28.652343 28.652344 28.652343s28.652344-12.800781 28.652344-28.652343c0-12.226563-14.515625-34.574219-20.820313-43.550782zm0 0" fill="#ff9100"/><path d="m233.796875 185.144531v-83.664062l7.832031 11.460937c6.304688 8.976563 20.820313 31.324219 20.820313 43.550782 0 15.855468-12.796875 28.652343-28.652344 28.652343zm0 0" fill="#ff641a"/><path d="m310.203125 242.449219c-5.347656 0-9.550781-4.203125-9.550781-9.550781v-9.550782h-152.8125v134.347656h171.914062v-115.246093zm0 0" fill="#deecf1"/><path d="m367.507812 242.449219h-47.753906v-9.550781c0-5.269532-4.28125-9.550782-9.550781-9.550782h-9.550781v-134.347656h66.855468c15.800782 0 28.652344 12.851562 28.652344 28.652344v96.144531c0 15.800781-12.851562 28.652344-28.652344 28.652344zm0 0" fill="#9facba"/><path d="m319.753906 242.449219v115.246093h-85.957031v-134.347656h66.855469v9.550782c0 5.347656 4.203125 9.550781 9.550781 9.550781zm0 0" fill="#c5d3dd"/><path d="m310.203125 261.550781c-15.800781 0-28.652344-12.851562-28.652344-28.652343 0-15.796876 12.851563-28.652344 28.652344-28.652344s28.652344 12.855468 28.652344 28.652344c0 15.800781-12.851563 28.652343-28.652344 28.652343zm0 0" fill="#deecf1"/><path d="m310.203125 242.449219c-5.269531 0-9.550781-4.28125-9.550781-9.550781 0-5.269532 4.28125-9.550782 9.550781-9.550782s9.550781 4.28125 9.550781 9.550782c0 5.269531-4.28125 9.550781-9.550781 9.550781zm0 0" fill="#c5d3dd"/></svg>