<svg height="512pt" viewBox="0 0 512 512" width="512pt" xmlns="http://www.w3.org/2000/svg"><path d="m512 256c0 141.386719-114.613281 256-256 256s-256-114.613281-256-256 114.613281-256 256-256 256 114.613281 256 256zm0 0" fill="#ffda2d"/><path d="m507.441406 207.769531-91.820312-91.824219-100.8125 4.363282-14.917969 14.917968 66.484375 66.523438 2.292969 44.582031-94 79.667969-120.667969-64-54.011719-5.34375-13.613281 13.613281 58.316406 58.316407-43.757812 43.757812 139.152344 139.148438c5.265624.324218 10.566406.507812 15.914062.507812 141.386719 0 256-114.613281 256-256 0-16.488281-1.578125-32.609375-4.558594-48.230469zm0 0" fill="#eebf00"/><path d="m173.179688 328.179688v19.292968h26.625l11.191406-19.292968zm0 0" fill="#575f64"/><path d="m134.589844 386.0625c-26.597656 0-48.234375-21.640625-48.234375-48.238281 0-26.59375 21.636719-48.234375 48.234375-48.234375s48.234375 21.640625 48.234375 48.234375c0 26.597656-21.636719 48.238281-48.234375 48.238281zm0 0" fill="#537983"/><path d="m134.589844 366.765625c-15.957032 0-28.941406-12.980469-28.941406-28.941406 0-15.957031 12.980468-28.941407 28.941406-28.941407 15.960937 0 28.941406 12.980469 28.941406 28.941407 0 15.960937-12.980469 28.941406-28.941406 28.941406zm0 0" fill="#deecf1"/><path d="m134.589844 324.179688 13.644531 13.640624-13.644531 13.644532-13.640625-13.644532zm0 0" fill="#537983"/><path d="m295.636719 289.589844c-1.351563 1.542968-2.316407 3.085937-3.28125 4.824218l27.78125-4.824218c12.351562-12.15625 29.328125-19.292969 47.273437-19.292969v-19.296875c-28.941406 0-56.144531 14.664062-71.773437 38.589844zm0 0" fill="#f03800"/><path d="m204.777344 299.4375 9.113281-4.253906c-.964844-1.929688-1.929687-3.859375-3.28125-5.789063-13.503906-23.539062-38.972656-38.394531-66.371094-38.394531h-57.882812v19.292969h57.882812c16.589844 0 32.21875 7.140625 43.023438 19.101562zm0 0" fill="#ff641a"/><path d="m249.84375 289.394531h-62.582031c3.667969 4.246094 6.753906 8.878907 9.261719 13.890625 5.015624 10.230469 6.753906 21.613282 5.015624 32.996094l-1.734374 11.191406h100.074218v-9.648437c0-11.769531 3.085938-23.347657 9.066406-33.765625 3.089844-5.402344 6.753907-10.226563 11.191407-14.46875zm0 0" fill="#ff9100"/><path d="m320.136719 289.589844c-4.4375 4.242187-8.101563 9.066406-11.191407 14.46875-5.980468 10.421875-9.066406 21.996094-9.066406 33.765625v9.648437h-50.035156v-58.078125zm0 0" fill="#ff641a"/><path d="m357.761719 125.585938h19.296875v173.648437h-19.296875zm0 0" fill="#9facba"/><path d="m299.878906 115.9375h115.765625v19.296875h-115.765625zm0 0" fill="#c5d3dd"/><path d="m367.410156 386.0625c-26.597656 0-48.234375-21.640625-48.234375-48.238281 0-26.59375 21.636719-48.234375 48.234375-48.234375s48.234375 21.640625 48.234375 48.234375c0 26.597656-21.636719 48.238281-48.234375 48.238281zm0 0" fill="#3e5959"/><path d="m367.410156 366.765625c-15.960937 0-28.941406-12.980469-28.941406-28.941406 0-15.957031 12.980469-28.941407 28.941406-28.941407 15.957032 0 28.941406 12.980469 28.941406 28.941407 0 15.960937-12.984374 28.941406-28.941406 28.941406zm0 0" fill="#c5d3dd"/><path d="m367.410156 324.179688 13.640625 13.640624-13.640625 13.640626-13.640625-13.640626zm0 0" fill="#3e5959"/></svg>