<svg height="512pt" viewBox="0 0 512 512" width="512pt" xmlns="http://www.w3.org/2000/svg"><path d="m512 256c0 141.386719-114.613281 256-256 256s-256-114.613281-256-256 114.613281-256 256-256 256 114.613281 256 256zm0 0" fill="#ff641a"/><path d="m336.988281 85.210938-66.988281-.460938-87.25 1-8.273438 57.632812 125.511719 125.511719-157.96875 157.972657 83.292969 83.296874c10.0625 1.199219 20.300781 1.835938 30.6875 1.835938 139.988281 0 253.71875-112.371094 255.945312-251.828125zm0 0" fill="#f03800"/><path d="m312.585938 317.363281c-5.390626 3.316407-11.609376 5.183594-18.035157 5.183594h-77.105469c-6.421874 0-12.640624-1.867187-18.03125-5.183594l-15.960937-10.15625v77.519531h145.09375v-77.519531zm0 0" fill="#537983"/><path d="m162.726562 364h186.546876v52.507812h-186.546876zm0 0" fill="#61d7a8"/><path d="m312.585938 317.363281 15.960937-10.15625v77.519531h-72.546875v-62.179687h38.550781c6.425781 0 12.644531-1.867187 18.035157-5.183594zm0 0" fill="#3e5959"/><path d="m256 364h93.273438v52.507812h-93.273438zm0 0" fill="#00ab94"/><path d="m142 406.144531h228v20.726563h-228zm0 0" fill="#537983"/><path d="m256 406.144531h114v20.726563h-114zm0 0" fill="#3e5959"/><path d="m349.273438 114.582031c0 22.800781-18.65625 41.453125-41.457032 41.453125h-10.363281v-20.726562h10.363281c11.402344 0 20.730469-9.328125 20.730469-20.726563 0-11.398437-9.328125-20.726562-20.730469-20.726562h-103.632812c-11.402344 0-20.730469 9.328125-20.730469 20.726562 0 11.398438 9.328125 20.726563 20.730469 20.726563h10.363281v20.726562h-10.363281c-22.800782 0-41.457032-18.652344-41.457032-41.453125s18.65625-41.453125 41.457032-41.453125h103.632812c22.800782 0 41.457032 18.652344 41.457032 41.453125zm0 0" fill="#537983"/><path d="m349.273438 114.582031c0 22.800781-18.65625 41.453125-41.457032 41.453125h-10.363281v-20.726562h10.363281c11.402344 0 20.730469-9.328125 20.730469-20.726563 0-11.398437-9.328125-20.726562-20.730469-20.726562h-51.816406v-20.726563h51.816406c22.800782 0 41.457032 18.652344 41.457032 41.453125zm0 0" fill="#3e5959"/><path d="m204.183594 114.582031v52.027344l.828125 12.640625 12.4375-2.484375h77.933593l12.4375 2.484375v-64.667969zm0 0" fill="#61d7a8"/><path d="m349.273438 210.757812v77.796876c0 30.464843-24.667969 54.71875-54.71875 54.71875h-7.464844l-31.089844-23.214844-31.089844 23.214844h-7.464844c-30.054687 0-54.71875-24.253907-54.71875-54.722657v-77.792969c0-28.8125 22.386719-52.648437 51.195313-54.515624.417969-.207032 1.867187-.207032 3.527344-.207032h77.105469c1.65625 0 3.109374 0 4.972656.414063 27.359375 1.660156 49.746094 25.496093 49.746094 54.308593zm0 0" fill="#ffda2d"/><path d="m307.816406 114.582031v64.667969l-12.433594-2.484375h-39.382812v-62.183594zm0 0" fill="#00ab94"/><path d="m349.273438 210.757812v77.796876c0 30.464843-24.667969 54.71875-54.71875 54.71875h-7.464844l-31.089844-23.214844v-164.023438h38.550781c1.660157 0 3.109375 0 4.976563.414063 27.359375 1.660156 49.746094 25.496093 49.746094 54.308593zm0 0" fill="#eebf00"/><path d="m224.910156 281.089844v72.546875h62.179688v-72.546875zm0 0" fill="#537983"/><path d="m264.496094 202.050781-8.496094-12.4375-8.496094 12.4375c-6.84375 9.742188-22.59375 34.683594-22.59375 47.949219 0 17.203125 13.886719 31.089844 31.089844 31.089844s31.089844-13.886719 31.089844-31.089844c0-13.265625-15.75-38.207031-22.59375-47.949219zm0 0" fill="#ff9100"/><path d="m256 281.089844v-91.476563l8.496094 12.4375c6.84375 9.742188 22.59375 34.683594 22.59375 47.949219 0 17.203125-13.886719 31.089844-31.089844 31.089844zm0 0" fill="#ff641a"/><path d="m256 281.089844h31.089844v72.546875h-31.089844zm0 0" fill="#3e5959"/></svg>