<svg height="512pt" viewBox="0 0 512 512" width="512pt" xmlns="http://www.w3.org/2000/svg"><path d="m512 256c0 141.386719-114.613281 256-256 256s-256-114.613281-256-256 114.613281-256 256-256 256 114.613281 256 256zm0 0" fill="#deecf1"/><path d="m201.019531 306.09375-33.34375-33.347656-82 82 156.902344 156.90625c4.445313.230468 8.917969.347656 13.421875.347656 141.386719 0 256-114.613281 256-256 0-17.484375-1.757812-34.558594-5.097656-51.058594l-102.367188-102.367187zm0 0" fill="#c5d3dd"/><path d="m309.257812 316.632812c-47.953124 47.953126-103.117187 86.734376-145.914062 101l-11.097656 3.699219-6.472656-60.105469-60.105469-6.472656 3.699219-11.097656c14.265624-42.800781 53.050781-97.960938 101-145.914062 2.117187-2.113282 4.230468-4.226563 6.476562-6.207032l42.402344-14.136718 81.371094 8.984374 9.777343 87.976563-14.929687 35.796875c-1.980469 2.246094-4.09375 4.363281-6.207032 6.476562zm0 0" fill="#ff9100"/><path d="m309.257812 316.632812c-47.953124 47.953126-103.117187 86.734376-145.914062 101l-11.097656 3.699219-6.472656-60.105469 174.84375-174.84375 9.777343 87.976563-14.925781 35.796875c-1.984375 2.246094-4.097656 4.363281-6.210938 6.476562zm0 0" fill="#ff641a"/><path d="m364.472656 244.242188-18.226562 4.492187-8.71875-79.261719-82.300782-9.113281 7.53125-17.832031c70.011719-39.367188 129.851563-40.027344 132.363282-39.894532l9.378906-.132812-.132812 9.378906c.132812 2.511719-.527344 62.351563-39.894532 132.363282zm0 0" fill="#ff9100"/><path d="m346.246094 248.734375-8.71875-79.261719 66.972656-66.972656-.132812 9.378906c.132812 2.511719-.527344 62.351563-39.894532 132.363282zm0 0" fill="#ff641a"/><path d="m272.269531 244.507812.660157-10.4375-10.4375.660157c-1.320313 0-31.835938 1.984375-52.308594 22.457031-20.476563 20.476562-22.457032 50.992188-22.457032 52.308594l-.660156 10.4375 10.4375-.660156c1.320313 0 31.832032-1.980469 52.308594-22.457032 20.476562-20.472656 22.457031-50.992187 22.457031-52.308594zm0 0" fill="#ffda2d"/><path d="m272.269531 244.507812c0 1.320313-1.984375 31.835938-22.457031 52.308594-20.476562 20.476563-50.992188 22.457032-52.308594 22.457032l-10.4375.660156 85.863282-85.863282zm0 0" fill="#eebf00"/><path d="m363.019531 246.753906 1.585938-2.644531-10.171875-91.542969-91.542969-10.171875-2.644531 1.585938c-26.285156 15.191406-50.328125 34.476562-63.402344 47.554687l106.867188 11.753906 11.753906 106.867188c13.078125-13.074219 32.363281-37.117188 47.554687-63.402344zm0 0" fill="#ffda2d"/><path d="m315.464844 310.15625-11.753906-106.867188 50.722656-50.722656 10.171875 91.542969-1.585938 2.644531c-15.191406 26.285156-34.476562 50.328125-47.554687 63.402344zm0 0" fill="#eebf00"/></svg>