<svg height="512pt" viewBox="0 0 512 512" width="512pt" xmlns="http://www.w3.org/2000/svg"><path d="m512 256c0 141.386719-114.613281 256-256 256s-256-114.613281-256-256 114.613281-256 256-256 256 114.613281 256 256zm0 0" fill="#ffda2d"/><path d="m309.128906 92.566406-118.128906 37.433594 28 128.5-25.320312 161.261719 90.667968 90.667969c115.902344-12.769532 208.492188-102.902344 225.007813-217.636719zm0 0" fill="#eebf00"/><path d="m329.152344 335.070312-15.140625-46.15625h-125.519531l-15.140626 46.15625c-8.558593 25.453126-4.390624 52.445313 11.191407 74.171876 15.800781 21.503906 39.9375 34.011718 66.710937 34.011718 26.769532 0 50.90625-12.507812 66.707032-34.011718 15.578124-21.726563 19.75-48.71875 11.191406-74.171876zm-55.738282 41.914063c-2.414062 3.511719-9.65625 11.410156-22.164062 11.410156s-19.75-7.898437-22.160156-11.410156c-2.414063-3.292969-7.683594-12.507813-3.730469-24.578125l17.332031-52.519531h17.117188l17.335937 52.519531c3.949219 12.070312-1.316406 21.285156-3.730469 24.578125zm0 0" fill="#b35f49"/><path d="m317.960938 409.242188c-15.800782 21.503906-39.941407 34.011718-66.710938 34.011718v-54.859375c12.507812 0 19.75-7.898437 22.164062-11.410156 2.414063-3.292969 7.679688-12.507813 3.730469-24.578125l-17.335937-52.515625h-8.558594v-10.972656h62.757812l15.140626 46.152343c8.5625 25.453126 4.390624 52.445313-11.1875 74.171876zm0 0" fill="#99503d"/><path d="m369.746094 366.449219c-36.207032 0-65.828125-30.355469-65.828125-66.5625v-10.972657h-54.859375v10.972657c0 66.488281 54.199218 121.421875 120.691406 121.421875h10.972656v-54.859375zm0 0" fill="#c6715a"/><path d="m317.960938 102.757812c-15.800782-21.503906-39.941407-34.011718-66.710938-34.011718s-50.910156 12.507812-66.710938 34.011718c-15.578124 21.726563-19.75 48.714844-11.191406 74.171876l15.140625 46.15625h125.523438l15.140625-46.15625c8.558594-25.457032 4.386718-52.445313-11.191406-74.171876zm-40.816407 56.835938-17.335937 52.519531h-17.117188l-17.335937-52.519531c-3.949219-12.070312 1.320312-21.285156 3.730469-24.578125 2.414062-3.507813 9.65625-11.410156 22.164062-11.410156s19.75 7.898437 22.164062 11.410156c2.414063 3.292969 7.679688 12.507813 3.730469 24.578125zm0 0" fill="#c6715a"/><path d="m336.832031 283.429688c0 15.140624-12.289062 27.429687-27.429687 27.429687h-120.691406c-15.140626 0-27.429688-12.289063-27.429688-27.429687 0-15.140626 12.289062-27.429688 27.429688-27.429688l45.644531-20.1875 16.894531 1.972656 34.671875 3.730469s25.015625 11.851563 23.480469 14.484375c15.140625 0 27.429687 12.289062 27.429687 27.429688zm0 0" fill="#c6715a"/><g fill="#b35f49"><path d="m336.832031 283.429688c0 15.140624-12.289062 27.429687-27.429687 27.429687h-58.152344v-73.074219l34.671875 3.730469s25.015625 11.851563 23.480469 14.484375c15.140625 0 27.429687 12.289062 27.429687 27.429688zm0 0"/><path d="m329.152344 176.929688-15.140625 46.15625h-62.761719v-10.972657h8.558594l17.335937-52.519531c3.949219-12.070312-1.316406-21.285156-3.730469-24.578125-2.414062-3.507813-9.65625-11.410156-22.164062-11.410156v-54.859375c26.773438 0 50.910156 12.507812 66.710938 34.011718 15.578124 21.726563 19.75 48.714844 11.191406 74.171876zm0 0"/><path d="m309.402344 201.140625h-120.691406c-15.140626 0-27.429688 12.289063-27.429688 27.429687 0 15.144532 12.289062 27.429688 27.429688 27.429688h120.691406c15.140625 0 27.429687-12.289062 27.429687-27.429688 0-15.140624-12.289062-27.429687-27.429687-27.429687zm0 0"/></g><path d="m309.402344 256h-58.152344v-54.859375h58.152344c15.140625 0 27.429687 12.289063 27.429687 27.429687 0 15.144532-12.289062 27.429688-27.429687 27.429688zm0 0" fill="#99503d"/></svg>