<svg height="512pt" viewBox="0 0 512 512" width="512pt" xmlns="http://www.w3.org/2000/svg"><path d="m512 256c0 141.386719-114.613281 256-256 256s-256-114.613281-256-256 114.613281-256 256-256 256 114.613281 256 256zm0 0" fill="#ffda2d"/><path d="m327.78125 163.59375-51.3125-51.3125-56.46875 28.21875-5 72.5-59.300781 96.675781-27.3125-27.3125-47.375 47.375 35.039062 35.039063-35 5.921875 138.742188 138.738281c11.828125 1.675781 23.914062 2.5625 36.207031 2.5625 141.386719 0 256-114.613281 256-256 0-3.664062-.09375-7.308594-.246094-10.9375l-132.722656-132.71875-51.84375 29.84375zm0 0" fill="#eebf00"/><path d="m431 173.800781v126.125s-1.4375 10.664063-2.257812 10.867188c-.410157 0-1.640626 4.101562-3.28125 9.230469-10.457032 7.792968-25.496094 7.175781-34.929688-2.667969-10.460938-11.074219-27.890625-11.074219-38.347656 0-10.460938 11.074219-28.097656 11.074219-38.554688 0-10.460937-11.074219-27.890625-11.074219-38.351562 0-5.332032 5.539062-12.304688 8.203125-19.277344 8.203125s-13.945312-2.664063-19.277344-8.203125c-10.457031-11.074219-27.886718-11.074219-38.347656 0s-28.097656 11.074219-38.554688 0c-10.460937-11.074219-27.890624-11.074219-38.351562 0-9.433594 10.253906-25.496094 10.460937-35.957031 2.050781l-4.511719-17.636719v-127.96875zm0 0" fill="#deecf1"/><path d="m431 173.800781v126.125s-1.4375 10.664063-2.257812 10.867188c-.410157 0-1.640626 4.101562-3.28125 9.230469-10.457032 7.792968-25.496094 7.175781-34.929688-2.667969-10.460938-11.074219-27.890625-11.074219-38.347656 0-10.460938 11.074219-28.097656 11.074219-38.554688 0-10.460937-11.074219-27.890625-11.074219-38.351562 0-5.332032 5.539062-12.304688 8.203125-19.277344 8.203125v-151.757813zm0 0" fill="#c5d3dd"/><path d="m214.984375 214.816406h102.539063v20.507813h-102.539063zm0 0" fill="#537983"/><path d="m214.984375 255.832031h102.539063v20.507813h-102.539063zm0 0" fill="#537983"/><path d="m256 214.816406h61.523438v20.507813h-61.523438zm0 0" fill="#3e5959"/><path d="m214.984375 173.800781h102.539063v20.507813h-102.539063zm0 0" fill="#537983"/><g fill="#3e5959"><path d="m256 173.800781h61.523438v20.507813h-61.523438zm0 0"/><path d="m256 255.832031h61.523438v20.507813h-61.523438zm0 0"/><path d="m327.777344 320.742188h-20.507813v-136.6875c0-71.777344 43.199219-71.777344 71.777344-71.777344v20.507812c-28.648437 0-51.269531 0-51.269531 51.273438zm0 0"/></g><path d="m225.238281 309.15625h-20.507812v-125.101562c0-71.777344 43.199219-71.777344 71.777343-71.777344v20.507812c-28.648437 0-51.269531 0-51.269531 51.273438zm0 0" fill="#537983"/><path d="m431 340.941406v29.734375c-12.101562 9.433594-33.496094 9.023438-47.851562-5.332031-6.152344-6.5625-17.429688-6.5625-23.582032 0-13.742187 14.765625-39.582031 14.765625-53.320312 0-6.152344-6.5625-17.433594-6.5625-23.585938 0-6.972656 7.386719-16.816406 11.078125-26.660156 11.078125s-19.6875-3.691406-26.660156-11.078125c-6.152344-6.5625-17.429688-6.5625-23.582032 0-13.742187 14.765625-39.582031 14.765625-53.320312 0-6.152344-6.5625-17.433594-6.5625-23.585938 0-12.097656 12.714844-32.058593 15.792969-47.847656 5.332031v-27.890625c6.765625 12.101563 23.238282 18.664063 32.878906 8.613282 13.945313-14.761719 39.582032-14.761719 53.523438 0 6.152344 6.566406 17.230469 6.566406 23.378906 0 13.945313-14.761719 39.582032-14.761719 53.527344 0 3.078125 3.285156 7.382812 4.921874 11.691406 4.921874 4.304688 0 8.609375-1.636718 11.6875-4.921874 13.945313-14.761719 39.582032-14.761719 53.527344 0 6.148438 6.566406 17.226562 6.566406 23.378906 0 13.941406-14.761719 39.578125-14.761719 53.523438 0 10.046875 11.074218 28.980468 2.460937 32.878906-10.457032zm0 0" fill="#61d7a8"/><path d="m431 299.925781v29.734375c-12.101562 9.433594-33.496094 9.023438-47.851562-5.332031-6.152344-6.5625-17.429688-6.5625-23.582032 0-13.742187 14.765625-39.582031 14.765625-53.320312 0-6.152344-6.5625-17.433594-6.5625-23.585938 0-6.972656 7.386719-16.816406 11.074219-26.660156 11.074219s-19.6875-3.6875-26.660156-11.074219c-6.152344-6.5625-17.429688-6.5625-23.582032 0-13.742187 14.765625-39.582031 14.765625-53.320312 0-6.152344-6.5625-17.433594-6.5625-23.585938 0-12.097656 12.714844-32.058593 15.792969-47.847656 5.332031v-27.890625c6.765625 12.101563 23.238282 18.664063 32.878906 8.613281 13.945313-14.765624 39.582032-14.765624 53.523438 0 6.152344 6.5625 17.230469 6.5625 23.378906 0 13.945313-14.765624 39.582032-14.765624 53.527344 0 3.078125 3.28125 7.382812 4.921876 11.691406 4.921876 4.304688 0 8.609375-1.640626 11.6875-4.921876 13.945313-14.765624 39.582032-14.765624 53.527344 0 6.148438 6.5625 17.226562 6.5625 23.378906 0 13.941406-14.765624 39.578125-14.765624 53.523438 0 10.046875 11.074219 28.980468 2.460938 32.878906-10.457031zm0 0" fill="#61d7a8"/><path d="m431 299.925781v29.734375c-12.101562 9.433594-33.496094 9.023438-47.851562-5.332031-6.152344-6.5625-17.429688-6.5625-23.582032 0-13.742187 14.765625-39.582031 14.765625-53.320312 0-6.152344-6.5625-17.433594-6.5625-23.585938 0-6.972656 7.386719-16.816406 11.074219-26.660156 11.074219v-20.097656c4.308594 0 8.613281-1.640626 11.691406-4.921876 13.945313-14.765624 39.578125-14.765624 53.523438 0 6.152344 6.5625 17.226562 6.5625 23.378906 0 13.945312-14.765624 39.582031-14.765624 53.527344 0 10.046875 11.074219 28.980468 2.460938 32.878906-10.457031zm0 0" fill="#00ab94"/><path d="m431 340.941406v29.734375c-12.101562 9.433594-33.496094 9.023438-47.851562-5.332031-6.152344-6.5625-17.429688-6.5625-23.582032 0-13.742187 14.765625-39.582031 14.765625-53.320312 0-6.152344-6.5625-17.433594-6.5625-23.585938 0-6.972656 7.386719-16.816406 11.078125-26.660156 11.078125v-20.101563c4.308594 0 8.613281-1.640624 11.691406-4.921874 13.945313-14.765626 39.578125-14.765626 53.523438 0 6.152344 6.5625 17.226562 6.5625 23.378906 0 13.945312-14.765626 39.582031-14.765626 53.527344 0 10.046875 11.074218 28.980468 2.460937 32.878906-10.457032zm0 0" fill="#00ab94"/></svg>