<svg height="512pt" viewBox="0 0 512 512" width="512pt" xmlns="http://www.w3.org/2000/svg"><path d="m512 256c0 141.386719-114.613281 256-256 256s-256-114.613281-256-256 114.613281-256 256-256 256 114.613281 256 256zm0 0" fill="#ff641a"/><path d="m512 256c0-10.765625-.671875-21.371094-1.964844-31.789062l-111.058594-111.0625-94.582031-18.417969-52.0625 25.589843-39.664062 69.183594 23.726562 86.226563-122.0625 122.0625 112.550781 112.550781c9.558594 1.082031 19.269532 1.65625 29.117188 1.65625 141.386719 0 256-114.613281 256-256zm0 0" fill="#f03800"/><path d="m192.429688 333.535156-13.890626-13.890625 53.753907-53.753906 13.890625 13.890625zm0 0" fill="#c5d3dd"/><path d="m192.429688 333.535156-6.945313-6.945312 53.753906-53.753906 6.945313 6.945312zm0 0" fill="#9facba"/><path d="m357.304688 140.878906-20.832032-20.835937 17.5-17.503907-13.890625-13.890624-17.5 17.503906-16.53125-16.53125-13.890625 13.890625 16.53125 16.53125-27.78125 27.777343-27.777344-27.777343-13.890624 13.890625 27.777343 27.777344-27.777343 27.78125-16.53125-16.527344-13.890626 13.886718 16.53125 16.53125-17.640624 17.640626 13.890624 13.890624 17.640626-17.640624 20.832031 20.832031-27.777344 27.78125 13.890625 13.890625 27.777344-27.78125 20.835937 20.835937-17.640625 17.640625 13.890625 13.890625 17.640625-17.640625 16.527344 16.527344 13.890625-13.890625-16.527344-16.527344 27.777344-27.78125 27.78125 27.78125 13.890625-13.890625-27.78125-27.78125 27.78125-27.777344 16.527344 16.527344 13.890625-13.890625-16.527344-16.527343 17.5-17.503907-13.890625-13.886719-17.5 17.5-20.835938-20.835937 27.78125-27.777344-13.890624-13.890625zm-20.832032 90.28125-27.78125 27.78125-20.835937-20.835937 27.78125-27.777344zm41.667969-41.667968-27.777344 27.78125-20.835937-20.835938 27.78125-27.78125zm-83.339844-27.78125 27.78125-27.777344 20.832031 20.832031-27.777343 27.78125zm-41.667969 41.671874 27.777344-27.78125 20.835938 20.835938-27.78125 27.78125zm0 0" fill="#deecf1"/><path d="m398.976562 126.988281-6.945312-6.945312-152.792969 152.789062 6.945313 6.945313 27.78125-27.78125 20.835937 20.835937-17.640625 17.640625 13.890625 13.890625 17.640625-17.640625 16.527344 16.53125 13.890625-13.890625-16.53125-16.53125 27.78125-27.777343 27.78125 27.777343 13.890625-13.890625-27.78125-27.777344 27.78125-27.78125 16.527344 16.527344 13.890625-13.886718-16.527344-16.53125 17.5-17.5-13.890625-13.890626-17.5 17.5-20.835938-20.832031zm-62.503906 104.171875-27.78125 27.78125-20.835937-20.835937 27.78125-27.777344zm41.667969-41.667968-27.777344 27.78125-20.835937-20.835938 27.78125-27.78125zm0 0" fill="#c5d3dd"/><path d="m239.238281 120.042969c-44.449219 44.449219-50.558593 116.121093-6.941406 159.734375 21.804687 21.808594 50.695313 31.253906 79.589844 29.585937 29.03125-1.804687 58.058593-14.445312 80.144531-36.53125 46.53125-46.53125 48.613281-118.066406 6.945312-159.734375-41.671874-41.671875-113.203124-39.585937-159.738281 6.945313zm169.738281 71.117187c-1.25 25.140625-12.222656 49.167969-30.835937 67.78125-18.75 18.753906-42.78125 29.726563-67.785156 30.835938-24.863281 1.25-47.503907-7.21875-64.171875-23.890625-16.527344-16.527344-25-39.167969-23.75-64.03125 1.109375-25.003907 11.945312-49.171875 30.695312-67.921875 18.613282-18.613282 42.78125-29.449219 67.925782-30.699219 1.527343-.136719 2.914062-.140625 4.582031-.140625 22.917969-.136719 43.890625 8.335938 59.449219 23.890625 16.667968 16.671875 25.003906 39.449219 23.890624 64.175781zm0 0" fill="#ffda2d"/><path d="m135.242188 418.78125-41.671876-41.671875 78.164063-78.160156 41.667969 41.671875zm0 0" fill="#537983"/><path d="m213.40625 340.617188-78.160156 78.160156-20.972656-20.972656 78.160156-78.160157zm0 0" fill="#3e5959"/><path d="m398.976562 113.097656c41.671876 41.667969 39.585938 113.203125-6.945312 159.734375-22.085938 22.085938-51.113281 34.726563-80.144531 36.53125-28.890625 1.667969-57.785157-7.777343-79.589844-29.585937l13.890625-13.890625c16.667969 16.667969 39.308594 25.140625 64.171875 23.890625 25-1.109375 49.03125-12.082032 67.78125-30.835938 18.613281-18.613281 29.585937-42.640625 30.835937-67.785156 1.113282-24.722656-7.21875-47.503906-23.890624-64.171875zm0 0" fill="#eebf00"/></svg>