<svg height="512pt" viewBox="0 0 512 512" width="512pt" xmlns="http://www.w3.org/2000/svg"><path d="m512 256c0 141.386719-114.613281 256-256 256s-256-114.613281-256-256 114.613281-256 256-256 256 114.613281 256 256zm0 0" fill="#ffda2d"/><path d="m337.320312 146.757812-25.648437-25.644531-27.339844 27.339844 207.441407 207.441406c13.023437-30.691406 20.226562-64.453125 20.226562-99.894531 0-21.804688-2.734375-42.964844-7.863281-63.171875l-106.441407-106.445313zm0 0" fill="#eebf00"/><path d="m278.359375 162.738281-14.703125 14.703125-23.046875-23.046875-10.933594 10.933594 23.046875 23.050781-39.203125 39.203125-32.449219-32.449219-67.15625 67.15625 77.25 77.25-21.414062 21.414063-22.527344-22.527344-10.9375 10.9375 22.527344 22.527344-57.859375 12.171875-10.933594 10.933594 111.078125 111.082031c17.6875 3.867187 36.054688 5.921875 54.902344 5.921875 100.519531 0 187.492188-57.945312 229.378906-142.242188zm0 0" fill="#eebf00"/><path d="m402.953125 148.46875h-118.648437c-14.5625-41.097656 17.75-61.613281 42.109374-55.523438 8.734376-12.335937 23.03125-19.945312 38.417969-19.945312 26.007813 0 47.167969 21.160156 47.167969 47.167969 0 8.308593-2.183594 16.464843-6.320312 23.601562zm0 0" fill="#c5d3dd"/><path d="m194.398438 186.832031c-15.386719 0-29.683594 7.609375-38.417969 19.945313-24.5625-6.140625-56.625 14.550781-42.109375 55.523437h97.507812l28.777344-39.761719c-5.25-21.023437-24.0625-35.707031-45.757812-35.707031zm0 0" fill="#deecf1"/><path d="m128.363281 338.398438h18.867188v47.167968h-18.867188zm0 0" fill="#575f64"/><path d="m354.769531 338.398438h18.867188v47.167968h-18.867188zm0 0" fill="#3e5959"/><path d="m278.359375 162.679688-27.359375 54.71875-27.359375-54.71875 16.980469-8.300782 10.378906 20.753906 10.378906-20.753906zm0 0" fill="#ff641a"/><path d="m372.316406 380.660156h-242.632812l121.316406-206.46875zm0 0" fill="#ff9100"/><path d="m278.359375 162.679688-27.359375 54.71875v-42.265626l10.378906-20.753906zm0 0" fill="#f03800"/><path d="m372.316406 380.660156h-121.316406v-206.46875zm0 0" fill="#ff641a"/><path d="m312.128906 381.039062h-122.257812l61.128906-109.683593zm0 0" fill="#deecf1"/><path d="m312.128906 381.039062h-61.128906v-109.683593zm0 0" fill="#3e5959"/><path d="m90 376.132812h322v18.867188h-322zm0 0" fill="#61d7a8"/><path d="m251 376.132812h161v18.867188h-161zm0 0" fill="#00ab94"/></svg>