<svg height="512pt" viewBox="0 0 512 512" width="512pt" xmlns="http://www.w3.org/2000/svg"><path d="m512 256c0 141.386719-114.613281 256-256 256s-256-114.613281-256-256 114.613281-256 256-256 256 114.613281 256 256zm0 0" fill="#ffda2d"/><path d="m117.519531 394.480469 116.582031 116.578125c7.21875.613281 14.519532.941406 21.898438.941406 141.386719 0 256-114.613281 256-256 0-7.382812-.332031-14.6875-.941406-21.910156l-116.574219-116.574219zm0 0" fill="#eebf00"/><path d="m394.5 223.933594c-89.003906 89.003906-80.898438 80.898437-170.570312 170.566406-29.398438 29.402344-77.027344 29.402344-106.429688 0s-29.402344-77.027344 0-106.429688l170.566406-170.570312c29.402344-29.402344 77.03125-29.402344 106.433594 0s29.402344 77.03125 0 106.433594zm0 0" fill="#61d7a8"/><path d="m394.5 223.933594c-89.003906 89.003906-80.898438 80.898437-170.570312 170.566406-29.398438 29.402344-77.027344 29.402344-106.429688 0l277-277c29.402344 29.402344 29.402344 77.03125 0 106.433594zm0 0" fill="#00ab94"/><g fill="#3e5959"><path d="m268.109375 164.066406 13.304687-13.304687 79.824219 79.824219-13.304687 13.300781zm0 0"/><path d="m150.757812 281.417969 13.304688-13.304688 79.820312 79.820313-13.304687 13.304687zm0 0"/><path d="m275.957031 236.042969c-11.042969-11.042969-28.871093-11.042969-39.914062 0-11.039063 11.042969-11.042969 28.871093 0 39.914062s28.871093 11.039063 39.914062 0c11.039063-11.042969 11.039063-28.871093 0-39.914062zm0 0"/></g><path d="m236.042969 275.957031 39.914062-39.914062c11.042969 11.042969 11.042969 28.871093 0 39.914062-11.042969 11.039063-28.871093 11.042969-39.914062 0zm0 0" fill="#293939"/><path d="m308.019531 203.976562 13.304688-13.304687 39.914062 39.914063-13.304687 13.300781zm0 0" fill="#293939"/><path d="m230.582031 361.246094-39.910156-39.914063 13.304687-13.304687 39.910157 39.914062zm0 0" fill="#293939"/><path d="m354.589844 290.453125-39.914063-39.914063 53.214844-53.214843 39.914063 39.910156zm0 0" fill="#3e5959"/><path d="m237.234375 407.804688-39.910156-39.914063 53.214843-53.214844 39.910157 39.914063zm0 0" fill="#3e5959"/><path d="m261.460938 197.324219-39.914063-39.914063 53.21875-53.214844 39.910156 39.914063zm0 0" fill="#537983"/><path d="m144.105469 314.675781-39.910157-39.910156 53.214844-53.214844 39.914063 39.910157zm0 0" fill="#537983"/></svg>