<svg height="512pt" viewBox="0 0 512 512" width="512pt" xmlns="http://www.w3.org/2000/svg"><path d="m512 256c0 141.386719-114.613281 256-256 256s-256-114.613281-256-256 114.613281-256 256-256 256 114.613281 256 256zm0 0" fill="#ffda2d"/><path d="m375.421875 131.152344-50.757813 1.515625 21.578126 56.90625-46.992188 5.425781-53.976562-53.953125-59.113282 5.699219-15.6875 15.6875 38.191406 38.234375-46.773437 63.253906-72.851563 10.773437 3.269532 83.320313 153.773437 153.773437c3.292969.125 6.59375.210938 9.917969.210938 137.542969 0 249.734375-108.472656 255.730469-244.539062zm0 0" fill="#eebf00"/><path d="m373.660156 376.355469c-35.386718 0-64.175781-28.789063-64.175781-64.175781 0-35.390626 28.789063-64.175782 64.175781-64.175782 35.390625 0 64.890625 28.785156 64.890625 64.175782 0 35.386718-29.5 64.175781-64.890625 64.175781zm0-106.960938c-23.59375 0-42.785156 19.1875-42.785156 42.785157 0 23.597656 19.1875 42.785156 42.785156 42.785156s43.5-19.1875 43.5-42.785156c0-23.597657-19.902344-42.785157-43.5-42.785157zm0 0" fill="#3e5959"/><path d="m381.363281 138.6875c-7.273437-11.980469-20.109375-19.039062-34.226562-19.039062h-41.289063l18.824219 64.175781 16.007813 15.152343 6.457031-15.152343-12.625-42.785157h12.625c6.84375 0 12.621093 3.210938 16.042969 8.984376 3.636718 5.5625 3.847656 12.410156.855468 18.398437l19.253906 9.414063c6.203126-12.40625 5.5625-27.167969-1.925781-39.148438zm0 0" fill="#3e5959"/><path d="m347.136719 183.824219h-127.285157l-6.632812-13.261719-11.765625-23.53125-19.253906 9.410156 18.824219 37.4375-43 67.386719 17.96875 11.550781 36.15625-56.6875 1.066406 2.136719 33.160156 66.53125 17.328125 2.78125 69.953125-73.375 29.734375 100.972656 20.535156-5.992187zm-88.351563 77.867187-28.238281-56.472656h82.144531zm0 0" fill="#ff641a"/><path d="m347.136719 183.824219h-127.285157l-6.632812-13.261719v47.703125l33.15625 66.53125 17.328125 2.78125 69.953125-73.375 29.738281 100.972656 20.535157-5.992187zm-88.351563 77.867187-28.238281-56.472656h82.144531zm0 0" fill="#f03800"/><path d="m170.433594 141.039062h74.875v21.394532h-74.875zm0 0" fill="#537983"/><path d="m373.660156 333.570312c-11.792968 0-21.390625-9.597656-21.390625-21.390624 0-11.792969 9.597657-21.394532 21.390625-21.394532 11.792969 0 21.394532 9.601563 21.394532 21.394532 0 11.792968-9.601563 21.390624-21.394532 21.390624zm0 0" fill="#575f64"/><path d="m137.675781 376.367188c-6.457031 0-13.007812-.960938-19.492187-2.894532-20.472656-6.101562-36.683594-22.78125-42.316406-43.527344-5.441407-19.992187-1.515626-40.664062 10.75-56.71875 12.261718-16.03125 30.855468-25.222656 51.015624-25.222656 20.378907 0 39.085938 9.355469 51.339844 25.660156l-17.113281 12.851563c-16.25-21.644531-51.796875-21.8125-68.25-.292969-8.1875 10.714844-10.78125 24.609375-7.101563 38.113282 3.65625 13.453124 14.558594 24.695312 27.785157 28.640624 12.28125 3.636719 24.847656 2.214844 35.316406-4.082031 10.308594-6.183593 17.578125-16.441406 19.949219-28.152343l20.972656 4.265624c-3.570312 17.566407-14.476562 32.964844-29.914062 42.230469-10.066407 6.046875-21.359376 9.128907-32.941407 9.128907zm0 0" fill="#537983"/><path d="m256.003906 269.394531h-85.570312c-16.585938 0-32.085938 13.226563-32.085938 32.085938 0 17.695312 14.464844 32.089843 32.085938 32.089843h85.570312c17.621094 0 32.085938-14.394531 32.085938-32.089843.003906-17.621094-14.390625-32.085938-32.085938-32.085938zm0 0" fill="#c5d3dd"/><path d="m288.09375 301.484375c0 17.691406-14.46875 32.085937-32.089844 32.085937h-42.785156v-64.175781h42.785156c17.585938 0 32.089844 14.355469 32.089844 32.089844zm0 0" fill="#9facba"/></svg>