<svg height="512pt" viewBox="0 0 512 512" width="512pt" xmlns="http://www.w3.org/2000/svg"><path d="m512 256c0 141.386719-114.613281 256-256 256s-256-114.613281-256-256 114.613281-256 256-256 256 114.613281 256 256zm0 0" fill="#61d7a8"/><path d="m507.847656 209.871094-101.839844-101.839844-51.621093 51.621094-187.886719 26.347656-44.828125-42.570312-14.453125 14.453124-3.199219 73.984376 123.3125 123.132812-26.148437 50.183594-10.5-10.5-15.300782 15.300781 101.191407 101.191406c131.765625-10.480469 235.425781-120.71875 235.425781-255.175781 0-15.75-1.429688-31.164062-4.152344-46.128906zm0 0" fill="#00ab94"/><g fill="#537983"><path d="m230.617188 325.746094-2.160157 4.035156-32.011719 62.523438h-21.074218v17.695312h32.011718l44.21875-85.488281zm0 0"/><path d="m246.152344 312.085938h17.695312v97.914062h-17.695312zm0 0"/><path d="m246.152344 240.714844h17.695312v53.675781h-17.695312zm0 0"/></g><path d="m255 240.714844h8.847656v53.675781h-8.847656zm0 0" fill="#3e5959"/><path d="m112.847656 161.085938h71.371094v53.085937h-71.371094zm0 0" fill="#eebf00"/><path d="m175.371094 143.390625v88.476563h159.257812v-88.476563zm0 0" fill="#ffda2d"/><path d="m255 143.390625h79.628906v88.476563h-79.628906zm0 0" fill="#eebf00"/><path d="m316.933594 125.695312h80.21875v123.867188h-80.21875zm0 0" fill="#dc9e00"/><path d="m388.304688 108h17.695312v159.257812h-17.695312zm0 0" fill="#3e5959"/><path d="m255 196.476562c-14.6875 0-26.542969 11.855469-26.542969 26.542969s11.855469 26.542969 26.542969 26.542969 26.542969-11.855469 26.542969-26.542969-11.855469-26.542969-26.542969-26.542969zm0 0" fill="#c5d3dd"/><path d="m228.457031 285.542969v44.238281h53.085938v-44.238281zm0 0" fill="#c5d3dd"/><path d="m104 143.390625h17.695312v88.476563h-17.695312zm0 0" fill="#537983"/><path d="m313.554688 392.304688-32.011719-62.523438-24.558594-8.097656 45.632813 88.316406h33.074218v-17.695312zm0 0" fill="#3e5959"/><path d="m255 312.085938h8.847656v97.914062h-8.847656zm0 0" fill="#3e5959"/><path d="m255 249.5625v-53.085938c14.6875 0 26.542969 11.855469 26.542969 26.542969s-11.855469 26.542969-26.542969 26.542969zm0 0" fill="#9facba"/><path d="m255 285.542969h26.542969v44.238281h-26.542969zm0 0" fill="#9facba"/><path d="m263.847656 223.019531c0 4.953125-3.890625 8.847657-8.847656 8.847657s-8.847656-3.894532-8.847656-8.847657 3.890625-8.847656 8.847656-8.847656 8.847656 3.890625 8.847656 8.847656zm0 0" fill="#537983"/><path d="m255 231.867188v-17.695313c4.953125 0 8.847656 3.890625 8.847656 8.847656 0 4.953125-3.894531 8.847657-8.847656 8.847657zm0 0" fill="#3e5959"/></svg>