<svg height="512pt" viewBox="0 0 512 512" width="512pt" xmlns="http://www.w3.org/2000/svg"><path d="m512 256c0 141.386719-114.613281 256-256 256s-256-114.613281-256-256 114.613281-256 256-256 256 114.613281 256 256zm0 0" fill="#ffda2d"/><path d="m511.996094 255.582031-91.390625-91.390625-11.207031 11.207032-3.347657-3.347657-17.371093 17.375-102.089844-102.09375-37.242188 37.242188-77.992187 40.511719-37.242188 37.242187 45.136719 44.421875-83.886719 31.847656 102.070313 102.070313-3.175782 3.175781-23.03125-23.027344-11.703124 11.707032 23.027343 23.027343-16.167969 16.167969-15.664062-15.667969-16.605469 16.605469 98.246094 98.246094c7.785156.714844 15.667969 1.097656 23.640625 1.097656 141.386719 0 256-114.613281 256-256 0-.140625-.003906-.277344-.003906-.417969zm0 0" fill="#eebf00"/><path d="m229.40625 87.332031h57.1875v315.804688h-57.1875zm0 0" fill="#b35f49"/><path d="m258 87.332031h28.59375v315.804688h-28.59375zm0 0" fill="#99503d"/><path d="m375.804688 126.09375h-241.710938v76.25h241.710938l44.863281-38.125zm0 0" fill="#ff9100"/><path d="m140.195312 240.46875-44.863281 38.125 44.863281 38.125h241.710938v-76.25zm0 0" fill="#ff9100"/><path d="m258 240.46875h123.90625v76.25h-123.90625zm0 0" fill="#ff641a"/><path d="m375.804688 202.34375h-117.804688v-76.25h117.804688l44.863281 38.125zm0 0" fill="#ff641a"/><path d="m192.285156 360.746094-10.535156 21.074218-10.535156-21.074218-17.054688 8.527344 19.0625 38.125h17.054688l19.0625-38.125zm0 0" fill="#00ab94"/><path d="m344.785156 360.746094-10.535156 21.074218-10.535156-21.074218-17.054688 8.527344 19.0625 38.125h17.054688l19.0625-38.125zm0 0" fill="#009184"/><path d="m134.09375 393.605469h247.8125v19.0625h-247.8125zm0 0" fill="#61d7a8"/><path d="m258 393.605469h123.90625v19.0625h-123.90625zm0 0" fill="#00ab94"/></svg>