<svg height="512pt" viewBox="0 0 512 512" width="512pt" xmlns="http://www.w3.org/2000/svg"><path d="m512 256c0 141.386719-114.613281 256-256 256s-256-114.613281-256-256 114.613281-256 256-256 256 114.613281 256 256zm0 0" fill="#537983"/><path d="m511.933594 250.6875-155.679688-155.679688-69.207031 69.203126-69.210937-69.210938-36.417969 36.417969 105.941406 105.941406-165.667969 165.664063 107.589844 107.59375c8.785156.910156 17.695312 1.382812 26.71875 1.382812 141.386719 0 256-114.613281 256-256 0-1.777344-.03125-3.546875-.066406-5.3125zm0 0" fill="#3e5959"/><path d="m286.417969 124.476562c-9.386719 4.691407-19.3125 7.21875-29.417969 7.21875s-20.03125-2.527343-29.414062-7.21875l-22.019532-11.550781 51.433594 123.441407 51.433594-123.441407zm0 0" fill="#ff641a"/><path d="m308.433594 112.925781-51.433594 123.441407v-104.671876c10.105469 0 20.03125-2.527343 29.417969-7.21875zm0 0" fill="#f03800"/><path d="m338.210938 258.023438v18.046874h31.941406l22.199218 18.046876v18.046874l-18.046874 18.046876h-36.09375v18.046874h41.867187l12.273437 18.046876v36.695312h-270.703124v-36.695312l21.65625-18.046876h32.484374v-18.046874h-38.078124l-16.0625-18.046876v-18.046874l20.03125-18.046876h34.109374v-18.046874h-37.175781l-16.964843-18.046876v-36.09375h9.023437c14.976563 0 27.070313-12.09375 27.070313-27.070312v-81.8125h60.09375l39.164062 94.445312 39.160156-94.445312h60.097656v81.8125c0 14.976562 12.089844 27.070312 27.070313 27.070312h9.023437v36.09375l-22.199218 18.046876zm0 0" fill="#ff9100"/><path d="m338.210938 258.023438v18.046874h31.941406l22.199218 18.046876v18.046874l-18.046874 18.046876h-36.09375v18.046874h41.867187l12.273437 18.046876v36.695312h-135.351562v-213.554688l39.160156-94.445312h60.097656v81.8125c0 14.976562 12.089844 27.070312 27.070313 27.070312h9.023437v36.09375l-22.199218 18.046876zm0 0" fill="#ff641a"/><path d="m184.8125 330.210938h54.140625v18.046874h-54.140625zm0 0" fill="#575f64"/><path d="m184.8125 258.023438h54.140625v18.046874h-54.140625zm0 0" fill="#575f64"/><path d="m275.046875 330.210938h54.140625v18.046874h-54.140625zm0 0" fill="#32393f"/><path d="m275.046875 258.023438h54.140625v18.046874h-54.140625zm0 0" fill="#32393f"/><path d="m229.929688 312.164062v54.140626h54.140624v-54.140626zm0 0" fill="#ffda2d"/><path d="m193.835938 366.304688h-72.1875v-54.140626h72.1875zm0 0" fill="#ffda2d"/><path d="m392.351562 366.304688h-72.1875v-54.140626h72.1875zm0 0" fill="#eebf00"/><path d="m229.929688 239.976562v54.140626h54.140624v-54.140626zm0 0" fill="#ffda2d"/><path d="m193.835938 294.117188h-72.1875v-54.140626h72.1875zm0 0" fill="#ffda2d"/><g fill="#eebf00"><path d="m392.351562 294.117188h-72.1875v-54.140626h72.1875zm0 0"/><path d="m257 239.976562h27.070312v54.140626h-27.070312zm0 0"/><path d="m257 312.164062h27.070312v54.140626h-27.070312zm0 0"/></g></svg>