<svg height="512pt" viewBox="0 0 512 512" width="512pt" xmlns="http://www.w3.org/2000/svg"><path d="m512 256c0 141.386719-114.613281 256-256 256s-256-114.613281-256-256 114.613281-256 256-256 256 114.613281 256 256zm0 0" fill="#ff641a"/><path d="m381.960938 133.121094-248.734376 248.738281 130.140626 130.140625c135.679687-3.78125 244.960937-113.132812 248.632812-248.839844zm0 0" fill="#f03800"/><path d="m421.097656 229.726562-34.019531-16.871093-1.085937-75.363281c-15.5-17.050782-34.507813-31.238282-56.429688-41.308594l-48.523438 3.234375-17.816406 35.96875-16.699218-28.632813-63.667969-10.539062c-20.265625 9.273437-38.71875 22.34375-54.292969 38.664062l-5.875 59.464844 22.472656 28.894531-52.503906 8.644531-12.402344 41.292969c2.429688 24.507813 10.671875 48.070313 22.621094 69.28125l75.042969 26.636719 13.292969-4.171875-3.335938 36.929687 32.929688 26.511719c11.597656 2.484375 23.40625 4.417969 35.003906 4.417969 11.804687 0 23.402344-2.347656 35-4.625l20.089844-23.613281 34.605468-46.082031 21.402344 12.789062 42.113281-28.660156c5.199219-9.203125 10.53125-18.839844 14.09375-29.183594 4.082031-11.863281 6.765625-23.867188 8.242188-35.847656zm0 0" fill="#deecf1"/><path d="m387.074219 212.855469-1.082031-75.363281c-15.5-17.050782-34.507813-31.238282-56.429688-41.308594l-48.523438 3.238281-17.816406 35.964844-7.210937-12.359375v309.738281c11.734375-.019531 23.265625-2.347656 34.796875-4.613281l20.089844-23.609375 34.601562-46.082031 21.402344 12.789062 42.117187-28.660156c5.199219-9.203125 10.527344-18.839844 14.089844-29.183594 4.082031-11.863281 6.765625-23.867188 8.242187-35.851562l-10.253906-47.832032zm0 0" fill="#c5d3dd"/><g fill="#537983"><path d="m102.871094 342.457031c20.410156 36.234375 53.460937 65.515625 95.78125 80.085938 7.308594 2.515625 14.671875 4.371093 22.050781 5.882812l-27.480469-86.320312zm0 0"/><path d="m128.5625 134.878906c-16.949219 17.757813-30.546875 39.214844-39.046875 63.898438-8.5 24.691406-11.6875 49.96875-9.265625 74.398437l75.261719-51.664062zm0 0"/><path d="m329.535156 96.15625-73.523437 53.851562-.207031-.207031-72.902344-53.644531c22.578125-10.355469 47.636718-16.636719 72.902344-16.636719 19.054687 0 38.523437 3.589844 57.578124 10.21875 5.589844 1.863281 10.976563 3.933594 16.152344 6.417969zm0 0"/></g><path d="m431.351562 277.558594c6.347657-51.566406-11.375-102.679688-45.359374-140.066406l-29.054688 86.488281zm0 0" fill="#3e5959"/><path d="m324.152344 234.921875-27.542969 78.289063-40.804687-.832032-40.796876-.828125-25.683593-77.871093 66.480469-49.914063zm0 0" fill="#537983"/><path d="m256.015625 150.007812-.207031-.207031v-70.28125c19.050781 0 38.519531 3.589844 57.574218 10.21875 5.59375 1.863281 10.976563 3.933594 16.15625 6.417969zm0 0" fill="#3e5959"/><path d="m324.152344 234.921875-27.542969 78.289063-40.804687-.832032v-128.613281zm0 0" fill="#3e5959"/><path d="m409.019531 342.589844-90.800781-.433594-27.460938 86.03125c49.078126-10.019531 92.785157-40.503906 118.261719-85.597656zm0 0" fill="#3e5959"/></svg>