<svg height="512pt" viewBox="0 0 512 512" width="512pt" xmlns="http://www.w3.org/2000/svg"><path d="m512 256c0 141.386719-114.613281 256-256 256s-256-114.613281-256-256 114.613281-256 256-256 256 114.613281 256 256zm0 0" fill="#ffda2d"/><path d="m502.636719 187.207031-91.390625-91.390625-54.28125 54.285156-67.625-13.6875 40.652344 40.65625-31.660157 33.265626-170.003906-44.601563 28 185-59.570313-5.632813 32.601563 32.601563-10.296875 10.296875 123.660156 123.660156c4.398438.226563 8.824219.339844 13.277344.339844 141.386719 0 256-114.613281 256-256 0-23.835938-3.269531-46.902344-9.363281-68.792969zm0 0" fill="#eebf00"/><path d="m139.589844 307.5-25.695313-156.734375 18.234375-2.660156 25.695313 156.738281zm0 0" fill="#537983"/><path d="m199.5 367.410156 2.65625-18.234375 156.738281 25.695313-2.660156 18.234375zm0 0" fill="#3e5959"/><path d="m364.078125 377.472656c-7.425781-7.425781-7.6875-26.191406-8.078125-47.953125-.652344-38.699219-1.433594-91.867187-44.042969-134.476562-42.613281-42.609375-95.777343-43.390625-134.476562-44.042969-21.761719-.390625-40.527344-.652344-47.953125-8.078125l-19.546875-19.546875-13.03125 13.03125 45.609375 45.609375c6.773437 6.773437 20.457031 10.03125 41.4375 14.851563 28.535156 6.90625 67.757812 16.160156 88.867187 37.269531 21.113281 21.109375 30.363281 60.332031 37.269531 88.871093 4.820313 20.976563 8.078126 34.660157 14.855469 41.4375l45.605469 45.605469 13.03125-13.03125zm0 0" fill="#c6715a"/><path d="m383.625 397.019531-13.03125 13.03125-45.609375-45.609375c-6.773437-6.773437-10.03125-20.457031-14.851563-41.4375-6.90625-28.535156-16.160156-67.757812-37.269531-88.867187l39.09375-39.09375c42.609375 42.613281 43.390625 95.777343 44.042969 134.476562.390625 21.761719.652344 40.527344 8.078125 47.953125zm0 0" fill="#b35f49"/><path d="m197.203125 296.761719 153.839844-153.839844 13.03125 13.03125-153.839844 153.839844zm0 0" fill="#537983"/><path d="m203.71875 303.277344 153.839844-153.839844 6.515625 6.515625-153.839844 153.839844zm0 0" fill="#3e5959"/><path d="m411.25 95.75-121.96875 40.65625 60.984375 20.328125 20.328125 60.984375zm0 0" fill="#c5d3dd"/><path d="m370.59375 217.71875-20.328125-60.984375 60.984375-60.984375zm0 0" fill="#9facba"/><path d="m212.976562 294.023438h-65.15625l-51.078124 51.082031 48.863281 16.285156 16.289062 48.867187 51.082031-51.082031zm0 0" fill="#61d7a8"/><path d="m112.503906 381.460938 52.125-52.125 13.03125 13.03125-52.125 52.121093zm0 0" fill="#00ab94"/><path d="m212.976562 294.023438v65.15625l-51.082031 51.078124-16.289062-48.863281zm0 0" fill="#00ab94"/><path d="m125.539062 394.496094-6.515624-6.515625 52.121093-52.125 6.515625 6.515625zm0 0" fill="#009184"/></svg>