<?xml version="1.0" encoding="iso-8859-1"?>
<!-- Generator: Adobe Illustrator 19.0.0, SVG Export Plug-In . SVG Version: 6.00 Build 0)  -->
<svg version="1.1" id="Layer_1" xmlns="http://www.w3.org/2000/svg" xmlns:xlink="http://www.w3.org/1999/xlink" x="0px" y="0px"
	 viewBox="0 0 512 512" style="enable-background:new 0 0 512 512;" xml:space="preserve">
<path style="fill:#34D8C7;" d="M508.692,214.85C489.006,93.033,383.376,0,256,0C114.615,0,0,114.616,0,256
	c0,22.461,2.903,44.241,8.336,64.998L508.692,214.85z"/>
<path style="fill:#0DC2AF;" d="M508.692,214.85L372.868,79.026v233.737L139.132,79.026v241.975h364.543
	C509.107,300.245,512,278.46,512,256C512,241.99,510.857,228.248,508.692,214.85z"/>
<polyline style="fill:#059866;" points="150.264,332.129 139.132,101.287 66.934,212.589 8.336,320.998 "/>
<g>
	<polygon style="fill:#02432C;" points="269.927,320.998 211.328,212.589 139.132,101.287 139.132,332.129 	"/>
	<polygon style="fill:#02432C;" points="383.998,332.129 372.868,101.287 300.672,212.589 242.072,320.998 	"/>
</g>
<polygon style="fill:#011911;" points="503.664,320.998 445.063,212.589 372.868,101.287 372.868,332.129 "/>
<path style="fill:#EDD4B8;" d="M211.478,66.783c0,24.588,19.933,44.522,44.522,44.522l11.13-44.522L256,22.261
	C231.412,22.261,211.478,42.194,211.478,66.783z"/>
<path style="fill:#ED9433;" d="M256,22.261v89.043c24.588,0,44.522-19.933,44.522-44.522S280.588,22.261,256,22.261z"/>
<polygon style="fill:#FFFFFF;" points="66.934,212.591 103.031,234.852 139.127,212.591 150.26,145.809 139.132,79.026 "/>
<polygon style="fill:#98F0E7;" points="139.132,79.026 139.127,212.591 175.229,234.852 211.329,212.591 "/>
<polygon style="fill:#FFFFFF;" points="300.671,212.591 336.768,234.852 372.864,212.591 383.997,145.809 372.868,79.026 "/>
<polygon style="fill:#5CEDDE;" points="372.868,79.026 372.864,212.591 408.966,234.852 445.066,212.591 "/>
<path style="fill:#046E4A;" d="M256,320.998L233.739,425.06c0.006-0.009,251.814-55.652,251.814-55.652
	c7.589-15.332,13.693-31.529,18.111-48.41H256z"/>
<path style="fill:#0DC2AF;" d="M458.351,345.043c-11.433,17.911-29.832,29.603-50.609,29.603c-20.76,0-39.108-11.691-50.558-29.603
	c-11.467,17.911-29.832,29.603-50.592,29.603c-20.777,0-39.125-11.691-50.574-29.603L256,345.11v-24.112H8.336
	c4.419,16.883,10.524,33.082,18.114,48.415L256.009,512c100.655-0.003,187.724-58.106,229.544-142.592
	C474.633,364.338,465.233,355.827,458.351,345.043z"/>
<path style="fill:#5CEDDE;" d="M205.426,374.646c-20.76,0-39.126-11.691-50.574-29.603c-11.467,17.911-29.832,29.603-50.591,29.603
	c-20.762,0-39.126-11.691-50.574-29.603c-6.885,10.785-16.299,19.3-27.234,24.37C68.272,453.899,155.344,512,256,512
	c0.003,0,0.017-166.957,0.017-166.957C244.585,362.955,226.186,374.646,205.426,374.646z"/>
<g>
</g>
<g>
</g>
<g>
</g>
<g>
</g>
<g>
</g>
<g>
</g>
<g>
</g>
<g>
</g>
<g>
</g>
<g>
</g>
<g>
</g>
<g>
</g>
<g>
</g>
<g>
</g>
<g>
</g>
</svg>
