<?xml version="1.0" encoding="iso-8859-1"?>
<!-- Generator: Adobe Illustrator 21.0.0, SVG Export Plug-In . SVG Version: 6.00 Build 0)  -->
<svg xmlns="http://www.w3.org/2000/svg" xmlns:xlink="http://www.w3.org/1999/xlink" version="1.1" id="Capa_1" x="0px" y="0px" viewBox="0 0 512 512" style="enable-background:new 0 0 512 512;" xml:space="preserve" width="512" height="512">
<g>
	<g>
		<g>
			<circle style="fill:#19CFFC;" cx="256" cy="256" r="256"/>
		</g>
	</g>
	<path style="fill:#00AAE5;" d="M311.031,96.307l-7.735,7.314L256,56.325L221.989,161l20.469,20.469L106.071,374.674   l137.002,137.002C247.355,511.889,251.665,512,256,512c128.33,0,234.6-94.429,253.131-217.592L311.031,96.307z"/>
	<g>
		<g>
			<path style="fill:#FF475A;" d="M105.954,374.885L105.954,374.885L256,104.545l150.046,270.342l0,0     C323.178,457.754,188.822,457.753,105.954,374.885z"/>
		</g>
	</g>
	<g>
		<g>
			<path style="fill:#D1093A;" d="M256,104.545v0.729v331.757c54.036,0.104,108.509-20.608,150.046-62.145l0,0L256,104.545z"/>
		</g>
	</g>
	<g>
		<polygon style="fill:#FFCE00;" points="256,56.325 273.005,90.782 311.031,96.307 283.515,123.128 290.011,161 256,143.119     221.989,161 228.485,123.128 200.969,96.307 238.995,90.782   "/>
	</g>
	<g>
		<polygon style="fill:#FFA300;" points="256,143.119 290.011,161 283.515,123.128 311.031,96.307 273.005,90.782 256,56.325   "/>
	</g>
	<g>
		<polygon style="fill:#FFFFFF;" points="297.1,178.596 192.633,218.714 169.389,260.593 312.176,205.759   "/>
	</g>
	<g>
		<path style="fill:#FFFFFF;" d="M197.002,428.697l196.935-75.629l-15.076-27.163L155.402,411.72    C168.748,418.911,182.699,424.572,197.002,428.697z"/>
	</g>
	<g>
		<polygon style="fill:#FFFFFF;" points="106.071,374.674 353.244,279.752 338.168,252.589 129.315,332.795   "/>
	</g>
	<g>
		<polygon style="fill:#E9EDF5;" points="297.1,178.596 256,194.38 256,227.333 312.176,205.759   "/>
	</g>
	<g>
		<polygon style="fill:#E9EDF5;" points="378.86,325.906 256,373.087 256,406.039 393.936,353.068   "/>
	</g>
	<g>
		<polygon style="fill:#E9EDF5;" points="338.168,252.589 256,284.143 256,317.095 353.244,279.752   "/>
	</g>
</g>















</svg>
