<?xml version="1.0" encoding="iso-8859-1"?>
<!-- Generator: Adobe Illustrator 19.0.0, SVG Export Plug-In . SVG Version: 6.00 Build 0)  -->
<svg version="1.1" id="Layer_1" xmlns="http://www.w3.org/2000/svg" xmlns:xlink="http://www.w3.org/1999/xlink" x="0px" y="0px"
	 viewBox="0 0 512 512" style="enable-background:new 0 0 512 512;" xml:space="preserve">
<circle style="fill:#FFE670;" cx="256" cy="256" r="256"/>
<path style="fill:#FFDB2D;" d="M512,256c0-5.269-0.178-10.495-0.492-15.685L400.026,128.833H111.971v51.586l37.386,37.644v27.802
	H49.282v47.352l73.016,70.199l-8.807,28.415l119.093,119.093C240.297,511.623,248.104,512,256,512C397.385,512,512,397.385,512,256z
	"/>
<g>
	<rect x="149.36" y="186.96" style="fill:#FF8900;" width="32.34" height="71.03"/>
	<polygon style="fill:#FF8900;" points="179.52,284.33 146.19,391.83 113.49,391.83 146.81,284.33 	"/>
</g>
<g>
	<rect x="330.3" y="186.96" style="fill:#E67500;" width="32.34" height="71.03"/>
	<polygon style="fill:#E67500;" points="398.5,391.83 365.8,391.83 332.48,284.33 365.18,284.33 	"/>
</g>
<rect x="124.64" y="170.79" style="fill:#FFA91F;" width="262.73" height="23.868"/>
<rect x="256" y="170.8" style="fill:#FF8900;" width="131.36" height="23.86"/>
<rect x="111.97" y="128.83" style="fill:#9A4C00;" width="288.06" height="51.586"/>
<rect x="256" y="128.83" style="fill:#743500;" width="144.03" height="51.59"/>
<rect x="49.28" y="245.87" style="fill:#9A4C00;" width="413.43" height="47.35"/>
<rect x="256" y="245.86" style="fill:#743500;" width="206.72" height="47.36"/>
<g>
</g>
<g>
</g>
<g>
</g>
<g>
</g>
<g>
</g>
<g>
</g>
<g>
</g>
<g>
</g>
<g>
</g>
<g>
</g>
<g>
</g>
<g>
</g>
<g>
</g>
<g>
</g>
<g>
</g>
</svg>
