<?xml version="1.0" encoding="iso-8859-1"?>
<!-- Generator: Adobe Illustrator 19.0.0, SVG Export Plug-In . SVG Version: 6.00 Build 0)  -->
<svg version="1.1" id="Capa_1" xmlns="http://www.w3.org/2000/svg" xmlns:xlink="http://www.w3.org/1999/xlink" x="0px" y="0px"
	 viewBox="0 0 512 512" style="enable-background:new 0 0 512 512;" xml:space="preserve">
<circle style="fill:#B9EAFF;" cx="256" cy="256" r="256"/>
<path style="fill:#35CCFF;" d="M510.776,281.077l-48.64-48.64l-44.228,54.48l-19.881-19.881l-0.238,0.293l-54.495-54.495
	l-285.438,43l66.498,66.498L57.855,354.5l153.593,153.628C225.918,510.667,240.803,512,256,512c18.03,0,35.621-1.877,52.598-5.423
	l0.003,0.002c0.157-0.033,0.312-0.07,0.469-0.103c1.51-0.318,3.016-0.646,4.516-0.991c0.099-0.023,0.198-0.047,0.297-0.07
	c10.319-2.385,20.403-5.382,30.202-8.973c0.017-0.012,0.033-0.026,0.05-0.038C434.585,463.235,501.109,380.489,510.776,281.077z"/>
<path style="fill:#590F38;" d="M424.411,211.8l-16.941,30.969c-20.707,37.851-58.344,62.883-100.565,67.819v-59.869h-43V311.5
	H137.244v-60.782h-43V311.5H57.855v43h233.669c64.047,0,122.93-34.906,153.669-91.095l16.942-30.969L424.411,211.8z"/>
<path style="fill:#3A0926;" d="M424.411,211.8l-16.941,30.969c-20.707,37.851-58.344,62.883-100.565,67.819v-59.869h-43V311.5H206
	v43h85.525c64.047,0,122.93-34.906,153.669-91.095l16.942-30.969L424.411,211.8z"/>
<rect x="57.855" y="212.83" style="fill:#983262;" width="285.44" height="43"/>
<rect x="206" y="212.83" style="fill:#662E57;" width="137.29" height="43"/>
<g>
</g>
<g>
</g>
<g>
</g>
<g>
</g>
<g>
</g>
<g>
</g>
<g>
</g>
<g>
</g>
<g>
</g>
<g>
</g>
<g>
</g>
<g>
</g>
<g>
</g>
<g>
</g>
<g>
</g>
</svg>
