<?xml version="1.0" encoding="iso-8859-1"?>
<!-- Generator: Adobe Illustrator 21.0.0, SVG Export Plug-In . SVG Version: 6.00 Build 0)  -->
<svg xmlns="http://www.w3.org/2000/svg" xmlns:xlink="http://www.w3.org/1999/xlink" version="1.1" id="Capa_1" x="0px" y="0px" viewBox="0 0 512 512" style="enable-background:new 0 0 512 512;" xml:space="preserve" width="512" height="512">
<g>
	<g>
		<circle style="fill:#2864F0;" cx="256" cy="256" r="256"/>
	</g>
	<path style="fill:#27488F;" d="M512,256c0-5.743-0.209-11.437-0.581-17.086l-97.672-97.672L49.572,322.076l189.343,189.343   C244.563,511.791,250.257,512,256,512C397.385,512,512,397.385,512,256z"/>
	<g>
		<path style="fill:#FFCE00;" d="M447.428,307.076V204.923c-26.886,0-48.681-21.795-48.681-48.681H113.253    c0,26.886-21.795,48.681-48.681,48.681v102.153c26.886,0,48.681,21.795,48.681,48.681h285.494    C398.747,328.872,420.542,307.076,447.428,307.076z"/>
		<path style="fill:#FFA300;" d="M398.747,156.242H255.595v199.515h143.152c0-26.886,21.795-48.681,48.681-48.681V204.923    C420.542,204.923,398.747,183.128,398.747,156.242z"/>
		<path style="fill:#FFCE00;" d="M113.253,156.242c0,26.886-21.795,48.681-48.681,48.681v102.153    c26.886,0,48.681,21.795,48.681,48.681h142.342V156.242H113.253z"/>
		<path style="fill:#FFFFFF;" d="M413.747,370.758H98.253v-15c0-18.572-15.109-33.681-33.681-33.681h-15V189.924h15    c18.572,0,33.681-15.109,33.681-33.681v-15h315.494v15c0,18.572,15.109,33.681,33.681,33.681h15v132.153h-15    c-18.572,0-33.681,15.109-33.681,33.681V370.758z M126.469,340.758h259.063c5.596-23.088,23.809-41.302,46.897-46.897v-75.721    c-23.088-5.595-41.301-23.809-46.897-46.897H126.469c-5.596,23.088-23.809,41.302-46.897,46.897v75.721    C102.66,299.456,120.873,317.669,126.469,340.758z"/>
		<path style="fill:#FFFFFF;" d="M126.469,340.758c-5.596-23.088-23.809-41.302-46.897-46.897v-75.721    c23.088-5.595,41.301-23.809,46.897-46.897h129.126v-30H98.253v15c0,18.572-15.109,33.681-33.681,33.681h-15v132.153h15    c18.572,0,33.681,15.109,33.681,33.681v15h157.342v-30H126.469z"/>
		<path style="fill:#E9EDF5;" d="M447.428,189.924c-18.572,0-33.681-15.109-33.681-33.681v-15H255.595v30h129.936    c5.596,23.088,23.809,41.302,46.897,46.897v75.721c-23.088,5.595-41.301,23.809-46.897,46.897H255.595v30h158.152v-15    c0-18.572,15.109-33.681,33.681-33.681h15V189.924H447.428z"/>
	</g>
	<g>
		<path style="fill:#FF475A;" d="M99.244,227.754H150.4v13.448h-17.164v41.014h-16.829v-41.014H99.244V227.754z"/>
		<path style="fill:#FF475A;" d="M158.684,227.754h16.866v54.463h-16.866V227.754z"/>
		<path style="fill:#FF475A;" d="M223.882,259.926l14.749,4.458c-0.991,4.136-2.551,7.592-4.681,10.365    c-2.13,2.774-4.773,4.867-7.931,6.279c-3.158,1.412-7.177,2.117-12.055,2.117c-5.92,0-10.755-0.86-14.507-2.58    s-6.991-4.745-9.715-9.077c-2.725-4.332-4.086-9.876-4.086-16.633c0-9.009,2.396-15.933,7.188-20.772s11.572-7.258,20.34-7.258    c6.86,0,12.253,1.387,16.179,4.161c3.925,2.774,6.841,7.034,8.749,12.78l-14.86,3.306c-0.52-1.659-1.065-2.873-1.634-3.641    c-0.941-1.287-2.093-2.278-3.455-2.972c-1.362-0.693-2.886-1.04-4.569-1.04c-3.814,0-6.737,1.534-8.768,4.602    c-1.536,2.276-2.303,5.851-2.303,10.723c0,6.036,0.916,10.174,2.749,12.412c1.833,2.239,4.408,3.358,7.727,3.358    c3.22,0,5.653-0.904,7.3-2.712C221.944,265.995,223.139,263.369,223.882,259.926z"/>
		<path style="fill:#FF475A;" d="M246.878,227.754h16.829v20.582l17.628-20.582h22.382l-19.874,20.557l20.766,33.906h-20.725    l-11.483-22.398l-8.695,9.108v13.29h-16.829V227.754z"/>
		<polygon style="fill:#D1093A;" points="283.844,248.311 303.718,227.754 281.335,227.754 263.707,248.335 263.707,227.754     255.595,227.754 255.595,282.217 263.707,282.217 263.707,268.927 272.402,259.819 283.885,282.217 304.609,282.217   "/>
		<path style="fill:#D1093A;" d="M310.145,227.754h45.101v11.628h-28.234v8.656h26.191v11.108h-26.191v10.736h29.051v12.334h-45.917    V227.754z"/>
		<path style="fill:#D1093A;" d="M361.3,227.754h51.156v13.448h-17.164v41.014h-16.829v-41.014H361.3V227.754z"/>
	</g>
</g>















</svg>
