<?xml version="1.0" encoding="iso-8859-1"?>
<!-- Generator: Adobe Illustrator 19.0.0, SVG Export Plug-In . SVG Version: 6.00 Build 0)  -->
<svg version="1.1" id="Layer_1" xmlns="http://www.w3.org/2000/svg" xmlns:xlink="http://www.w3.org/1999/xlink" x="0px" y="0px"
	 viewBox="0 0 512 512" style="enable-background:new 0 0 512 512;" xml:space="preserve">
<circle style="fill:#FFB74F;" cx="256" cy="256" r="256"/>
<path style="fill:#FF9A00;" d="M511.794,265.815L332.978,86.998l-62.171,94.034l-91.784-94.034L94.76,214.445l34.756,29.131
	l-61.088,99.37l168.337,168.337C243.115,511.754,249.529,512,256,512C394.097,512,506.634,402.649,511.794,265.815z"/>
<rect x="148.48" y="333.57" style="fill:#C06100;" width="61.09" height="81.1"/>
<rect x="179.02" y="333.57" style="fill:#703700;" width="30.545" height="81.1"/>
<polygon style="fill:#00A753;" points="210.621,214.447 263.285,214.447 179.023,87 94.76,214.447 147.424,214.447 68.428,342.948 
	289.617,342.948 "/>
<polygon style="fill:#007F40;" points="289.617,342.946 179.023,342.946 179.023,86.998 263.285,214.445 210.621,214.445 "/>
<rect x="302.43" y="333.57" style="fill:#C06100;" width="61.09" height="81.1"/>
<rect x="332.98" y="333.57" style="fill:#703700;" width="30.545" height="81.1"/>
<polygon style="fill:#00A753;" points="364.576,214.447 417.24,214.447 332.978,87 248.715,214.447 301.379,214.447 
	222.383,342.948 443.572,342.948 "/>
<polygon style="fill:#007F40;" points="443.572,342.946 332.978,342.946 332.978,86.998 417.24,214.445 364.576,214.445 "/>
<g>
</g>
<g>
</g>
<g>
</g>
<g>
</g>
<g>
</g>
<g>
</g>
<g>
</g>
<g>
</g>
<g>
</g>
<g>
</g>
<g>
</g>
<g>
</g>
<g>
</g>
<g>
</g>
<g>
</g>
</svg>
