<svg height="512pt" viewBox="0 0 512 512" width="512pt" xmlns="http://www.w3.org/2000/svg"><path d="m512 256c0 141.386719-114.613281 256-256 256s-256-114.613281-256-256 114.613281-256 256-256 256 114.613281 256 256zm0 0" fill="#ffda2d"/><path d="m273.214844 511.410156c132.589844-8.804687 237.558594-118.546875 238.757812-253.085937l-126.585937-126.582031-88.820313 88.820312-39.65625-39.65625-153.03125 153.03125 51.257813 51.261719-4.066407 4.066406zm0 0" fill="#eebf00"/><path d="m314.3125 317.570312v20.523438c0 39.613281-32.222656 71.839844-71.835938 71.839844h-41.050781c-39.613281 0-71.835937-32.226563-71.835937-71.839844h20.523437c0 28.324219 22.988281 51.3125 51.3125 51.3125h41.050781c28.324219 0 51.308594-22.988281 51.308594-51.3125v-20.523438zm0 0" fill="#537983"/><path d="m221.949219 369.566406c-17.035157 0-30.785157 13.75-30.785157 30.785156 0 17.035157 13.75 30.789063 30.785157 30.789063 17.035156 0 30.789062-13.753906 30.789062-30.789063 0-17.035156-13.753906-30.785156-30.789062-30.785156zm0 0" fill="#61d7a8"/><path d="m314.3125 317.570312v20.523438c0 39.613281-32.222656 71.839844-71.835938 71.839844h-20.527343v-20.527344h20.527343c28.324219 0 51.308594-22.988281 51.308594-51.3125v-20.523438zm0 0" fill="#3e5959"/><path d="m409.753906 161.785156c-36.535156-56.851562-100.984375-87.707031-168.304687-79.703125-6.566407.820313-13.136719 2.050781-19.5 3.488281-77.378907 18.679688-134.09375 91.609376-134.09375 175.964844v28.941406c0 26.683594 12.792969 47.003907 32.90625 54.390626 6.363281 2.261718 12.726562 3.492187 19.089843 3.492187 10.464844 0 20.726563-3.082031 29.347657-9.238281 13.75-9.644532 21.960937-25.449219 21.960937-42.28125 0-8.003906 3.082032-15.597656 8.828125-21.34375 5.953125-5.953125 13.75-9.234375 21.960938-9.234375h20.527343c5.746094 0 10.261719 4.511719 10.261719 10.261719 0 28.324218 22.988281 51.3125 51.3125 51.3125 28.320313 0 51.308594-22.988282 51.308594-51.3125 0-5.75 4.515625-10.261719 10.261719-10.261719h72.523437v-10.265625c0-33.660156-10.328125-66.296875-28.390625-94.210938zm0 0" fill="#61d7a8"/><path d="m438.144531 255.996094v10.261718h-72.519531c-5.746094 0-10.261719 4.515626-10.261719 10.261719 0 28.324219-22.988281 51.3125-51.3125 51.3125s-51.3125-22.988281-51.3125-51.3125c0-5.75-4.515625-10.261719-10.261719-10.261719h-20.527343v-180.6875c6.363281-1.4375 12.933593-2.667968 19.5-3.488281 67.320312-8.007812 131.769531 22.851563 168.304687 79.703125 18.0625 27.914063 28.390625 60.550782 28.390625 94.210938zm0 0" fill="#00ab94"/><path d="m355.363281 204.683594c-11.316406 0-20.527343-9.210938-20.527343-20.527344 0-11.3125 9.210937-20.523438 20.527343-20.523438 11.3125 0 20.523438 9.210938 20.523438 20.523438 0 11.316406-9.210938 20.527344-20.523438 20.527344zm0 0" fill="#3e5959"/><path d="m293.785156 163.632812c-11.3125 0-20.523437-9.210937-20.523437-20.523437 0-11.316406 9.210937-20.527344 20.523437-20.527344 11.316406 0 20.527344 9.210938 20.527344 20.527344 0 11.3125-9.210938 20.523437-20.527344 20.523437zm0 0" fill="#3e5959"/><path d="m252.738281 400.355469c0 17.035156-13.75 30.785156-30.789062 30.785156v-61.574219c17.035156 0 30.789062 13.75 30.789062 30.789063zm0 0" fill="#00ab94"/></svg>