<svg height="512pt" viewBox="0 0 512 512" width="512pt" xmlns="http://www.w3.org/2000/svg"><path d="m512 256c0 141.386719-114.613281 256-256 256s-256-114.613281-256-256 114.613281-256 256-256 256 114.613281 256 256zm0 0" fill="#ff641a"/><path d="m512 256c0-4.09375-.105469-8.15625-.296875-12.203125l-121.730469-121.730469-101.140625 101.140625-99.6875-99.6875-73.476562-8.519531 7.917969 74.082031 99.6875 99.6875-101.167969 101.167969 121.765625 121.769531c4.023437.1875 8.0625.292969 12.128906.292969 141.386719 0 256-114.613281 256-256zm0 0" fill="#f03800"/><path d="m338.160156 338.160156c-19.339844 19.335938-42.851562 33.746094-70.40625 43.355469l-47.398437-22.121094-74.449219-74.449219-15.421875-40.699218c9.609375-27.558594 24.019531-51.066406 43.355469-70.40625 19.339844-19.335938 42.851562-33.746094 70.40625-43.355469l28.566406 3.289063 104.785156 104.785156 3.917969 29.195312c-9.609375 27.554688-24.015625 51.066406-43.355469 70.40625zm0 0" fill="#c6715a"/><path d="m338.160156 338.160156c-19.339844 19.335938-42.851562 33.746094-70.40625 43.355469l-47.398437-22.121094-33.875-33.875 139.039062-139.039062 52.074219 52.074219 3.917969 29.199218c-9.605469 27.554688-24.011719 51.066406-43.351563 70.40625zm0 0" fill="#99503d"/><path d="m186.476562 312.878906 126.398438-126.398437 12.640625 12.640625-126.398437 126.398437zm0 0" fill="#f6a96c"/><path d="m123.539062 189.203125c-21.714843-38.128906-25.835937-64.34375-12.257812-77.921875s39.796875-9.457031 77.925781 12.253906l-8.851562 15.542969c-31.511719-17.949219-51.046875-20.546875-56.433594-15.15625-5.390625 5.386719-2.789063 24.921875 15.15625 56.433594zm0 0" fill="#deecf1"/><path d="m322.796875 388.460938 8.847656-15.539063c31.511719 17.945313 51.046875 20.546875 56.433594 15.15625 5.390625-5.386719 2.792969-24.921875-15.15625-56.433594l15.542969-8.851562c21.710937 38.132812 25.832031 64.347656 12.253906 77.925781s-39.792969 9.457031-77.921875-12.257812zm0 0" fill="#c5d3dd"/><path d="m319.199219 192.796875 6.320312 6.320313-126.398437 126.398437-6.320313-6.320313zm0 0" fill="#ea9b58"/><path d="m204.933594 394.53125c-26.417969 2.152344-55.742188 1.140625-82.917969-4.550781-5.5625-27.300781-6.699219-56.75-4.550781-82.917969l36.402344 11.125 32.359374 32.359375c8.089844 19.210937 17.824219 42.34375 18.707032 43.984375zm0 0" fill="#c6715a"/><path d="m394.53125 204.933594-15.417969 9.859375-81.273437-81.273438 9.226562-16.050781c42.722656-3.539062 75.710938 3.160156 77.230469 3.410156l5.6875 1.136719 1.136719 5.6875c.25 1.519531 6.949218 34.507813 3.410156 77.230469zm0 0" fill="#c6715a"/><path d="m186.226562 350.546875c8.089844 19.210937 17.824219 42.34375 18.707032 43.984375-26.417969 2.152344-55.742188 1.140625-82.917969-4.550781l51.824219-51.820313zm0 0" fill="#99503d"/><path d="m379.113281 214.792969-40.953125-40.953125 51.824219-51.824219 1.136719 5.6875c.25 1.519531 6.949218 34.507813 3.410156 77.230469zm0 0" fill="#99503d"/><path d="m381.515625 267.753906-137.269531-137.269531c19.84375-6.949219 41.332031-11.25 58.648437-12.636719l4.171875-.382812 87.46875 87.46875-.382812 4.171875c-1.894532 24.394531-6.824219 41.207031-12.636719 58.648437zm0 0" fill="#fed2a4"/><path d="m130.484375 244.246094c-6.824219 19.464844-10.867187 38.929687-12.636719 58.648437l-.382812 4.171875 87.46875 87.46875 4.171875-.382812c25.40625-2.398438 39.691406-6.316406 58.648437-12.636719zm0 0" fill="#fed2a4"/><path d="m199.121094 312.878906 68.632812 68.636719c-18.957031 6.320313-33.242187 10.238281-58.648437 12.636719l-4.171875.382812-43.734375-43.734375zm0 0" fill="#ffbd86"/><path d="m381.515625 267.753906-68.636719-68.632812 37.921875-37.921875 43.730469 43.734375-.378906 4.171875c-1.894532 24.394531-6.824219 41.207031-12.636719 58.648437zm0 0" fill="#ffbd86"/><g fill="#fed2a4"><path d="m255.996094 218.082031 12.640625-12.640625 37.921875 37.917969-12.640625 12.640625zm0 0"/><path d="m230.714844 243.359375 12.640625-12.640625 37.921875 37.921875-12.640625 12.640625zm0 0"/><path d="m205.4375 268.640625 12.640625-12.640625 37.917969 37.917969-12.640625 12.640625zm0 0"/></g><path d="m287.597656 224.398438 18.960938 18.957031-12.640625 12.640625-18.957031-18.960938zm0 0" fill="#ffbd86"/><path d="m262.320312 249.675781 18.957032 18.960938-12.636719 12.640625-18.960937-18.960938zm0 0" fill="#ffbd86"/><path d="m237.039062 274.957031 18.960938 18.957031-12.640625 12.640626-18.960937-18.957032zm0 0" fill="#ffbd86"/></svg>