<svg height="512pt" viewBox="0 0 512 512" width="512pt" xmlns="http://www.w3.org/2000/svg"><path d="m512 256c0 141.386719-114.613281 256-256 256s-256-114.613281-256-256 114.613281-256 256-256 256 114.613281 256 256zm0 0" fill="#61d7a8"/><path d="m381.960938 133.121094-248.734376 248.738281 130.140626 130.140625c135.679687-3.78125 244.960937-113.132812 248.632812-248.839844zm0 0" fill="#00ab94"/><path d="m384.835938 375.71875-19.265626-3.726562 4.351563 18.226562c-30.65625 26.097656-70.632813 42.53125-113.921875 42.53125-43.496094 0-83.265625-16.433594-114.128906-42.738281l1.035156-14.5-15.945312.207031c-29.207032-31.277344-47.710938-73.53125-47.710938-119.71875 0-46.191406 18.503906-88.445312 47.710938-119.722656l17.1875-.621094-2.277344-13.667969c30.863281-26.304687 70.632812-42.738281 114.128906-42.738281 43.289062 0 83.265625 16.433594 113.921875 42.53125l-.828125 16.363281 15.742188-1.867187c29.410156 31.277344 47.914062 73.53125 47.914062 119.722656 0 46.1875-18.503906 88.441406-47.914062 119.71875zm0 0" fill="#deecf1"/><path d="m384.835938 375.71875-19.265626-3.726562 4.351563 18.226562c-30.65625 26.097656-70.632813 42.53125-113.921875 42.53125v-353.5c43.289062 0 83.265625 16.433594 113.921875 42.53125l-.828125 16.363281 15.742188-1.867187c29.410156 31.277344 47.914062 73.53125 47.914062 119.722656 0 46.1875-18.503906 88.441406-47.914062 119.71875zm0 0" fill="#c5d3dd"/><path d="m204.21875 256c0 52.195312-23.613281 101.285156-62.347656 134.011719-5.175782-4.347657-10.148438-9.113281-14.910156-14.292969 35.210937-29.203125 56.542968-72.90625 56.542968-119.71875 0-47.226562-21.539062-90.929688-56.542968-119.722656 4.761718-5.175782 9.730468-9.941406 14.910156-14.289063 38.527344 32.519531 62.347656 81.398438 62.347656 134.011719zm0 0" fill="#ff641a"/><path d="m384.835938 375.71875c-4.558594 5.179688-9.734376 9.945312-14.914063 14.5-39.355469-33.140625-62.140625-81.609375-62.140625-134.21875 0-52.613281 23.199219-101.285156 62.140625-134.21875 5.175781 4.554688 10.355469 9.320312 14.914063 14.496094-35.421876 29-56.339844 72.496094-56.339844 119.722656s20.710937 90.515625 56.339844 119.71875zm0 0" fill="#f03800"/><path d="m351.121094 280.828125 5.359375 20.007813-60.023438 16.082031-5.359375-20.003907zm0 0" fill="#f03800"/><path d="m215.546875 195.0625 5.359375 20.003906-60.023438 16.082032-5.359374-20.003907zm0 0" fill="#ff641a"/><path d="m318.613281 363.355469-10.355469-17.941407 53.804688-31.066406 10.355469 17.941406zm0 0" fill="#f03800"/><path d="m149.9375 197.652344-10.355469-17.941406 53.804688-31.066407 10.355469 17.941407zm0 0" fill="#ff641a"/><path d="m296.464844 195.058594 60.023437 16.085937-5.363281 20.007813-60.023438-16.089844zm0 0" fill="#f03800"/><path d="m160.890625 280.835938 60.023437 16.089843-5.359374 20.003907-60.027344-16.089844zm0 0" fill="#ff641a"/><path d="m362.0625 197.652344-53.804688-31.066406 10.355469-17.941407 53.804688 31.066407zm0 0" fill="#f03800"/><path d="m193.386719 363.355469-53.804688-31.066407 10.355469-17.941406 53.804688 31.066406zm0 0" fill="#ff641a"/><path d="m287.070312 245.644531h62.136719v20.710938h-62.136719zm0 0" fill="#f03800"/><path d="m162.792969 245.644531h62.136719v20.710938h-62.136719zm0 0" fill="#ff641a"/></svg>