<svg height="512pt" viewBox="0 0 512 512" width="512pt" xmlns="http://www.w3.org/2000/svg"><path d="m512 256c0 141.386719-114.613281 256-256 256s-256-114.613281-256-256 114.613281-256 256-256 256 114.613281 256 256zm0 0" fill="#ff641a"/><path d="m512 256c0-7.792969-.367188-15.496094-1.050781-23.109375l-114.035157-114.039063-29.03125-16.96875-259.035156 305.035157 100.90625 100.90625c15 2.738281 30.453125 4.175781 46.246094 4.175781 141.386719 0 256-114.613281 256-256zm0 0" fill="#f03800"/><path d="m375.316406 181.441406-94.546875 94.546875-27.609375-.273437-13.667968-13.667969.273437-27.0625 94.410156-94.410156c-.957031 10.796875 2.730469 21.867187 10.933594 30.070312 8.335937 8.335938 19.410156 11.753907 30.207031 10.796875zm0 0" fill="#61d7a8"/><path d="m375.316406 181.441406-94.546875 94.546875-27.609375-.273437-6.5625-6.5625 98.511719-98.507813c8.335937 8.335938 19.410156 11.753907 30.207031 10.796875zm0 0" fill="#00ab94"/><path d="m195.617188 320.136719c2.046874-11.070313 7.515624-21.1875 15.578124-29.25l31.164063-31.164063-71.621094-35.8125-4.648437 3.007813c-53.851563 35.8125-78.867188 94.996093-57.269532 180.015625 87.339844 22.277344 144.613282-4.101563 180.011719-57.273438l3.007813-4.648437-35.808594-71.621094-31.164062 31.164063c-8.066407 8.066406-18.179688 13.53125-29.25 15.582031zm0 0" fill="#c5d3dd"/><path d="m197.527344 277.21875c-19.40625 19.410156-22.140625 38.816406-22.140625 63.148438h9.566406c20.367187.136718 39.367187-7.929688 53.582031-22.144532l42.234375-42.234375-41.140625-41.140625zm0 0" fill="#537983"/><path d="m256.03125 273.390625 35.808594 71.621094-3.007813 4.648437c-35.398437 53.171875-92.671875 79.550782-180.011719 57.273438l86.792969-86.796875c11.074219-2.050781 21.1875-7.515625 29.25-15.582031zm0 0" fill="#9facba"/><path d="m175.386719 340.367188 84.878906-84.882813 20.503906 20.503906-42.234375 42.238281c-14.214844 14.214844-33.214844 22.277344-53.582031 22.140626zm0 0" fill="#3e5959"/><path d="m338.273438 109.136719c-18.863282 18.863281-18.863282 49.480469 0 68.339843 19.136718 19.136719 49.617187 18.726563 68.34375 0l24.464843-24.464843-68.34375-68.339844c-2.730469 2.730469-24.464843 24.464844-24.464843 24.464844zm65.472656 43.875-10.796875 10.796875c-11.484375 11.484375-29.796875 11.210937-41.007813 0-11.34375-11.34375-11.34375-29.660156 0-41.003906l10.800782-10.796876zm0 0" fill="#537983"/><path d="m396.910156 118.839844 34.171875 34.171875-24.464843 24.464843c-18.726563 18.726563-49.207032 19.136719-68.34375 0l13.667968-13.667968c11.210938 11.210937 29.523438 11.484375 41.007813 0l10.796875-10.796875-20.503906-20.503907zm0 0" fill="#3e5959"/></svg>