<svg height="512pt" viewBox="0 0 512 512" width="512pt" xmlns="http://www.w3.org/2000/svg"><path d="m512 256c0 141.386719-114.613281 256-256 256s-256-114.613281-256-256 114.613281-256 256-256 256 114.613281 256 256zm0 0" fill="#ffda2d"/><path d="m388.976562 141.410156-20.28125 20.285156-29.988281-29.988281-49.117187-11.617187-16.253906 16.253906 30.367187 30.367188-74.550781 74.546874-84.199219-84.199218-40.945313 40.949218 16.25 16.25-12.839843 12.835938 38.75 38.742188-56.902344 43.039062 15.296875 56.972656 146.085938 146.085938c1.78125.035156 3.5625.066406 5.351562.066406 138.609375 0 251.476562-110.164062 255.851562-247.714844zm0 0" fill="#eebf00"/><path d="m203.257812 259.203125 25.84375-2.179687c.886719-1.226563 1.542969-2.570313 2.578126-3.671876l4.117187-4.378906-1.765625-5.742187c-1.332031-4.289063-2.027344-9.101563-2.027344-13.894531 0-12.753907 4.703125-24.972657 13.238282-34.386719l15.648437-17.273438-101.789063.011719c-2.320312-.445312-8.019531-7.265625-11.359374-14.601562l-2.765626-6.074219h-58.308593v10.332031c0 25.011719 10.796875 72.324219 51.660156 72.324219l4.015625-.109375c11.957031-.40625 36.816406-1.675782 60.835938 19.671875zm0 0" fill="#f03800"/><path d="m377.339844 384.316406c-34.183594 0-61.992188-27.808594-61.992188-61.992187 0-34.183594 27.808594-61.992188 61.992188-61.992188s61.992187 27.808594 61.992187 61.992188c0 34.183593-27.804687 61.992187-61.992187 61.992187zm0-103.320312c-22.792969 0-41.328125 18.535156-41.328125 41.328125s18.535156 41.328125 41.328125 41.328125c22.792968 0 41.328125-18.535156 41.328125-41.328125s-18.535157-41.328125-41.328125-41.328125zm0 0" fill="#3e5959"/><path d="m367.351562 324.957031-22.824218-84.128906 19.976562-5.265625 22.824219 84.128906zm0 0" fill="#9facba"/><path d="m148.660156 384.316406c-34.1875 0-61.992187-27.808594-61.992187-61.992187 0-34.183594 27.808593-61.992188 61.992187-61.992188 21.804688 0 41.609375 11.128907 52.972656 29.773438l-17.640624 10.757812c-7.585938-12.441406-20.792969-19.867187-35.332032-19.867187-22.792968 0-41.328125 18.535156-41.328125 41.328125s18.535157 41.328125 41.328125 41.328125c19.652344 0 36.707032-13.964844 40.539063-33.214844l20.261719 4.035156c-5.742188 28.878906-31.320313 49.84375-60.800782 49.84375zm0 0" fill="#537983"/><path d="m377.339844 342.988281c-11.390625 0-20.664063-9.273437-20.664063-20.664062s9.273438-20.664063 20.664063-20.664063 20.664062 9.273438 20.664062 20.664063-9.269531 20.664062-20.664062 20.664062zm0 0" fill="#9facba"/><path d="m341.730469 186.148438c-13.84375-18.597657-34.921875-29.136719-58.066407-29.136719-7.027343 0-14.050781 1.03125-20.664062 3.097656-12.8125 3.71875-24.382812 10.953125-33.0625 20.871094-11.984375 13.226562-18.597656 30.378906-18.597656 48.355469 0 7.023437 1.03125 13.636718 2.894531 20.042968l5.992187 19.011719 12.191407-15.910156c4.339843-5.582031 9.503906-10.539063 15.703125-14.464844 4.960937-3.308594 9.917968-6.199219 14.878906-8.679687 14.671875-7.234376 29.136719-11.367188 42.152344-15.085938 13.433594-3.925781 25.003906-7.234375 34.097656-13.433594l8.886719-5.992187zm0 0" fill="#ff641a"/><path d="m165.808594 322.324219h-6.816406c-5.789063 0-10.332032-4.546875-10.332032-10.332031h-20.664062c0 13.019531 8.058594 24.175781 19.421875 28.722656l18.390625-9.898438zm0 0" fill="#c5d3dd"/><path d="m248.121094 292.359375-2.273438-7.230469h-58.753906l-26.65625 37.195313-13.019531 18.390625c3.515625 1.445312 7.441406 2.273437 11.574219 2.273437h73.011718l19.542969-35.007812c-.773437-5.28125-1.894531-10.488281-3.425781-15.621094zm0 0" fill="#c5d3dd"/><path d="m348.136719 194.824219-8.886719 5.996093c-9.089844 6.199219-20.664062 9.503907-34.09375 13.429688-13.019531 3.722656-27.484375 7.851562-42.15625 15.085938v-69.226563c6.613281-2.0625 13.640625-3.097656 20.664062-3.097656 23.144532 0 44.222657 10.539062 58.066407 29.136719zm0 0" fill="#f03800"/><path d="m417.980469 208.671875v30.996094h-10.332031c-23.96875 0-43.394532 2.894531-59.097657 8.679687-39.265625 13.429688-54.554687 43.1875-54.554687 84.308594v10.332031h-61.992188v-20.664062c0-27.6875-11.984375-45.667969-28.722656-63.023438 9.296875-16.121093 17.976562-28.3125 33.269531-38.644531 8.886719-5.992188 17.769531-10.539062 26.449219-14.257812 13.226562-5.578126 25.625-9.089844 36.371094-12.191407 18.597656-5.164062 35.953125-8.058593 35.953125-26.863281 0-22.109375-6.40625-29.753906-10.332031-30.996094l-7.851563-14.878906 7.851563-5.785156h1.242187c50.625.621094 91.746094 42.363281 91.746094 92.988281zm0 0" fill="#ff9100"/><path d="m417.980469 208.671875v30.996094h-10.332031c-23.96875 0-43.394532 2.894531-59.097657 8.679687-39.265625 13.429688-54.554687 43.1875-54.554687 84.308594v10.332031h-30.996094v-136.589843c13.226562-5.578126 25.621094-9.089844 36.367188-12.191407 18.597656-5.167969 35.957031-8.058593 35.957031-26.863281 0-22.109375-6.40625-29.753906-10.332031-30.996094l-7.851563-14.878906 7.851563-5.785156h1.238281c50.628906.621094 91.75 42.363281 91.75 92.988281zm0 0" fill="#ff641a"/><path d="m273.332031 115.683594h51.660157v20.664062h-51.660157zm0 0" fill="#575f64"/></svg>