<?xml version="1.0" encoding="iso-8859-1"?>
<!-- Generator: Adobe Illustrator 19.0.0, SVG Export Plug-In . SVG Version: 6.00 Build 0)  -->
<svg version="1.1" id="Layer_1" xmlns="http://www.w3.org/2000/svg" xmlns:xlink="http://www.w3.org/1999/xlink" x="0px" y="0px"
	 viewBox="0 0 512 512" style="enable-background:new 0 0 512 512;" xml:space="preserve">
<circle style="fill:#FF9451;" cx="256" cy="256" r="256"/>
<path style="fill:#F7674F;" d="M498.612,174.087l-71.945-71.945l-171.815,8.983L99.7,119.237l1.724,133.315l-32.13,126.998
	L194.22,504.477C214.006,509.38,234.696,512,256,512c141.384,0,256-114.616,256-256C512,227.352,507.292,199.806,498.612,174.087z"
	/>
<polygon style="fill:#FFECB3;" points="170.667,113.778 256,312.889 142.222,312.889 142.222,113.778 "/>
<polygon style="fill:#FFD863;" points="341.333,113.778 256,312.889 369.778,312.889 369.778,113.778 "/>
<path style="fill:#758F9A;" d="M379.53,142.222l23.568-23.568l-9.752-9.752l-23.568,23.568l-23.568-23.568l-4.877,4.875
	l-4.877-4.877l-24.429,24.431l-24.429-24.429l-4.877,4.875l-4.877-4.877l-22.706,22.707l-22.706-22.706l-4.877,4.875l-4.877-4.877
	l-24.429,24.431l-24.429-24.429l-4.877,4.875l-4.877-4.877l-23.568,23.569l-23.569-23.569l-9.752,9.752l23.568,23.569
	l-23.568,23.568l6.601,6.601v5.172h284.444v-6.896l4.877-4.877L379.53,142.222z M341.333,123.53l18.691,18.692l-19.553,19.554
	l-18.692-18.692L341.333,123.53z M369.778,151.974l11.795,11.797h-23.593L369.778,151.974z M322.96,163.771H301.09l10.936-10.935
	L322.96,163.771z M282.721,123.53l19.553,19.554l-17.829,17.83L264.89,141.36L282.721,123.53z M267.795,163.771h-25.317
	l12.66-12.659L267.795,163.771z M227.556,123.53l17.829,17.83l-19.553,19.554l-17.83-17.83L227.556,123.53z M209.182,163.771
	h-21.869l10.936-10.935L209.182,163.771z M168.943,123.53l19.553,19.554l-18.691,18.692l-19.554-19.554L168.943,123.53z
	 M152.293,163.771h-23.592l11.797-11.797L152.293,163.771z"/>
<path style="fill:#4B7689;" d="M403.097,118.653l-9.752-9.752l-23.568,23.569l-23.568-23.568l-4.877,4.875l-4.877-4.877
	l-24.429,24.431l-24.429-24.429l-4.877,4.875l-4.877-4.877l-22.706,22.707l-0.286-0.286V151.4l0.286-0.288l12.657,12.659H254.85
	v13.791h143.372v-6.896l4.877-4.877l-23.569-23.568L403.097,118.653z M264.89,141.36l17.83-17.83l19.553,19.554l-17.829,17.83
	L264.89,141.36z M301.092,163.771l10.935-10.935l10.933,10.935H301.092z M321.779,143.084l19.554-19.554l18.691,18.692
	l-19.553,19.554L321.779,143.084z M381.573,163.771h-23.593l11.797-11.797L381.573,163.771z"/>
<path style="fill:#008CC3;" d="M85.333,102.141v279.273h341.333V102.141H85.333z M113.778,305.249V127.529h284.444v177.719H113.778z
	"/>
<polygon style="fill:#0074A3;" points="426.667,102.141 254.85,102.141 254.85,127.529 398.222,127.529 398.222,305.249 
	254.85,305.249 254.85,381.414 426.667,381.414 "/>
<path style="fill:#175D76;" d="M135.647,381.414H73.873c-3.631,0-6.575-2.944-6.575-6.575v-99.237c0-3.631,2.944-6.575,6.575-6.575
	h61.774c3.631,0,6.575,2.944,6.575,6.575v99.237C142.222,378.47,139.278,381.414,135.647,381.414z"/>
<path style="fill:#00263F;" d="M135.647,269.028h-31.925v112.385h31.925c3.631,0,6.575-2.944,6.575-6.575v-99.235
	C142.222,271.972,139.278,269.028,135.647,269.028z"/>
<circle style="fill:#4B7689;" cx="104.76" cy="306.493" r="28.096"/>
<path style="fill:#175D76;" d="M104.76,278.394c-0.35,0-0.691,0.04-1.038,0.052v56.089c0.348,0.012,0.688,0.052,1.038,0.052
	c15.517,0,28.096-12.579,28.096-28.096C132.856,290.973,120.277,278.394,104.76,278.394z"/>
<circle style="fill:#758F9A;" cx="104.76" cy="306.493" r="14.048"/>
<g>
	<path style="fill:#4B7689;" d="M104.76,292.442c-0.35,0-0.695,0.028-1.038,0.053v27.991c0.345,0.026,0.688,0.053,1.038,0.053
		c7.759,0,14.048-6.289,14.048-14.048C118.808,298.732,112.518,292.442,104.76,292.442z"/>
	<circle style="fill:#4B7689;" cx="104.76" cy="353.314" r="14.048"/>
	<path style="fill:#4B7689;" d="M90.712,353.318c0,7.408,5.739,13.462,13.01,13.996v-27.991
		C96.449,339.854,90.712,345.909,90.712,353.318z"/>
</g>
<path style="fill:#175D76;" d="M104.76,339.27c-0.35,0-0.695,0.028-1.038,0.053v27.991c0.345,0.026,0.688,0.053,1.038,0.053
	c7.759,0,14.048-6.289,14.048-14.048S112.518,339.27,104.76,339.27z"/>
<circle style="fill:#758F9A;" cx="104.76" cy="353.314" r="9.082"/>
<path style="fill:#4B7689;" d="M104.76,344.236c-0.355,0-0.693,0.065-1.038,0.105v17.954c0.345,0.04,0.683,0.105,1.038,0.105
	c5.015,0,9.082-4.067,9.082-9.082S109.775,344.236,104.76,344.236z"/>
<path style="fill:#175D76;" d="M438.125,381.414h-61.774c-3.631,0-6.575-2.944-6.575-6.575v-99.237c0-3.631,2.944-6.575,6.575-6.575
	h61.774c3.631,0,6.575,2.944,6.575,6.575v99.237C444.7,378.47,441.758,381.414,438.125,381.414z"/>
<path style="fill:#00263F;" d="M438.125,269.028h-31.572v112.385h31.572c3.631,0,6.575-2.944,6.575-6.575v-99.235
	C444.7,271.972,441.758,269.028,438.125,269.028z"/>
<circle style="fill:#4B7689;" cx="407.238" cy="306.493" r="28.096"/>
<path style="fill:#175D76;" d="M407.24,278.394c-0.231,0-0.455,0.029-0.684,0.034v56.123c0.229,0.005,0.453,0.034,0.684,0.034
	c15.517,0,28.096-12.579,28.096-28.096C435.336,290.973,422.757,278.394,407.24,278.394z"/>
<circle style="fill:#758F9A;" cx="407.238" cy="306.493" r="14.048"/>
<g>
	<path style="fill:#4B7689;" d="M407.24,292.442c-0.231,0-0.457,0.024-0.684,0.034v28.027c0.229,0.01,0.453,0.034,0.684,0.034
		c7.759,0,14.048-6.289,14.048-14.048C421.288,298.732,414.998,292.442,407.24,292.442z"/>
	<circle style="fill:#4B7689;" cx="407.238" cy="353.314" r="14.048"/>
	<path style="fill:#4B7689;" d="M393.19,353.318c0,7.527,5.925,13.655,13.364,14.014v-28.027"/>
</g>
<path style="fill:#175D76;" d="M407.24,339.27c-0.231,0-0.457,0.024-0.684,0.034v28.027c0.229,0.01,0.453,0.034,0.684,0.034
	c7.759,0,14.048-6.289,14.048-14.048S414.998,339.27,407.24,339.27z"/>
<circle style="fill:#758F9A;" cx="407.238" cy="353.314" r="9.082"/>
<path style="fill:#4B7689;" d="M407.24,344.236c-0.234,0-0.455,0.052-0.684,0.069v18.025c0.229,0.017,0.45,0.069,0.684,0.069
	c5.015,0,9.082-4.067,9.082-9.082S412.255,344.236,407.24,344.236z"/>
<g>
</g>
<g>
</g>
<g>
</g>
<g>
</g>
<g>
</g>
<g>
</g>
<g>
</g>
<g>
</g>
<g>
</g>
<g>
</g>
<g>
</g>
<g>
</g>
<g>
</g>
<g>
</g>
<g>
</g>
</svg>
