<svg viewBox="0 0 512 512" xmlns="http://www.w3.org/2000/svg"><path d="m512 256c0 141.386719-114.613281 256-256 256s-256-114.613281-256-256 114.613281-256 256-256 256 114.613281 256 256zm0 0" fill="#2864f0"/><path d="m512 256c0-18.78125-2.042969-37.085938-5.882812-54.714844l-81.117188-81.121094-52.867188 84.746094h-177.152343l-84.742188-84.746094-23.238281 265.117188 122.488281 122.492188c15.085938 2.769531 30.628907 4.226562 46.511719 4.226562 141.386719 0 256-114.613281 256-256zm0 0" fill="#0053bf"/><path d="m425 262.824219c-108.910156-41.152344-229.089844-41.152344-338 0 0-39.078125 0-78.160157 0-117.242188 108.910156-41.152343 229.089844-41.152343 338 0zm0 0" fill="#fff"/><path d="m255.605469 114.71875v117.246094c57.40625-.050782 114.816406 10.238281 169.394531 30.859375 0-39.082031 0-78.160157 0-117.242188-54.578125-20.625-111.988281-30.910156-169.394531-30.863281zm0 0" fill="#dce1eb"/><path d="m87 120.164062h23.238281v265.117188h-23.238281zm0 0" fill="#ffce00"/><path d="m401.761719 120.164062h23.238281v265.117188h-23.238281zm0 0" fill="#fa0"/></svg>