<?xml version="1.0" encoding="iso-8859-1"?>
<!-- Generator: Adobe Illustrator 19.0.0, SVG Export Plug-In . SVG Version: 6.00 Build 0)  -->
<svg version="1.1" id="Capa_1" xmlns="http://www.w3.org/2000/svg" xmlns:xlink="http://www.w3.org/1999/xlink" x="0px" y="0px"
	 viewBox="0 0 512 512" style="enable-background:new 0 0 512 512;" xml:space="preserve">
<circle style="fill:#183889;" cx="256" cy="267" r="245"/>
<path style="fill:#FF8C1A;" d="M393.636,411.432c-4.143,0-7.5-3.357-7.5-7.5v-18.666c0-4.143,3.357-7.5,7.5-7.5s7.5,3.357,7.5,7.5
	v18.666C401.136,408.074,397.778,411.432,393.636,411.432z"/>
<path style="fill:#EF8318;" d="M393.718,446.432c-4.143,0-7.5-3.357-7.5-7.5v-9c0-4.143,3.357-7.5,7.5-7.5s7.5,3.357,7.5,7.5v9
	C401.218,443.074,397.86,446.432,393.718,446.432z"/>
<path style="fill:#FF8C1A;" d="M393.675,318.094c-1.482,0-2.768-1.026-3.096-2.474c-2.559-11.321-3.988-12.752-15.309-15.31
	c-1.447-0.327-2.473-1.611-2.473-3.095s1.025-2.768,2.473-3.094c11.32-2.558,12.75-3.989,15.309-15.312
	c0.328-1.445,1.615-2.473,3.096-2.472c1.482-0.001,2.768,1.026,3.094,2.474c2.561,11.32,3.99,12.751,15.313,15.309
	c1.443,0.327,2.471,1.61,2.473,3.096c-0.002,1.482-1.027,2.768-2.475,3.095c-11.32,2.557-12.752,3.987-15.311,15.308
	C396.444,317.067,395.157,318.094,393.675,318.094z"/>
<g>
	<path style="fill:#EF8318;" d="M396.903,309.404c-2.559-11.321-3.988-12.752-15.309-15.31c-0.722-0.163-1.339-0.564-1.775-1.11
		c-1.311,0.38-2.813,0.745-4.549,1.138c-1.447,0.325-2.473,1.61-2.473,3.094s1.025,2.768,2.473,3.095
		c11.32,2.558,12.75,3.988,15.309,15.31c0.328,1.447,1.613,2.474,3.096,2.474s2.77-1.026,3.094-2.475
		c0.392-1.733,0.758-3.233,1.136-4.543C397.418,310.647,397.055,310.074,396.903,309.404z"/>
	<path style="fill:#EF8318;" d="M394.649,259.066c-4.143,0-7.5-3.357-7.5-7.5V235.5c0-4.143,3.357-7.5,7.5-7.5s7.5,3.357,7.5,7.5
		v16.066C402.149,255.709,398.792,259.066,394.649,259.066z"/>
</g>
<g>
	<path style="fill:#FFAF10;" d="M432.342,280.302c-2.395,0-4.748-1.145-6.2-3.271c-2.336-3.421-1.457-8.087,1.964-10.423
		l13.27-9.061c3.421-2.337,8.087-1.458,10.423,1.964c2.336,3.421,1.457,8.087-1.964,10.423l-13.27,9.062
		C435.271,279.878,433.799,280.302,432.342,280.302z"/>
	<path style="fill:#FFAF10;" d="M451.021,329.244c-0.907,0-1.83-0.166-2.727-0.516l-14.965-5.845
		c-3.858-1.507-5.765-5.856-4.258-9.715c1.508-3.857,5.856-5.762,9.715-4.258l14.965,5.845c3.858,1.507,5.765,5.856,4.258,9.715
		C456.852,327.433,454.02,329.244,451.021,329.244z"/>
	<path style="fill:#FFAF10;" d="M406.176,366.434c-3.414,0-6.5-2.347-7.301-5.815l-3.613-15.654
		c-0.932-4.036,1.585-8.063,5.621-8.994c4.035-0.933,8.063,1.585,8.994,5.621l3.613,15.654c0.932,4.036-1.585,8.063-5.621,8.994
		C407.302,366.37,406.734,366.434,406.176,366.434z"/>
	<path style="fill:#FFAF10;" d="M350.181,350.38c-1.817,0-3.639-0.656-5.081-1.984c-3.046-2.808-3.239-7.552-0.433-10.599
		l10.887-11.814c2.807-3.044,7.552-3.238,10.599-0.433c3.046,2.808,3.239,7.552,0.433,10.599l-10.887,11.813
		C354.22,349.566,352.203,350.38,350.181,350.38z"/>
	<path style="fill:#FFAF10;" d="M347.759,297.412c-0.362,0-0.728-0.026-1.097-0.08l-15.897-2.328
		c-4.099-0.601-6.935-4.409-6.334-8.508c0.6-4.099,4.418-6.933,8.508-6.334l15.896,2.328c4.099,0.601,6.935,4.409,6.334,8.508
		C354.624,294.728,351.42,297.412,347.759,297.412z"/>
</g>
<g>
	<path style="fill:#EF8318;" d="M416.117,265.016c-1.181,0-2.378-0.28-3.495-0.87c-3.663-1.934-5.065-6.471-3.13-10.134
		l7.502-14.207c1.933-3.662,6.47-5.065,10.134-3.13c3.663,1.934,5.065,6.471,3.13,10.134l-7.502,14.207
		C421.412,263.561,418.81,265.016,416.117,265.016z"/>
	<path style="fill:#EF8318;" d="M439.526,301.389c-3.762,0-7.006-2.825-7.442-6.652c-0.469-4.115,2.487-7.832,6.603-8.301
		l15.963-1.818c4.115-0.463,7.831,2.488,8.301,6.604c0.469,4.115-2.487,7.832-6.604,8.301l-15.963,1.818
		C440.097,301.372,439.81,301.389,439.526,301.389z"/>
	<path style="fill:#EF8318;" d="M433.213,353.392c-2.102,0-4.194-0.88-5.677-2.596l-10.506-12.155
		c-2.709-3.134-2.364-7.87,0.77-10.578s7.87-2.364,10.578,0.77l10.506,12.155c2.709,3.134,2.364,7.87-0.77,10.578
		C436.696,352.791,434.951,353.392,433.213,353.392z"/>
	<path style="fill:#EF8318;" d="M376.199,365.346c-0.636,0-1.281-0.081-1.924-0.252c-4.005-1.06-6.392-5.165-5.331-9.169
		l4.111-15.531c1.06-4.006,5.169-6.395,9.169-5.331c4.005,1.06,6.392,5.165,5.331,9.169l-4.111,15.531
		C382.555,363.124,379.52,365.346,376.199,365.346z"/>
	<path style="fill:#EF8318;" d="M334.167,325.004c-3.088,0-5.98-1.922-7.069-4.998c-1.383-3.905,0.661-8.191,4.565-9.573
		l15.143-5.362c3.906-1.385,8.191,0.661,9.573,4.565c1.383,3.905-0.661,8.191-4.565,9.573l-15.143,5.362
		C335.843,324.865,334.998,325.004,334.167,325.004z"/>
	<path style="fill:#EF8318;" d="M356.739,277.025c-1.536,0-3.085-0.471-4.42-1.446L339.35,266.1
		c-3.344-2.443-4.073-7.136-1.629-10.48c2.443-3.344,7.136-4.073,10.48-1.629l12.969,9.479c3.344,2.443,4.073,7.136,1.629,10.48
		C361.332,275.959,359.051,277.025,356.739,277.025z"/>
</g>
<path style="fill:#FFAF10;" d="M374.226,263.2c-2.778,0-5.447-1.549-6.746-4.214l-7.043-14.438
	c-1.816-3.723-0.271-8.213,3.452-10.028c3.728-1.816,8.215-0.269,10.028,3.452l7.043,14.438c1.816,3.723,0.271,8.213-3.452,10.028
	C376.449,262.955,375.328,263.2,374.226,263.2z"/>
<path style="fill:#6FE27F;" d="M99.46,423.609c-1.848,0-3.449-1.278-3.858-3.082c-3.188-14.107-4.97-15.891-19.076-19.077
	c-1.803-0.408-3.081-2.008-3.081-3.856c0-1.849,1.278-3.45,3.081-3.855c14.106-3.187,15.888-4.971,19.076-19.079
	c0.409-1.802,2.013-3.081,3.858-3.08c1.847-0.001,3.448,1.278,3.855,3.082c3.191,14.107,4.972,15.89,19.081,19.076
	c1.799,0.408,3.079,2.007,3.081,3.857c-0.002,1.848-1.28,3.449-3.083,3.857c-14.106,3.185-15.891,4.969-19.079,19.075
	C102.911,422.331,101.308,423.609,99.46,423.609z"/>
<path style="fill:#4CCC76;" d="M103.14,412.933c-3.188-14.107-4.97-15.891-19.076-19.077c-0.919-0.208-1.698-0.728-2.244-1.429
	c-1.545,0.435-3.291,0.859-5.293,1.312c-1.803,0.405-3.081,2.007-3.081,3.855c0,1.849,1.278,3.448,3.081,3.856
	c14.106,3.186,15.888,4.97,19.076,19.077c0.409,1.804,2.01,3.082,3.858,3.082c1.847,0,3.451-1.278,3.855-3.083
	c0.454-2.009,0.88-3.76,1.316-5.308C103.9,414.67,103.354,413.877,103.14,412.933z"/>
<g>
	<path style="fill:#00CCBD;" d="M100.675,348.21c-4.142,0-7.5-3.357-7.5-7.5v-20.02c0-4.143,3.358-7.5,7.5-7.5s7.5,3.357,7.5,7.5
		v20.02C108.175,344.853,104.817,348.21,100.675,348.21z"/>
	<path style="fill:#00CCBD;" d="M147.642,374.671c-2.395,0-4.748-1.145-6.201-3.271c-2.336-3.421-1.456-8.087,1.964-10.423
		l16.535-11.291c3.421-2.337,8.087-1.457,10.423,1.964s1.456,8.087-1.964,10.423l-16.535,11.291
		C150.57,374.247,149.098,374.671,147.642,374.671z"/>
	<path style="fill:#00CCBD;" d="M170.919,435.658c-0.908,0-1.83-0.166-2.727-0.516l-18.648-7.283
		c-3.858-1.507-5.765-5.857-4.257-9.715c1.507-3.858,5.855-5.763,9.714-4.258l18.648,7.283c3.858,1.507,5.765,5.857,4.257,9.715
		C176.75,433.847,173.918,435.658,170.919,435.658z"/>
	<path style="fill:#00CCBD;" d="M117.851,453.305c-0.931-4.036-4.959-6.554-8.995-5.621c-4.036,0.932-6.552,4.959-5.621,8.994
		l0.526,2.279c5.938,4.715,12.101,9.157,18.468,13.315L117.851,453.305z"/>
	<path style="fill:#00CCBD;" d="M53.436,370.588c-1.536,0-3.085-0.471-4.419-1.445l-16.16-11.811
		c-3.344-2.444-4.074-7.137-1.63-10.481c2.445-3.344,7.138-4.071,10.48-1.63l16.16,11.811c3.344,2.444,4.074,7.137,1.63,10.481
		C58.028,369.522,55.748,370.588,53.436,370.588z"/>
</g>
<g>
	<path style="fill:#6FE27F;" d="M127.428,355.623c-1.181,0-2.379-0.28-3.496-0.87c-3.663-1.934-5.064-6.471-3.13-10.134
		l9.349-17.704c1.935-3.663,6.472-5.064,10.134-3.13c3.663,1.934,5.064,6.471,3.13,10.134l-9.349,17.704
		C132.722,354.169,130.12,355.623,127.428,355.623z"/>
	<path style="fill:#6FE27F;" d="M156.599,400.947c-3.763,0-7.007-2.825-7.442-6.652c-0.469-4.115,2.487-7.832,6.603-8.301
		l19.892-2.266c4.12-0.454,7.833,2.488,8.3,6.604c0.469,4.115-2.487,7.832-6.603,8.301l-19.892,2.266
		C157.168,400.931,156.882,400.947,156.599,400.947z"/>
	<path style="fill:#6FE27F;" d="M148.728,465.749c-2.103,0-4.194-0.88-5.678-2.596l-13.091-15.147
		c-2.708-3.134-2.364-7.87,0.77-10.579c3.133-2.707,7.87-2.362,10.579,0.771l13.091,15.147c2.708,3.134,2.364,7.87-0.77,10.579
		C152.212,465.148,150.466,465.749,148.728,465.749z"/>
	<path style="fill:#6FE27F;" d="M43.319,381.07l-4.529-0.663c2.503,4.783,5.149,9.479,7.952,14.069
		c1.522-1.146,2.614-2.864,2.912-4.898C50.253,385.479,47.417,381.671,43.319,381.07z"/>
	<path style="fill:#6FE27F;" d="M75.223,353.36c-2.777,0-5.446-1.549-6.746-4.214l-8.776-17.99
		c-1.816-3.723-0.271-8.213,3.452-10.028c3.722-1.817,8.213-0.271,10.029,3.452l8.776,17.99c1.816,3.723,0.27,8.213-3.452,10.028
		C77.447,353.115,76.326,353.36,75.223,353.36z"/>
</g>
<path style="fill:#FFC610;" d="M407.5,111.5c-12.683,0-23-10.317-23-23s10.317-23,23-23s23,10.317,23,23S420.183,111.5,407.5,111.5z
	 M407.5,80.5c-4.411,0-8,3.589-8,8s3.589,8,8,8s8-3.589,8-8S411.911,80.5,407.5,80.5z"/>
<path style="fill:#6FE27F;" d="M286.5,395.5c-12.683,0-23-10.317-23-23s10.317-23,23-23s23,10.317,23,23S299.183,395.5,286.5,395.5z
	 M286.5,364.5c-4.411,0-8,3.589-8,8s3.589,8,8,8s8-3.589,8-8S290.911,364.5,286.5,364.5z"/>
<path style="fill:#FFFFFF;" d="M54.5,257.5c-12.682,0-23-10.317-23-23s10.318-23,23-23s23,10.317,23,23S67.182,257.5,54.5,257.5z
	 M54.5,226.5c-4.411,0-8,3.589-8,8s3.589,8,8,8s8-3.589,8-8S58.911,226.5,54.5,226.5z"/>
<path style="fill:#FFC248;" d="M210.987,339.728c-4.142,0-7.5-3.357-7.5-7.5V305.5c0-4.143,3.358-7.5,7.5-7.5s7.5,3.357,7.5,7.5
	v26.728C218.487,336.371,215.129,339.728,210.987,339.728z"/>
<path style="fill:#FFFFFF;" d="M211.078,378.699c-4.142,0-7.5-3.357-7.5-7.5v-10.281c0-4.143,3.358-7.5,7.5-7.5s7.5,3.357,7.5,7.5
	v10.281C218.578,375.342,215.22,378.699,211.078,378.699z"/>
<g>
	<path style="fill:#FFC610;" d="M211.078,423.238c-4.142,0-7.5-3.357-7.5-7.5v-6.947c0-4.143,3.358-7.5,7.5-7.5s7.5,3.357,7.5,7.5
		v6.947C218.578,419.881,215.22,423.238,211.078,423.238z"/>
	<path style="fill:#FFC610;" d="M216.737,169.982c-1.651,0-3.081-1.143-3.447-2.754c-2.849-12.605-4.441-14.199-17.046-17.047
		c-1.613-0.365-2.753-1.795-2.753-3.445c0-1.652,1.142-3.084,2.753-3.445c12.605-2.848,14.197-4.441,17.044-17.049
		c0.366-1.609,1.799-2.754,3.448-2.752c1.651-0.002,3.081,1.143,3.444,2.754c2.851,12.605,4.443,14.197,17.05,17.045
		c1.607,0.365,2.751,1.793,2.753,3.447c-0.002,1.65-1.144,3.082-2.755,3.445c-12.606,2.848-14.2,4.441-17.048,17.045
		C219.819,168.84,218.388,169.982,216.737,169.982z"/>
</g>
<path style="fill:#FFAF10;" d="M219.798,160.245c-2.849-12.605-4.441-14.199-17.046-17.047c-0.725-0.164-1.345-0.551-1.818-1.068
	c-1.371,0.385-2.918,0.761-4.69,1.161c-1.611,0.361-2.753,1.793-2.753,3.445c0,1.65,1.141,3.08,2.753,3.445
	c12.605,2.848,14.197,4.441,17.046,17.047c0.365,1.611,1.796,2.754,3.447,2.754s3.083-1.143,3.444-2.756
	c0.409-1.811,0.793-3.388,1.186-4.78C220.595,161.959,220.012,161.186,219.798,160.245z"/>
<path style="fill:#FFC248;" d="M217.821,103.406c-4.142,0-7.5-3.358-7.5-7.5v-17.89c0-4.143,3.358-7.5,7.5-7.5s7.5,3.357,7.5,7.5
	v17.891C225.321,100.049,221.963,103.406,217.821,103.406z"/>
<path style="fill:#FFFFFF;" d="M241.727,110.029c-1.181,0-2.379-0.28-3.496-0.87c-3.663-1.934-5.065-6.471-3.13-10.134l8.353-15.818
	c1.934-3.663,6.473-5.063,10.134-3.13c3.663,1.934,5.064,6.471,3.13,10.134l-8.353,15.818
	C247.02,108.575,244.418,110.029,241.727,110.029z"/>
<path style="fill:#FFC248;" d="M259.79,127.052c-2.395,0-4.748-1.145-6.201-3.272c-2.336-3.421-1.457-8.087,1.964-10.423
	l14.775-10.09c3.42-2.337,8.087-1.458,10.423,1.964c2.336,3.421,1.457,8.087-1.964,10.423l-14.775,10.09
	C262.719,126.628,261.247,127.052,259.79,127.052z"/>
<path style="fill:#FFFFFF;" d="M267.792,150.53c-3.762,0-7.007-2.825-7.442-6.652c-0.468-4.116,2.488-7.832,6.603-8.301
	l17.774-2.023c4.115-0.46,7.832,2.488,8.301,6.604c0.468,4.116-2.488,7.832-6.604,8.301l-17.774,2.023
	C268.362,150.514,268.075,150.53,267.792,150.53z"/>
<path style="fill:#FFC610;" d="M280.59,181.547c-0.907,0-1.83-0.166-2.727-0.516l-16.663-6.508
	c-3.858-1.507-5.765-5.856-4.258-9.715c1.508-3.857,5.854-5.762,9.715-4.258l16.663,6.508c3.858,1.507,5.765,5.856,4.258,9.715
	C286.421,179.735,283.589,181.547,280.59,181.547z"/>
<path style="fill:#FFFFFF;" d="M260.761,208.436c-2.103,0-4.194-0.88-5.677-2.596l-11.698-13.535
	c-2.708-3.134-2.364-7.87,0.77-10.579c3.135-2.707,7.87-2.362,10.579,0.77l11.699,13.535c2.708,3.134,2.363,7.87-0.771,10.579
	C264.244,207.835,262.499,208.436,260.761,208.436z"/>
<path style="fill:#FFC248;" d="M230.656,222.957c-3.414,0-6.501-2.347-7.301-5.815l-4.024-17.432
	c-0.931-4.036,1.586-8.063,5.622-8.994c4.033-0.931,8.063,1.585,8.995,5.621l4.023,17.432c0.931,4.036-1.585,8.063-5.622,8.994
	C231.783,222.894,231.215,222.957,230.656,222.957z"/>
<path style="fill:#FFC610;" d="M197.276,221.744c-0.636,0-1.281-0.081-1.925-0.252c-4.004-1.061-6.391-5.166-5.33-9.17l4.579-17.293
	c1.06-4.004,5.164-6.395,9.17-5.33c4.004,1.061,6.391,5.166,5.33,9.17l-4.579,17.293
	C203.632,219.523,200.596,221.744,197.276,221.744z"/>
<path style="fill:#FFFFFF;" d="M168.306,205.082c-1.817,0-3.639-0.656-5.081-1.985c-3.045-2.807-3.239-7.552-0.432-10.598
	l12.123-13.154c2.808-3.045,7.552-3.24,10.598-0.432c3.046,2.807,3.239,7.552,0.432,10.598l-12.124,13.154
	C172.345,204.269,170.328,205.082,168.306,205.082z"/>
<path style="fill:#FFC248;" d="M150.475,176.826c-3.088,0-5.98-1.922-7.07-4.999c-1.383-3.904,0.662-8.19,4.566-9.573l16.862-5.971
	c3.906-1.383,8.191,0.663,9.573,4.567c1.383,3.904-0.662,8.19-4.566,9.573l-16.862,5.971
	C152.151,176.688,151.306,176.826,150.475,176.826z"/>
<path style="fill:#FFFFFF;" d="M165.607,146.102c-0.361,0-0.727-0.026-1.096-0.08l-17.699-2.592
	c-4.098-0.601-6.934-4.409-6.334-8.508c0.6-4.098,4.404-6.932,8.508-6.334l17.699,2.592c4.098,0.601,6.934,4.409,6.334,8.508
	C172.472,143.418,169.268,146.102,165.607,146.102z"/>
<path style="fill:#FFC610;" d="M175.61,123.403c-1.536,0-3.085-0.471-4.42-1.445l-14.442-10.555
	c-3.344-2.444-4.074-7.137-1.63-10.481c2.445-3.344,7.138-4.07,10.48-1.63l14.442,10.555c3.344,2.444,4.074,7.137,1.63,10.481
	C180.203,122.337,177.922,123.403,175.61,123.403z"/>
<path style="fill:#FFFFFF;" d="M195.078,108.008c-2.777,0-5.446-1.55-6.746-4.214L180.49,87.72
	c-1.816-3.723-0.27-8.213,3.452-10.028c3.723-1.816,8.213-0.271,10.029,3.452l7.842,16.074c1.816,3.723,0.271,8.213-3.452,10.028
	C197.303,107.763,196.182,108.008,195.078,108.008z"/>
<path style="fill:#FFC610;" d="M218.933,51.246c-4.142,0-7.5-3.357-7.5-7.5V7.5c0-4.143,3.358-7.5,7.5-7.5s7.5,3.357,7.5,7.5v36.246
	C226.433,47.889,223.075,51.246,218.933,51.246z"/>
<path style="fill:#FFC248;" d="M267.375,64.668c-1.181,0-2.378-0.28-3.495-0.87c-3.663-1.934-5.065-6.471-3.13-10.134l16.924-32.053
	c1.933-3.662,6.47-5.064,10.134-3.13c3.663,1.934,5.064,6.471,3.13,10.134l-16.924,32.053
	C272.67,63.214,270.067,64.668,267.375,64.668z"/>
<path style="fill:#FFC610;" d="M303.964,99.153c-2.395,0-4.748-1.145-6.2-3.271c-2.336-3.42-1.457-8.087,1.964-10.423l29.934-20.443
	c3.417-2.337,8.087-1.458,10.423,1.964c2.336,3.42,1.457,8.087-1.964,10.423l-29.934,20.443
	C306.894,98.729,305.421,99.153,303.964,99.153z"/>
<path style="fill:#FFC248;" d="M320.192,146.727c-3.762,0-7.006-2.825-7.442-6.652c-0.469-4.115,2.488-7.832,6.603-8.301
	l36.012-4.102c4.102-0.457,7.831,2.487,8.301,6.604c0.469,4.115-2.488,7.832-6.603,8.301l-36.012,4.102
	C320.763,146.711,320.477,146.727,320.192,146.727z"/>
<path style="fill:#FFC610;" d="M346.112,209.57c-0.907,0-1.83-0.166-2.727-0.516l-33.761-13.186
	c-3.858-1.507-5.765-5.856-4.258-9.715c1.508-3.857,5.856-5.762,9.715-4.258l33.761,13.186c3.858,1.507,5.765,5.857,4.258,9.715
	C351.943,207.759,349.111,209.57,346.112,209.57z"/>
<path style="fill:#FFC248;" d="M305.933,264.053c-2.103,0-4.194-0.88-5.678-2.597l-23.698-27.424
	c-2.708-3.134-2.363-7.87,0.771-10.578c3.133-2.707,7.869-2.362,10.578,0.771l23.698,27.424c2.708,3.134,2.363,7.87-0.771,10.578
	C309.416,263.452,307.67,264.053,305.933,264.053z"/>
<path style="fill:#FFC610;" d="M244.949,293.473c-3.414,0-6.5-2.346-7.301-5.814l-8.155-35.318c-0.932-4.036,1.584-8.063,5.62-8.995
	c4.039-0.932,8.063,1.584,8.995,5.62l8.155,35.318c0.932,4.036-1.585,8.064-5.62,8.995
	C246.076,293.409,245.508,293.473,244.949,293.473z"/>
<path style="fill:#FFC248;" d="M177.302,291.018c-0.636,0-1.281-0.081-1.925-0.252c-4.004-1.06-6.391-5.166-5.33-9.17l9.278-35.039
	c1.06-4.005,5.164-6.393,9.17-5.33c4.004,1.061,6.391,5.166,5.33,9.17l-9.278,35.039
	C183.657,288.796,180.622,291.018,177.302,291.018z"/>
<path style="fill:#FFC610;" d="M118.611,257.256c-1.817,0-3.639-0.656-5.081-1.985c-3.045-2.807-3.239-7.552-0.432-10.598
	l24.563-26.652c2.807-3.045,7.552-3.239,10.598-0.432c3.045,2.807,3.239,7.552,0.432,10.598l-24.563,26.652
	C122.649,256.442,120.633,257.256,118.611,257.256z"/>
<path style="fill:#FFC248;" d="M82.481,200.006c-3.088,0-5.98-1.921-7.07-4.998c-1.383-3.904,0.661-8.19,4.565-9.573l34.164-12.102
	c3.907-1.386,8.191,0.661,9.574,4.565c1.383,3.904-0.661,8.19-4.565,9.573l-34.165,12.102
	C84.158,199.867,83.312,200.006,82.481,200.006z"/>
<path style="fill:#FFC610;" d="M113.131,137.757c-0.361,0-0.727-0.026-1.096-0.08l-35.861-5.25c-4.099-0.6-6.935-4.409-6.334-8.507
	c0.6-4.099,4.404-6.931,8.507-6.335l35.861,5.25c4.099,0.6,6.935,4.409,6.334,8.507
	C119.997,135.072,116.792,137.757,113.131,137.757z"/>
<path style="fill:#FFC248;" d="M133.414,91.763c-1.536,0-3.085-0.471-4.419-1.445l-29.26-21.386
	c-3.344-2.443-4.074-7.136-1.63-10.48c2.444-3.343,7.137-4.071,10.48-1.63l29.26,21.386c3.344,2.443,4.074,7.136,1.63,10.48
	C138.006,90.696,135.726,91.763,133.414,91.763z"/>
<path style="fill:#FFC610;" d="M172.849,60.57c-2.777,0-5.446-1.549-6.746-4.214l-15.89-32.57c-1.816-3.723-0.27-8.213,3.452-10.028
	c3.723-1.817,8.213-0.272,10.029,3.452l15.89,32.57c1.816,3.723,0.27,8.213-3.452,10.028
	C175.073,60.325,173.952,60.57,172.849,60.57z"/>
<path style="fill:#FFC248;" d="M211.08,458.603c-1.98,0-3.91-0.8-5.31-2.2c-1.39-1.39-2.19-3.32-2.19-5.3c0-1.98,0.8-3.91,2.19-5.3
	c1.4-1.4,3.33-2.2,5.31-2.2c1.97,0,3.9,0.8,5.3,2.2c1.4,1.39,2.2,3.319,2.2,5.3c0,1.97-0.8,3.91-2.2,5.3
	C214.98,457.804,213.05,458.603,211.08,458.603z"/>
<path style="fill:#00CCBD;" d="M318.752,464.492c-1.65,0-3.081-1.143-3.446-2.754c-2.849-12.605-4.44-14.199-17.046-17.047
	c-1.613-0.365-2.754-1.795-2.754-3.445c0-1.652,1.143-3.084,2.754-3.445c12.605-2.848,14.197-4.441,17.045-17.049
	c0.365-1.609,1.799-2.754,3.447-2.752c1.651-0.002,3.081,1.143,3.444,2.754c2.851,12.605,4.442,14.197,17.05,17.045
	c1.607,0.365,2.752,1.793,2.754,3.447c-0.002,1.65-1.145,3.082-2.756,3.445c-12.605,2.848-14.199,4.441-17.048,17.045
	C321.835,463.35,320.403,464.492,318.752,464.492z"/>
<path style="fill:#009186;" d="M321.307,455.739c-2.849-12.605-4.44-14.199-17.046-17.047c-1.027-0.232-1.859-0.898-2.331-1.776
	c-1.109,0.291-2.323,0.58-3.67,0.885c-1.611,0.361-2.754,1.793-2.754,3.445c0,1.65,1.141,3.08,2.754,3.445
	c12.605,2.848,14.197,4.441,17.046,17.047c0.365,1.611,1.796,2.754,3.446,2.754c1.651,0,3.083-1.143,3.444-2.756
	c0.304-1.346,0.594-2.559,0.885-3.668C322.204,457.596,321.539,456.764,321.307,455.739z"/>
<path style="fill:#FFFFFF;" d="M417.246,201.492c-1.65,0-3.081-1.143-3.446-2.754c-2.849-12.605-4.44-14.199-17.046-17.047
	c-1.613-0.365-2.754-1.795-2.754-3.445c0-1.652,1.143-3.084,2.754-3.445c12.605-2.848,14.197-4.441,17.045-17.049
	c0.365-1.609,1.799-2.754,3.447-2.752c1.651-0.002,3.081,1.143,3.444,2.754c2.851,12.605,4.442,14.197,17.05,17.045
	c1.607,0.365,2.752,1.793,2.754,3.447c-0.002,1.65-1.145,3.082-2.756,3.445c-12.605,2.848-14.199,4.441-17.048,17.045
	C420.329,200.35,418.897,201.492,417.246,201.492z"/>
<path style="fill:#D9EAFC;" d="M420.553,191.999c-2.849-12.605-4.44-14.199-17.046-17.047c-0.84-0.19-1.546-0.672-2.035-1.32
	c-1.378,0.388-2.934,0.766-4.718,1.169c-1.611,0.361-2.754,1.793-2.754,3.445c0,1.65,1.141,3.08,2.754,3.445
	c12.605,2.848,14.197,4.441,17.046,17.047c0.365,1.611,1.796,2.754,3.446,2.754c1.651,0,3.083-1.143,3.444-2.756
	c0.402-1.781,0.78-3.337,1.168-4.713C421.218,193.534,420.741,192.831,420.553,191.999z"/>
<g>
</g>
<g>
</g>
<g>
</g>
<g>
</g>
<g>
</g>
<g>
</g>
<g>
</g>
<g>
</g>
<g>
</g>
<g>
</g>
<g>
</g>
<g>
</g>
<g>
</g>
<g>
</g>
<g>
</g>
</svg>
