<?xml version="1.0" encoding="iso-8859-1"?>
<!-- Generator: Adobe Illustrator 21.0.0, SVG Export Plug-In . SVG Version: 6.00 Build 0)  -->
<svg xmlns="http://www.w3.org/2000/svg" xmlns:xlink="http://www.w3.org/1999/xlink" version="1.1" id="Capa_1" x="0px" y="0px" viewBox="0 0 512 512" style="enable-background:new 0 0 512 512;" xml:space="preserve" width="512" height="512">
<g>
	<g>
		<circle style="fill:#2864F0;" cx="256" cy="256" r="256"/>
	</g>
	<path style="fill:#27488F;" d="M300.538,508.13c113.947-19.991,201.95-115.331,210.736-232.759L367.193,131.29l-8.301,5.537   l-57.884-57.884L250,457.592L300.538,508.13z"/>
	<g>
		<path style="fill:#FFCE00;" d="M370.361,182.613L269.733,449.345c-4.777,12.663-22.689,12.663-27.467,0L141.639,182.613    L370.361,182.613z"/>
	</g>
	<g>
		<path style="fill:#FFA300;" d="M255.595,182.613v276.215c5.806,0.154,11.693-3.001,14.138-9.483l100.627-266.732L255.595,182.613z    "/>
	</g>
	<g>
		<path style="fill:#FF7D81;" d="M315.997,230.994c34.792,0,62.997-28.205,62.997-62.997c0-34.665-28-62.782-62.617-62.987    C308.634,78.984,284.54,60,256,60s-52.634,18.984-60.376,45.01c-34.617,0.205-62.617,28.322-62.617,62.987    c0,34.792,28.205,62.997,62.997,62.997H315.997z"/>
	</g>
	<g>
		<path style="fill:#FF636E;" d="M316.376,105.01C308.634,78.984,284.54,60,256,60c-0.136,0-0.27,0.008-0.405,0.008v170.985h60.402    c34.792,0,62.997-28.205,62.997-62.997C378.994,133.332,350.993,105.215,316.376,105.01z"/>
	</g>
</g>















</svg>
