<?xml version="1.0" encoding="iso-8859-1"?>
<!-- Generator: Adobe Illustrator 19.0.0, SVG Export Plug-In . SVG Version: 6.00 Build 0)  -->
<svg version="1.1" id="Capa_1" xmlns="http://www.w3.org/2000/svg" xmlns:xlink="http://www.w3.org/1999/xlink" x="0px" y="0px"
	 viewBox="0 0 512 512" style="enable-background:new 0 0 512 512;" xml:space="preserve">
<linearGradient id="SVGID_1_" gradientUnits="userSpaceOnUse" x1="74.9807" y1="439.0193" x2="437.0193" y2="76.9807" gradientTransform="matrix(1 0 0 -1 0 514)">
	<stop  offset="0" style="stop-color:#D6954D"/>
	<stop  offset="1" style="stop-color:#C45D23"/>
</linearGradient>
<circle style="fill:url(#SVGID_1_);" cx="256" cy="256" r="256"/>
<linearGradient id="SVGID_2_" gradientUnits="userSpaceOnUse" x1="115.99" y1="268.3972" x2="416.75" y2="268.3972" gradientTransform="matrix(1 0 0 -1 0 514)">
	<stop  offset="0" style="stop-color:#FFFFFF"/>
	<stop  offset="1" style="stop-color:#D5D9D8"/>
</linearGradient>
<path style="fill:url(#SVGID_2_);" d="M372.965,107.315c-80.203,0-104.143-72.109-104.143-72.109h-21.68v295.868
	c-21.08-17.503-54.102-21.744-84.509-8.354c-40.619,17.887-61.187,60.457-45.939,95.084c15.248,34.626,60.537,48.197,101.157,30.31
	c31.239-13.756,50.596-42.112,50.945-70.226l0.027,0.022V131.597c0,0,21.461,60.796,86.484,44.149
	c87.405-22.378,99.549,21.338,99.549,21.338S450.449,107.315,372.965,107.315z"/>
<g>
</g>
<g>
</g>
<g>
</g>
<g>
</g>
<g>
</g>
<g>
</g>
<g>
</g>
<g>
</g>
<g>
</g>
<g>
</g>
<g>
</g>
<g>
</g>
<g>
</g>
<g>
</g>
<g>
</g>
</svg>
