<svg viewBox="0 0 512 512" xmlns="http://www.w3.org/2000/svg"><path d="m512 256c0 141.386719-114.613281 256-256 256s-256-114.613281-256-256 114.613281-256 256-256 256 114.613281 256 256zm0 0" fill="#2864f0"/><path d="m511.957031 259.457031-139.457031-139.457031-31.445312 19.09375-71.023438-71.019531-13.441406 66.332031-117.089844 23.59375 58.367188 58.367188-17.714844 2.078124-44.734375-44.730468-19.8125 40.890625-62.929688 18.820312 69.269531 69.269531-28.132812 5.558594 32.636719 32.636719 23.628906 148.230469c32.28125 14.691406 68.144531 22.878906 105.921875 22.878906 140.230469 0 254.105469-112.753906 255.957031-252.542969zm0 0" fill="#0053bf"/><path d="m221.851562 509.726562c11.171876 1.492188 22.570313 2.273438 34.148438 2.273438s22.976562-.78125 34.148438-2.273438v-247.726562h-68.296876zm0 0" fill="#00f3ff"/><path d="m255.605469 262v249.996094c.132812 0 .261719.003906.394531.003906 11.578125 0 22.976562-.78125 34.148438-2.273438v-247.726562zm0 0" fill="#00c2ef"/><path d="m372.5 158v-38h-81.265625l.0625-.78125c0-20.421875-8.65625-39.890625-23.820313-53.574219l-.300781-.269531c-6.347656-5.726562-16-5.726562-22.351562 0l-.300781.269531c-15.164063 13.683594-23.816407 33.152344-23.816407 53.574219l.0625.78125h-81.269531v38l86.019531 22.152344 4.570313 57.859375-26.964844 14.109375v21.613281h105.753906v-21.613281l-26.96875-14.109375 4.570313-57.859375zm0 0" fill="#fff"/><path d="m372.5 158v-38h-81.265625l.0625-.78125c0-20.421875-8.65625-39.890625-23.820313-53.574219l-.300781-.269531c-3.277343-2.957031-7.4375-4.375-11.570312-4.277344v212.636719h53.273437v-21.613281l-26.96875-14.109375 4.570313-57.859375zm0 0" fill="#dce1eb"/><path d="m361.921875 489.121094c15.625-7.109375 30.402344-15.753906 44.15625-25.726563v-162.726562h-44.15625zm0 0" fill="#00c2ef"/><path d="m459.324219 233.425781v-24.570312h-52.542969l.039062-.503907c0-13.207031-5.597656-25.792968-15.398437-34.636718l-.195313-.175782c-4.105468-3.703124-10.347656-3.703124-14.453124 0l-.191407.175782c-9.804687 8.84375-15.402343 21.429687-15.402343 34.636718l.042968.503907h-52.546875v24.570312l55.617188 14.320313 2.953125 37.410156-17.433594 9.125v13.972656h68.375v-13.972656l-17.433594-9.125 2.957032-37.410156zm0 0" fill="#dce1eb"/><path d="m105.921875 463.394531c13.753906 9.972657 28.53125 18.617188 44.15625 25.726563v-188.453125h-44.15625zm0 0" fill="#00f3ff"/><path d="m203.324219 233.425781v-24.570312h-52.542969l.039062-.503907c0-13.207031-5.597656-25.792968-15.398437-34.636718l-.195313-.175782c-4.105468-3.703124-10.347656-3.703124-14.453124 0l-.191407.175782c-9.804687 8.84375-15.402343 21.429687-15.402343 34.636718l.042968.503907h-52.546875v24.570312l55.613281 14.320313 2.957032 37.410156-17.433594 9.125v13.972656h68.375v-13.972656l-17.433594-9.125 2.957032-37.410156zm0 0" fill="#fff"/></svg>