<?xml version="1.0" encoding="iso-8859-1"?>
<!-- Generator: Adobe Illustrator 19.0.0, SVG Export Plug-In . SVG Version: 6.00 Build 0)  -->
<svg version="1.1" id="Capa_1" xmlns="http://www.w3.org/2000/svg" xmlns:xlink="http://www.w3.org/1999/xlink" x="0px" y="0px"
	 viewBox="0 0 512 512" style="enable-background:new 0 0 512 512;" xml:space="preserve">
<circle style="fill:#590F38;" cx="256" cy="256" r="256"/>
<path style="fill:#380925;" d="M243.006,511.674C247.31,511.889,251.642,512,256,512"/>
<path style="fill:#3A0726;" d="M512,256c0-2.726-0.057-5.437-0.142-8.142L351.602,87.811L342.75,145l-46.25,42.5L223,113l-71-15
	l-53,46l-10,89l42.756,115.94l34.869,38.685l-6.227,36.564l87.46,87.669c2.705,0.084,5.417,0.142,8.142,0.142
	C397.385,512,512,397.385,512,256z"/>
<path style="fill:#FFDC00;" d="M231.439,122.109c-16.425-22.117-38.511-34.298-62.189-34.298s-45.764,12.181-62.189,34.298
	C91.223,143.438,82.5,171.653,82.5,201.56c0,30.64,9.243,71.735,23.547,104.696c15.382,35.443,34.412,56.999,54.351,61.947v55.985
	h17.704v-55.985c19.938-4.949,38.969-26.505,54.35-61.947C246.757,273.295,256,232.2,256,201.56
	C256,171.653,247.278,143.438,231.439,122.109z M140.038,288.399h20.36v20.714h-20.36V288.399z M178.102,232.277v-20.714h20.36
	v20.714H178.102z M198.462,249.981v20.714h-20.36v-20.714H198.462z M160.398,173.145v20.714h-20.36v-20.714H160.398z
	 M140.038,155.441v-20.714h20.36v20.714H140.038z M160.398,211.563v20.714h-20.36v-20.714H160.398z M178.102,193.859v-20.714h20.36
	v20.714H178.102z M178.102,155.441v-20.714h20.36v20.714H178.102z M216.166,134.727h2.621c4.301,6.167,8.015,13.129,11.012,20.714
	h-13.633V134.727z M198.462,117.023h-20.36v-10.721c7.189,1.285,14.034,4.12,20.36,8.246V117.023z M160.398,117.023h-20.36v-2.475
	c6.326-4.126,13.171-6.961,20.36-8.246V117.023z M122.334,134.727v20.714h-13.633c2.998-7.585,6.711-14.547,11.012-20.714H122.334z
	 M122.334,173.145v20.714h-21.908c0.41-7.152,1.384-14.085,2.863-20.714H122.334z M122.334,211.563v20.714h-19.438
	c-1.146-7.162-1.945-14.123-2.359-20.714H122.334z M106.34,249.981h15.994v20.714h-10.472
	C109.768,263.838,107.915,256.887,106.34,249.981z M140.038,249.981h20.36v20.714h-20.36V249.981z M178.102,288.399h20.36v20.714
	h-20.36V288.399z M216.166,299.313v-10.914h4.428c-1.397,3.681-2.857,7.295-4.382,10.809
	C216.197,299.243,216.181,299.277,216.166,299.313z M216.166,270.695v-20.714h15.994c-1.576,6.906-3.428,13.857-5.522,20.714
	H216.166z M216.166,232.277v-20.714h21.797c-0.414,6.591-1.213,13.553-2.359,20.714H216.166z M216.166,193.859v-20.714h19.045
	c1.479,6.628,2.453,13.562,2.863,20.714H216.166z M117.906,288.399h4.429v10.914c-0.015-0.035-0.031-0.069-0.046-0.105
	C120.763,295.693,119.302,292.08,117.906,288.399z M137.054,326.817h23.344v22.711C152.706,346.036,144.709,338.219,137.054,326.817
	z M178.102,349.527v-22.711h23.344C193.791,338.219,185.794,346.036,178.102,349.527z"/>
<path style="fill:#FFC000;" d="M231.439,122.109c-16.356-22.025-38.327-34.192-61.894-34.293v336.373h8.557v-55.985
	c19.938-4.949,38.969-26.505,54.35-61.947C246.757,273.295,256,232.2,256,201.56C256,171.653,247.278,143.438,231.439,122.109z
	 M178.102,106.302c7.189,1.285,14.034,4.12,20.36,8.246v2.475h-20.36V106.302z M178.102,134.727h20.36v20.714h-20.36V134.727z
	 M178.102,173.145h20.36v20.714h-20.36V173.145z M178.102,211.563h20.36v20.714h-20.36V211.563z M178.102,249.981h20.36v20.714
	h-20.36V249.981z M178.102,288.399h20.36v20.714h-20.36V288.399z M178.102,349.527v-22.711h23.344
	C193.791,338.219,185.794,346.036,178.102,349.527z M216.166,134.727h2.621c4.301,6.167,8.015,13.129,11.012,20.714h-13.633V134.727
	z M216.166,173.145h19.045c1.479,6.628,2.453,13.562,2.863,20.714h-21.908V173.145z M216.212,299.208
	c-0.015,0.035-0.031,0.069-0.046,0.105v-10.914h4.428C219.198,292.08,217.737,295.693,216.212,299.208z M226.638,270.695h-10.472
	v-20.714h15.994C230.585,256.887,228.732,263.838,226.638,270.695z M235.604,232.277h-19.438v-20.714h21.797
	C237.549,218.153,236.75,225.115,235.604,232.277z"/>
<path style="fill:#FFDC00;" d="M429.5,310.44c0-30.64-9.243-71.735-23.548-104.696c-15.382-35.443-34.412-56.999-54.35-61.948
	V87.811h-17.704v55.985c-19.939,4.949-38.969,26.505-54.351,61.948C265.243,238.705,256,279.8,256,310.44
	c0,29.907,8.723,58.123,24.561,79.451c16.425,22.117,38.511,34.298,62.189,34.298c23.678,0,45.764-12.181,62.189-34.298
	C420.778,368.563,429.5,340.347,429.5,310.44z M313.538,202.888h20.36v20.714h-20.36L313.538,202.888L313.538,202.888z
	 M371.962,279.723v20.714h-20.36v-20.714H371.962z M351.602,262.019v-20.714h20.36v20.714H351.602z M313.538,338.855v-20.714h20.36
	v20.714H313.538z M333.898,356.559v20.714h-20.36v-20.714H333.898z M313.538,300.438v-20.714h20.36v20.714H313.538z
	 M371.962,318.142v20.714h-20.36v-20.714H371.962z M371.962,356.559v20.714h-20.36v-20.714H371.962z M389.666,356.559h13.633
	c-2.998,7.585-6.711,14.547-11.012,20.714h-2.621V356.559z M371.962,397.452c-6.326,4.126-13.171,6.961-20.36,8.246v-10.721h20.36
	L371.962,397.452L371.962,397.452z M333.898,405.698c-7.189-1.285-14.034-4.12-20.36-8.246v-2.475h20.36V405.698z M293.214,377.273
	c-4.301-6.167-8.015-13.129-11.012-20.714h13.633v20.714H293.214z M276.789,338.855c-1.479-6.628-2.453-13.562-2.863-20.714h21.908
	v20.714H276.789z M274.037,300.438c0.414-6.591,1.213-13.553,2.359-20.714h19.438v20.714H274.037z M285.362,241.305h10.472v20.714
	H279.84C281.415,255.113,283.268,248.162,285.362,241.305z M313.538,241.305h20.36v20.714h-20.36L313.538,241.305L313.538,241.305z
	 M351.602,202.888h20.36v20.714h-20.36V202.888z M389.712,212.792c1.525,3.514,2.986,7.128,4.382,10.809h-4.428v-10.914
	C389.681,212.723,389.697,212.757,389.712,212.792z M400.138,241.305c2.094,6.856,3.946,13.808,5.522,20.714h-15.994v-20.714
	L400.138,241.305L400.138,241.305z M409.104,279.723c1.146,7.162,1.945,14.124,2.359,20.714h-21.797v-20.714H409.104z
	 M411.574,318.142c-0.41,7.152-1.384,14.085-2.863,20.714h-19.045v-20.714H411.574z M295.788,212.792
	c0.015-0.035,0.031-0.069,0.046-0.105v10.914h-4.429C292.802,219.921,294.263,216.307,295.788,212.792z M333.898,162.473v22.711
	h-23.344C318.209,173.781,326.206,165.964,333.898,162.473z M374.947,185.184h-23.344v-22.711
	C359.294,165.964,367.291,173.781,374.947,185.184z"/>
<path style="fill:#FFC000;" d="M429.5,310.44c0-30.64-9.243-71.735-23.548-104.696c-15.382-35.443-34.412-56.999-54.35-61.948
	V87.811h-8.557v336.373c23.567-0.101,45.538-12.268,61.894-34.293C420.778,368.563,429.5,340.347,429.5,310.44z M351.602,394.977
	h20.36v2.475c-6.326,4.126-13.171,6.961-20.36,8.246V394.977z M351.602,356.559h20.36v20.714h-20.36V356.559z M351.602,318.142
	h20.36v20.714h-20.36V318.142z M351.602,279.723h20.36v20.714h-20.36V279.723z M351.602,241.305h20.36v20.714h-20.36V241.305z
	 M351.602,202.888h20.36v20.714h-20.36V202.888z M374.947,185.184h-23.344v-22.711C359.294,165.964,367.291,173.781,374.947,185.184
	z M389.666,356.559h13.633c-2.998,7.585-6.711,14.547-11.012,20.714h-2.621V356.559z M389.666,318.142h21.908
	c-0.41,7.152-1.384,14.085-2.863,20.714h-19.045L389.666,318.142L389.666,318.142z M394.094,223.601h-4.428v-10.914
	c0.015,0.035,0.031,0.069,0.046,0.105C391.237,216.307,392.698,219.921,394.094,223.601z M405.66,262.019h-15.994v-20.714h10.472
	C402.232,248.162,404.085,255.113,405.66,262.019z M411.463,300.438h-21.797v-20.714h19.438
	C410.25,286.885,411.049,293.847,411.463,300.438z"/>
<g>
</g>
<g>
</g>
<g>
</g>
<g>
</g>
<g>
</g>
<g>
</g>
<g>
</g>
<g>
</g>
<g>
</g>
<g>
</g>
<g>
</g>
<g>
</g>
<g>
</g>
<g>
</g>
<g>
</g>
</svg>
