<?xml version="1.0" encoding="iso-8859-1"?>
<!-- Generator: Adobe Illustrator 19.0.0, SVG Export Plug-In . SVG Version: 6.00 Build 0)  -->
<svg version="1.1" id="Layer_1" xmlns="http://www.w3.org/2000/svg" xmlns:xlink="http://www.w3.org/1999/xlink" x="0px" y="0px"
	 viewBox="0 0 512 512" style="enable-background:new 0 0 512 512;" xml:space="preserve">
<path style="fill:#C7C67C;" d="M496.162,167.179C460.052,69.577,366.155,0,256,0C114.616,0,0,114.616,0,256
	c0,110.155,69.577,204.052,167.179,240.162L496.162,167.179z"/>
<path style="fill:#B4B249;" d="M512,256c0-31.23-5.601-61.149-15.837-88.821l-59.93-59.93l-70.834,39.352l-266.02,281.76l67.8,67.8
	C194.85,506.399,224.77,512,256,512C397.384,512,512,397.384,512,256z"/>
<polygon style="fill:#98F0E7;" points="178.083,349.658 162.342,349.658 162.342,333.917 349.658,146.601 365.399,162.342 "/>
<polygon style="fill:#046E4A;" points="162.342,349.658 146.601,349.658 115.12,381.139 95.443,361.463 79.703,377.205 
	99.379,396.88 83.639,412.621 99.379,428.361 115.12,412.621 134.795,432.297 150.537,416.556 130.861,396.88 162.342,365.399 "/>
<g>
	<path style="fill:#02432C;" d="M417.343,254.422c-18.412,0-33.391-14.979-33.391-33.391c0-2.147,0.404-5.022,0.579-6.158
		l0.097-0.543L406.433,107.5l21.811-0.001l21.816,106.827c0.449,2.195,0.676,4.452,0.676,6.705
		C450.735,239.442,435.755,254.422,417.343,254.422z M406.499,218.485c-0.141,0.978-0.276,2.183-0.286,2.591
		c0,6.092,4.993,11.084,11.13,11.084s11.13-4.993,11.13-11.13c0-0.76-0.076-1.516-0.226-2.249l-10.908-53.413L406.499,218.485z"/>
	<polygon style="fill:#02432C;" points="365.399,162.342 341.788,138.731 404.75,75.768 420.491,91.509 	"/>
</g>
<polygon style="fill:#011911;" points="381.139,162.342 436.232,107.25 420.491,91.509 365.399,146.601 341.788,122.99 
	326.046,138.731 373.269,185.953 389.01,170.212 "/>
<rect x="151.202" y="338.524" transform="matrix(-0.7071 -0.7071 0.7071 -0.7071 29.8746 711.6841)" style="fill:#02432C;" width="22.261" height="22.261"/>
<polygon style="fill:#FFFFFF;" points="333.917,349.658 349.658,349.658 349.658,333.917 162.342,146.601 146.601,162.342 "/>
<polygon style="fill:#059866;" points="432.297,377.205 416.556,361.463 396.88,381.139 365.399,349.658 349.658,349.658 
	349.658,365.399 381.139,396.88 361.463,416.556 377.205,432.297 396.88,412.621 412.621,428.361 428.361,412.621 412.621,396.88 
	"/>
<g>
	<path style="fill:#046E4A;" d="M61.265,221.03c0-2.253,0.227-4.51,0.676-6.705l21.816-106.827l21.811,0.001l21.806,106.829
		l0.097,0.543c0.174,1.136,0.579,4.011,0.579,6.158c0,18.412-14.979,33.391-33.391,33.391S61.265,239.442,61.265,221.03z
		 M94.66,165.368l-10.908,53.413c-0.15,0.733-0.226,1.489-0.226,2.249c0,6.137,4.993,11.13,11.13,11.13s11.13-4.993,11.13-11.084
		c-0.01-0.408-0.145-1.613-0.286-2.591L94.66,165.368z"/>
	<polygon style="fill:#046E4A;" points="146.601,162.342 170.212,138.731 107.25,75.768 91.509,91.509 	"/>
</g>
<polygon style="fill:#02432C;" points="130.861,162.342 75.768,107.25 91.509,91.509 146.601,146.601 170.212,122.99 
	185.953,138.731 138.731,185.953 122.99,170.212 "/>
<rect x="338.52" y="338.532" transform="matrix(0.7071 -0.7071 0.7071 0.7071 -144.8385 349.654)" style="fill:#046E4A;" width="22.261" height="22.261"/>
<g>
</g>
<g>
</g>
<g>
</g>
<g>
</g>
<g>
</g>
<g>
</g>
<g>
</g>
<g>
</g>
<g>
</g>
<g>
</g>
<g>
</g>
<g>
</g>
<g>
</g>
<g>
</g>
<g>
</g>
</svg>
