<svg viewBox="0 0 512 512.001" xmlns="http://www.w3.org/2000/svg"><path d="m512 256c0 141.386719-114.613281 256-256 256-141.382812 0-256-114.613281-256-256s114.617188-256 256-256c141.386719 0 256 114.613281 256 256zm0 0" fill="#613394"/><path d="m512 256c0-14.433594-1.214844-28.585938-3.507812-42.367188l-89.167969-89.167968-30.402344 88.945312-167.035156-167.035156-76.917969 224.328125 94.875 94.875-58.589844 88.902344 56.886719 56.890625c5.902344.40625 11.855469.628906 17.859375.628906 141.386719 0 256-114.613281 256-256zm0 0" fill="#4b1b7a"/><path d="m213.53125 299.144531 3.546875 22.15625-48.734375 89.070313c-8.617188 15.746094-2.835938 35.496094 12.910156 44.109375 4.949219 2.710937 10.296875 3.996093 15.570313 3.996093 11.492187 0 22.632812-6.113281 28.539062-16.90625l59.414063-108.582031-7.03125-43.914062zm0 0" fill="#ff551c"/><path d="m216.183594 315.726562.894531 5.574219-26.488281 48.40625 55.6875 33.644531 31.226562-57.074218-36.964844-22.332032v-12.035156zm0 0" fill="#d8390e"/><path d="m359.101562 378.574219-118.5625-71.628907v-12.035156l-65 10.191406v19.871094c0 11.574219 6.054688 22.300782 15.957032 28.285156l133.992187 80.953126c5.257813 3.175781 11.050781 4.6875 16.773438 4.6875 11.003906-.003907 21.742187-5.59375 27.851562-15.699219 9.277344-15.363281 4.347657-35.34375-11.011719-44.625zm0 0" fill="#ff551c"/><path d="m263.203125 198.261719c-.03125-.015625-.054687-.03125-.082031-.042969-.070313-.039062-.144532-.074219-.214844-.109375 3.703125-5.722656 8.105469-10.949219 13.101562-15.546875-22.050781-16.265625-51.078124-20.910156-77.222656-12.011719l-17.144531 5.832031c-15.242187 5.1875-26.480469 17.65625-30.0625 33.351563-3.582031 15.699219 1.132813 31.804687 12.617187 43.09375l.851563.839844 10.492187-10.457031v61.890624l64.792969-10.160156 37.410157-5.867187zm0 0" fill="#2864f0"/><path d="m245.863281 129.914062c0 24.433594-19.804687 44.238282-44.238281 44.238282s-44.238281-19.804688-44.238281-44.238282c0-24.429687 19.804687-44.238281 44.238281-44.238281s44.238281 19.808594 44.238281 44.238281zm0 0" fill="#faa68e"/><path d="m157.386719 129.914062c0 24.433594 19.808593 44.238282 44.238281 44.238282 4.769531 0 9.355469-.761719 13.660156-2.15625l-26.46875-84.429688c-18.183594 5.492188-31.429687 22.371094-31.429687 42.347656zm0 0" fill="#ffbeaa"/><path d="m138.609375 72.285156 83.285156-25.902344 19.289063 62.023438-83.28125 25.902344zm0 0" fill="#d63212"/><path d="m138.609375 72.28125 19.292969 62.019531 41.515625-12.914062-19.429688-61.980469zm0 0" fill="#ff551c"/><path d="m153.574219 126.453125 100.804687-31.351563 4.328125 13.914063-100.804687 31.351563zm0 0" fill="#0053bf"/><path d="m153.574219 126.445312 4.328125 13.914063 43.246094-13.453125-4.359376-13.902344zm0 0" fill="#2864f0"/><path d="m177.75 251.289062 88.730469 39.554688-80.800781 12.667969zm0 0" fill="#27488f"/><path d="m198.546875 220.277344 75.453125 20.191406-28.992188 24.261719zm0 0" fill="#27488f"/><path d="m267.238281 260.277344h-84.535156c-16.980469 0-30.746094-13.765625-30.746094-30.746094 0-16.976562 13.765625-30.742188 30.746094-30.742188h142.628906c63.617188 0 93.992188 41.652344 93.992188 41.652344v-115.976562s-30.378907 40.894531-93.992188 41.648437c-5.734375.070313-87.40625.148438-145.511719.195313-32.03125.027344-57.976562 25.996094-57.976562 58.027344 0 32.046874 25.980469 58.023437 58.027344 58.023437h93.136718c22.421876 0 40.601563-18.175781 40.601563-40.597656v-35.453125h-26.726563v34.324218c-.003906 10.847657-8.796874 19.644532-19.644531 19.644532zm0 0" fill="#ffce00"/><path d="m141.710938 180.636719c-12.167969 10.636719-19.867188 26.261719-19.867188 43.699219 0 32.046874 25.980469 58.023437 58.027344 58.023437h93.136718c22.421876 0 40.601563-18.175781 40.601563-40.597656v-35.453125h-26.730469v34.324218c0 10.847657-8.792968 19.644532-19.640625 19.644532h-84.535156c-16.980469 0-30.746094-13.765625-30.746094-30.746094 0-16.976562 13.765625-30.742188 30.746094-30.742188h142.628906c63.617188 0 93.992188 41.652344 93.992188 41.652344v-59.804687zm0 0" fill="#fa0"/><path d="m318.363281 192.421875c-7.410156-10.65625-22.058593-13.285156-32.710937-5.875l-63.324219 44.039063c-3.289063 2.289062-7.6875 2.175781-10.851563-.28125l-12.929687-10.023438-33.5 33.390625 27.667969 22.140625c14.792968 11.839844 35.722656 12.183594 50.898437.832031l68.875-51.511719c4.558594-3.167968 7.644531-7.660156 9.109375-12.597656 1.957032-6.609375 1.003906-14.015625-3.234375-20.113281zm0 0" fill="#2864f0"/><path d="m312.488281 225.132812c4.558594-3.167968 7.644531-7.660156 9.109375-12.597656 1.957032-6.609375 1.003906-14.015625-3.234375-20.113281-7.410156-10.652344-22.054687-13.285156-32.710937-5.875zm0 0" fill="#ffbeaa"/></svg>